<svg width="69" height="165" viewBox="0 0 69 165" fill="none" xmlns="http://www.w3.org/2000/svg">
<g filter="url(#filter0_d)">
<path d="M12 15C12 9.47715 16.4772 5 22 5H61V150H22C16.4772 150 12 145.523 12 140V15Z" fill="white"/>
</g>
<path d="M39.399 95.67L39.399 100.736L42 101.654L42 103.728L30.185 99.308L30.185 97.081L42 92.678L42 94.752L39.399 95.67ZM37.903 96.214L32.293 98.203L37.903 100.192L37.903 96.214ZM29.913 91.1711C29.5843 91.1711 29.3123 91.0578 29.097 90.8311C28.8817 90.6044 28.774 90.3041 28.774 89.9301C28.774 89.5561 28.8817 89.2558 29.097 89.0291C29.3123 88.7911 29.5843 88.6721 29.913 88.6721C30.2417 88.6721 30.508 88.7911 30.712 89.0291C30.916 89.2558 31.018 89.5561 31.018 89.9301C31.018 90.3041 30.916 90.6044 30.712 90.8311C30.508 91.0578 30.2417 91.1711 29.913 91.1711ZM32.633 88.9611L42 88.9611L42 90.8991L32.633 90.8991L32.633 88.9611ZM32.514 82.5189C32.514 81.6689 32.7237 80.9436 33.143 80.3429C33.5623 79.7422 34.1177 79.3229 34.809 79.0849L29.42 79.0849L29.42 77.1299L42 77.1299L42 79.0849L39.824 79.0849C40.5153 79.3229 41.0707 79.7422 41.49 80.3429C41.9093 80.9436 42.119 81.6689 42.119 82.5189C42.119 83.3349 41.9263 84.0659 41.541 84.7119C41.1557 85.3466 40.6003 85.8452 39.875 86.2079C39.1497 86.5706 38.294 86.7519 37.308 86.7519C36.3333 86.7519 35.4833 86.5706 34.758 86.2079C34.0327 85.8452 33.4773 85.3466 33.092 84.7119C32.7067 84.0659 32.514 83.3349 32.514 82.5189ZM34.214 81.9239C34.214 82.7852 34.4917 83.4766 35.047 83.9979C35.591 84.5079 36.3447 84.7629 37.308 84.7629C38.2713 84.7629 39.0307 84.5079 39.586 83.9979C40.13 83.4766 40.402 82.7852 40.402 81.9239C40.402 81.3799 40.2773 80.8926 40.028 80.4619C39.7673 80.0312 39.4047 79.6912 38.94 79.4419C38.4753 79.1926 37.9313 79.0679 37.308 79.0679C36.696 79.0679 36.1577 79.1926 35.693 79.4419C35.217 79.6912 34.8543 80.0312 34.605 80.4619C34.3443 80.8926 34.214 81.3799 34.214 81.9239ZM36.866 65.7602C37.1833 65.7602 37.461 65.7829 37.699 65.8282L37.699 73.0362C38.6623 73.0022 39.3763 72.7359 39.841 72.2372C40.3057 71.7386 40.538 71.1209 40.538 70.3842C40.538 69.7382 40.3737 69.1942 40.045 68.7522C39.7163 68.2989 39.28 68.0212 38.736 67.9192L38.736 65.8452C39.3933 65.9699 39.977 66.2306 40.487 66.6272C40.997 67.0239 41.3993 67.5396 41.694 68.1742C41.9773 68.8089 42.119 69.5172 42.119 70.2992C42.119 71.2059 41.9263 72.0106 41.541 72.7132C41.1557 73.4046 40.6003 73.9486 39.875 74.3452C39.1497 74.7419 38.294 74.9402 37.308 74.9402C36.3333 74.9402 35.4833 74.7419 34.758 74.3452C34.0327 73.9486 33.4773 73.4046 33.092 72.7132C32.7067 72.0106 32.514 71.2059 32.514 70.2992C32.514 69.3812 32.7067 68.5822 33.092 67.9022C33.466 67.2109 33.9873 66.6839 34.656 66.3212C35.3133 65.9472 36.05 65.7602 36.866 65.7602ZM36.815 67.7152C36.203 67.6926 35.693 67.8002 35.285 68.0382C34.8657 68.2649 34.5597 68.5822 34.367 68.9902C34.163 69.3869 34.061 69.8232 34.061 70.2992C34.061 71.0586 34.2933 71.6932 34.758 72.2032C35.2227 72.7132 35.9083 72.9909 36.815 73.0362L36.815 67.7152Z" fill="url(#paint0_linear)"/>
<path fill-rule="evenodd" clip-rule="evenodd" d="M48.9511 38.84C48.8604 32.2427 43.4407 26.968 36.8422 27.0533C30.2436 27.1387 24.9679 32.5627 25.0533 39.16C25.144 45.7573 30.5636 51.032 37.1622 50.9467C43.7608 50.856 49.0418 45.4373 48.9511 38.84ZM37.0022 31.3147C37.9464 31.3147 38.7092 32.0773 38.7092 33.0213C38.7092 33.9653 37.9464 34.728 37.0022 34.728C36.058 34.728 35.2952 33.9653 35.2952 33.0213C35.2952 32.0773 36.058 31.3147 37.0022 31.3147ZM39.3493 46.4133H34.6551V45.8267H35.8286V37.2933H34.6551V36.6533H38.1757V45.8267H39.3493V46.4133Z" fill="black"/>
<mask id="mask0" mask-type="alpha" maskUnits="userSpaceOnUse" x="25" y="27" width="24" height="24">
<path fill-rule="evenodd" clip-rule="evenodd" d="M48.9511 38.84C48.8604 32.2427 43.4407 26.968 36.8422 27.0533C30.2436 27.1387 24.9679 32.5627 25.0533 39.16C25.144 45.7573 30.5636 51.032 37.1622 50.9467C43.7608 50.856 49.0418 45.4373 48.9511 38.84ZM37.0022 31.3147C37.9464 31.3147 38.7092 32.0773 38.7092 33.0213C38.7092 33.9653 37.9464 34.728 37.0022 34.728C36.058 34.728 35.2952 33.9653 35.2952 33.0213C35.2952 32.0773 36.058 31.3147 37.0022 31.3147ZM39.3493 46.4133H34.6551V45.8267H35.8286V37.2933H34.6551V36.6533H38.1757V45.8267H39.3493V46.4133Z" fill="white"/>
</mask>
<g mask="url(#mask0)">
<rect x="25" y="27" width="24" height="24" fill="url(#paint1_linear)"/>
</g>
<defs>
<filter id="filter0_d" x="0" y="0" width="69" height="165" filterUnits="userSpaceOnUse" color-interpolation-filters="sRGB">
<feFlood flood-opacity="0" result="BackgroundImageFix"/>
<feColorMatrix in="SourceAlpha" type="matrix" values="0 0 0 0 0 0 0 0 0 0 0 0 0 0 0 0 0 0 127 0"/>
<feOffset dx="-2" dy="5"/>
<feGaussianBlur stdDeviation="5"/>
<feColorMatrix type="matrix" values="0 0 0 0 0 0 0 0 0 0 0 0 0 0 0 0 0 0 0.25 0"/>
<feBlend mode="normal" in2="BackgroundImageFix" result="effect1_dropShadow"/>
<feBlend mode="normal" in="SourceGraphic" in2="effect1_dropShadow" result="shape"/>
</filter>
<linearGradient id="paint0_linear" x1="24" y1="104" x2="62.5421" y2="81.2251" gradientUnits="userSpaceOnUse">
<stop stop-color="#E6A519"/>
<stop offset="1" stop-color="#E05B19"/>
</linearGradient>
<linearGradient id="paint1_linear" x1="25" y1="27" x2="49" y2="51" gradientUnits="userSpaceOnUse">
<stop stop-color="#E6A519"/>
<stop offset="1" stop-color="#E05B19"/>
</linearGradient>
</defs>
</svg>
