<svg width="70" height="70" viewBox="0 0 70 70" fill="none" xmlns="http://www.w3.org/2000/svg">
<path d="M69.865 38.3683C69.2365 31.7827 66.4123 25.574 61.9122 20.8859C58.0666 16.8798 53.3595 14.3054 48.4067 13.1607V9.5418C50.4296 9.01752 51.9333 7.10996 51.9333 4.84262C51.9333 2.17234 49.848 0 47.2848 0H37.4409C34.8776 0 32.7923 2.17234 32.7923 4.84262C32.7923 7.10981 34.296 9.01738 36.3188 9.5418V13.1708C31.3811 14.3203 26.6897 16.8912 22.8549 20.8861C22.0157 21.7603 21.2419 22.6774 20.5336 23.6305C20.4992 23.6278 20.4649 23.6251 20.4299 23.6251H10.6871C9.93208 23.6251 9.31985 24.2628 9.31985 25.0494C9.31985 25.8361 9.93208 26.4737 10.6871 26.4737H18.6732C17.6708 28.222 16.8625 30.0581 16.2472 31.9482H1.36721C0.612236 31.9482 0 32.5858 0 33.3725C0 34.1591 0.612236 34.7968 1.36721 34.7968H15.4746C15.0806 36.5986 14.8544 38.4324 14.7961 40.2713H8.75013C7.99516 40.2713 7.38292 40.909 7.38292 41.6956C7.38292 42.4823 7.99516 43.1199 8.75013 43.1199H14.8397C14.9551 44.9635 15.2396 46.7975 15.6934 48.5945H6.83604C6.08107 48.5945 5.46883 49.2322 5.46883 50.0188C5.46883 50.8054 6.08107 51.4431 6.83604 51.4431H16.5659C17.9071 55.1393 20.0032 58.6036 22.8549 61.5744C27.3593 66.2669 33.3253 69.2098 39.6535 69.8611C40.5567 69.954 41.4606 70 42.3632 70C47.6983 70 52.9656 68.3915 57.435 65.3595C58.0678 64.9302 58.2468 64.0479 57.8347 63.3887C57.4226 62.7295 56.5756 62.5431 55.9429 62.9724C46.1595 69.6092 33.0572 68.1742 24.7884 59.5602C15.0865 49.4531 15.0865 33.0077 24.7884 22.9004C34.4903 12.7935 50.2765 12.7935 59.9786 22.9004C68.2364 31.5032 69.6214 45.141 63.2717 55.3279C62.8604 55.9876 63.0405 56.8698 63.6736 57.2981C64.3072 57.7265 65.1538 57.539 65.5649 56.8792C68.9575 51.4363 70.4846 44.8624 69.865 38.3683ZM35.5268 4.84276C35.5268 3.7432 36.3854 2.84874 37.4409 2.84874H47.2848C48.3402 2.84874 49.1988 3.7432 49.1988 4.84276C49.1988 5.94232 48.3402 6.83678 47.2848 6.83678H47.0395H37.686H37.4409C36.3854 6.83678 35.5268 5.94217 35.5268 4.84276ZM39.0532 12.6811V9.68537H45.6723V12.676C43.4743 12.4036 41.2507 12.4054 39.0532 12.6811Z" fill="url(#paint0_linear)"/>
<path d="M60.9463 59.1423C60.5854 59.1423 60.234 59.2947 59.9798 59.5596C59.7242 59.8246 59.5791 60.192 59.5791 60.5666C59.5791 60.9412 59.7242 61.3087 59.9798 61.5736C60.234 61.8399 60.5855 61.9909 60.9463 61.9909C61.3059 61.9909 61.6572 61.8399 61.9129 61.5736C62.1672 61.3087 62.3135 60.9412 62.3135 60.5666C62.3135 60.192 62.1673 59.8246 61.9129 59.5596C61.6572 59.2947 61.3057 59.1423 60.9463 59.1423Z" fill="url(#paint1_linear)"/>
<path d="M42.3837 19.1349C30.6889 19.1349 21.1743 29.0466 21.1743 41.2299C21.1743 53.4132 30.6889 63.3249 42.3837 63.3249C54.0785 63.3249 63.593 53.4132 63.593 41.2299C63.593 29.0466 54.0785 19.1349 42.3837 19.1349ZM42.3837 60.4763C32.1965 60.4763 23.9087 51.8423 23.9087 41.2299C23.9087 30.6174 32.1965 21.9835 42.3837 21.9835C52.5709 21.9835 60.8586 30.6174 60.8586 41.2299C60.8586 51.8423 52.5709 60.4763 42.3837 60.4763Z" fill="url(#paint2_linear)"/>
<path d="M51.0319 30.2062L44.2601 37.2606C43.6938 36.9689 43.0568 36.8041 42.3835 36.8041C41.71 36.8041 41.0731 36.9689 40.5068 37.2606L37.4762 34.1034C36.9421 33.5472 36.0767 33.5472 35.5425 34.1034C35.0086 34.6596 35.0086 35.5614 35.5425 36.1176L38.5732 39.2749C38.2931 39.8648 38.135 40.5284 38.135 41.2298C38.135 43.6702 40.0408 45.6557 42.3835 45.6557C44.7262 45.6557 46.6319 43.6702 46.6319 41.2298C46.6319 40.5284 46.4737 39.8648 46.1937 39.2749L52.7667 32.4274L52.9654 32.2204C53.4993 31.6643 53.4993 30.7624 52.9654 30.2062C52.4315 29.65 51.566 29.65 51.0319 30.2062ZM42.3835 42.8073C41.5487 42.8073 40.8694 42.0997 40.8694 41.23C40.8694 40.3603 41.5487 39.6527 42.3835 39.6527C43.2183 39.6527 43.8975 40.3603 43.8975 41.23C43.8975 42.0997 43.2183 42.8073 42.3835 42.8073Z" fill="url(#paint3_linear)"/>
<path d="M57.0021 39.823H55.7354C54.9804 39.823 54.3682 40.4606 54.3682 41.2473C54.3682 42.0339 54.9804 42.6716 55.7354 42.6716H57.0021C57.757 42.6716 58.3692 42.0339 58.3692 41.2473C58.3692 40.4606 57.757 39.823 57.0021 39.823Z" fill="url(#paint4_linear)"/>
<path d="M29.0322 39.7886H27.7656C27.0107 39.7886 26.3984 40.4262 26.3984 41.2129C26.3984 41.9995 27.0107 42.6371 27.7656 42.6371H29.0322C29.7871 42.6371 30.3994 41.9995 30.3994 41.2129C30.3994 40.4262 29.7871 39.7886 29.0322 39.7886Z" fill="url(#paint5_linear)"/>
<path d="M42.4004 28.7454C43.1554 28.7454 43.7676 28.1077 43.7676 27.3211V26.0017C43.7676 25.215 43.1554 24.5774 42.4004 24.5774C41.6454 24.5774 41.0332 25.215 41.0332 26.0017V27.3211C41.0332 28.1077 41.6454 28.7454 42.4004 28.7454Z" fill="url(#paint6_linear)"/>
<path d="M42.3672 53.7146C41.6122 53.7146 41 54.3522 41 55.1389V56.4583C41 57.245 41.6122 57.8826 42.3672 57.8826C43.1221 57.8826 43.7344 57.245 43.7344 56.4583V55.1389C43.7344 54.3522 43.1221 53.7146 42.3672 53.7146Z" fill="url(#paint7_linear)"/>
<path d="M1.36719 48.594C1.00762 48.594 0.654882 48.7464 0.400586 49.0113C0.146289 49.2762 0 49.6437 0 50.0183C0 50.3943 0.146152 50.7603 0.400586 51.0252C0.655019 51.2902 1.00762 51.4425 1.36719 51.4425C1.72676 51.4425 2.07949 51.2902 2.33365 51.0252C2.58795 50.7603 2.73437 50.3929 2.73437 50.0183C2.73437 49.6437 2.58808 49.2762 2.33365 49.0113C2.07949 48.7464 1.72676 48.594 1.36719 48.594Z" fill="url(#paint8_linear)"/>
<defs>
<linearGradient id="paint0_linear" x1="0" y1="0" x2="70" y2="70" gradientUnits="userSpaceOnUse">
<stop stop-color="#E6A519"/>
<stop offset="1" stop-color="#E05B19"/>
</linearGradient>
<linearGradient id="paint1_linear" x1="59.5791" y1="59.1423" x2="62.4253" y2="61.8744" gradientUnits="userSpaceOnUse">
<stop stop-color="#E6A519"/>
<stop offset="1" stop-color="#E05B19"/>
</linearGradient>
<linearGradient id="paint2_linear" x1="21.1743" y1="19.1349" x2="65.3274" y2="61.5181" gradientUnits="userSpaceOnUse">
<stop stop-color="#E6A519"/>
<stop offset="1" stop-color="#E05B19"/>
</linearGradient>
<linearGradient id="paint3_linear" x1="35.1421" y1="29.7891" x2="50.8578" y2="47.8394" gradientUnits="userSpaceOnUse">
<stop stop-color="#E6A519"/>
<stop offset="1" stop-color="#E05B19"/>
</linearGradient>
<linearGradient id="paint4_linear" x1="54.3682" y1="39.823" x2="57.0599" y2="43.6038" gradientUnits="userSpaceOnUse">
<stop stop-color="#E6A519"/>
<stop offset="1" stop-color="#E05B19"/>
</linearGradient>
<linearGradient id="paint5_linear" x1="26.3984" y1="39.7886" x2="29.0902" y2="43.5692" gradientUnits="userSpaceOnUse">
<stop stop-color="#E6A519"/>
<stop offset="1" stop-color="#E05B19"/>
</linearGradient>
<linearGradient id="paint6_linear" x1="41.0332" y1="24.5774" x2="44.8565" y2="27.0856" gradientUnits="userSpaceOnUse">
<stop stop-color="#E6A519"/>
<stop offset="1" stop-color="#E05B19"/>
</linearGradient>
<linearGradient id="paint7_linear" x1="41" y1="53.7146" x2="44.8233" y2="56.2228" gradientUnits="userSpaceOnUse">
<stop stop-color="#E6A519"/>
<stop offset="1" stop-color="#E05B19"/>
</linearGradient>
<linearGradient id="paint8_linear" x1="0" y1="48.594" x2="2.84617" y2="51.3261" gradientUnits="userSpaceOnUse">
<stop stop-color="#E6A519"/>
<stop offset="1" stop-color="#E05B19"/>
</linearGradient>
</defs>
</svg>
