<svg width="39" height="25" viewBox="0 0 39 25" fill="none" xmlns="http://www.w3.org/2000/svg">
<path opacity="0.1" d="M1.27886 10.8124L6.20016 13.9256L3.20932 8.48767C4.05649 7.81346 5.10393 7.44039 6.18655 7.42728H6.26814C6.6096 7.4312 6.95076 7.40542 7.28775 7.35024L8.95537 8.41063L8.23937 7.11007C9.42615 6.70684 10.4564 5.94127 11.1849 4.92131L14.1712 6.81551L12.2815 3.3851C14.0307 1.28697 16.36 0 18.9747 0C22.0789 0 24.8658 1.84889 26.6331 4.72645C27.1616 5.58628 27.9083 6.29081 28.7974 6.76839C29.6865 7.24598 30.6862 7.47956 31.6949 7.4454H31.858C35.2884 7.4454 38.0663 11.329 38.0663 16.1279C38.0663 20.9269 35.2884 24.8059 31.858 24.8059C31.1046 24.8026 30.3631 24.6176 29.6964 24.2667C28.5297 23.6984 27.2533 23.391 25.9558 23.366C24.6582 23.341 23.3709 23.5988 22.1831 24.1217C21.178 24.5682 20.0904 24.799 18.9906 24.799C17.8907 24.799 16.8031 24.5682 15.7981 24.1217C14.6186 23.6098 13.3428 23.3579 12.0573 23.3829C10.7718 23.4079 9.50678 23.7093 8.34813 24.2667C7.68718 24.6097 6.95388 24.7899 6.20923 24.7923C2.78335 24.7923 0.000946528 20.9088 0.000946528 16.1143C-0.0232317 14.2679 0.41615 12.445 1.27886 10.8124V10.8124Z" fill="#FF0F00"/>
</svg>
