<svg width="39" height="26" viewBox="0 0 39 26" fill="none" xmlns="http://www.w3.org/2000/svg">
<path opacity="0.1" d="M1.66875 11.5082L6.59005 14.6214L3.59921 9.18353C4.44638 8.50932 5.49382 8.13625 6.57644 8.12314H6.65804C6.9995 8.12706 7.34065 8.10128 7.67764 8.0461L9.34527 9.10649L8.62927 7.80593C9.81604 7.4027 10.8463 6.63713 11.5748 5.61717L14.5611 7.51137L12.6714 4.08096C14.4206 1.98283 16.7499 0.695862 19.3646 0.695862C22.4687 0.695862 25.2557 2.54475 27.023 5.42231C27.5515 6.28214 28.2982 6.98668 29.1873 7.46426C30.0764 7.94184 31.0761 8.17543 32.0848 8.14126H32.2479C35.6783 8.14126 38.4562 12.0248 38.4562 16.8238C38.4562 21.6227 35.6783 25.5018 32.2479 25.5018C31.4945 25.4984 30.753 25.3134 30.0863 24.9625C28.9196 24.3943 27.6432 24.0869 26.3456 24.0619C25.0481 24.0368 23.7607 24.2947 22.573 24.8175C21.5679 25.2641 20.4803 25.4949 19.3805 25.4949C18.2806 25.4949 17.193 25.2641 16.188 24.8175C15.0085 24.3057 13.7327 24.0537 12.4472 24.0788C11.1617 24.1038 9.89667 24.4052 8.73802 24.9625C8.07707 25.3055 7.34378 25.4858 6.59912 25.4882C3.17324 25.4882 0.390839 21.6046 0.390839 16.8102C0.366661 14.9638 0.806043 13.1409 1.66875 11.5082V11.5082Z" fill="#FF6C63"/>
</svg>
