<svg width="99" height="99" viewBox="0 0 99 99" fill="none" xmlns="http://www.w3.org/2000/svg">
<circle cx="49.0039" cy="49.0039" r="49.0039" fill="url(#paint0_linear)"/>
<path d="M20.4713 56.3905C20.8004 56.6184 21.1476 56.8191 21.5093 56.9905C21.9423 57.2115 22.6663 57.5815 22.7173 57.8415C22.781 58.1829 22.7402 58.5356 22.6003 58.8535C22.4513 59.1735 22.2943 59.4485 22.1603 59.6865C21.7933 60.3325 21.1813 61.4155 22.1053 62.1715C22.3213 62.3715 22.6943 62.6605 23.0353 62.9215C22.7848 63.359 22.6712 63.8617 22.7093 64.3645C22.7619 64.758 22.9742 65.1124 23.2963 65.3445C23.5213 65.5045 23.7623 65.6445 23.9963 65.7795C24.5843 66.1145 24.8143 66.2705 24.8963 66.5795C24.9501 66.9863 24.9125 67.4 24.7863 67.7905C24.7273 68.0505 24.6703 68.3095 24.6333 68.5755C24.5342 69.4875 24.65 70.4101 24.9713 71.2695C25.4201 72.8618 26.8602 73.9714 28.5143 73.9995C28.7889 73.9984 29.0626 73.9696 29.3313 73.9135C32.1882 73.2364 35.0032 72.394 37.7623 71.3905C40.0143 72.7125 41.4383 76.7325 41.8093 78.2415C41.9205 78.6871 42.321 78.9998 42.7803 78.9995L67.8804 78.9295C68.1984 78.9288 68.4973 78.7769 68.6852 78.5203C68.8731 78.2636 68.9278 77.9329 68.8324 77.6295C68.585 76.9519 68.2441 76.3124 67.8194 75.7295C67.5791 75.3845 67.3626 75.0237 67.1714 74.6495C66.7192 73.7323 66.3416 72.7802 66.0423 71.8025C65.4719 69.8698 65.076 67.8899 64.8593 65.8865C64.5083 62.8947 64.9619 59.8634 66.1733 57.1055C66.9126 55.5759 67.8238 54.1356 68.8894 52.8125C69.4893 52.0025 70.1124 51.1635 70.6714 50.2825C71.6325 48.7894 72.3293 47.142 72.7313 45.4125C72.8464 44.8786 72.5118 44.3511 71.9798 44.2277C71.4478 44.1042 70.9152 44.4305 70.7834 44.9605C70.4318 46.4699 69.8229 47.9076 68.9834 49.2105C68.4644 50.0315 67.8643 50.8395 67.2834 51.6215C66.1262 53.0653 65.1388 54.6373 64.3403 56.3065C62.9861 59.3909 62.48 62.781 62.8743 66.1265C63.105 68.2512 63.527 70.3507 64.1353 72.3995C64.4639 73.4752 64.8789 74.5226 65.3763 75.5315C65.6043 75.9822 65.8633 76.4165 66.1513 76.8315L66.2183 76.9315L43.5363 76.9995C42.8717 74.6274 41.6665 72.4416 40.0153 70.6135L40.9153 70.3005C41.5873 70.0655 42.0943 69.8885 42.3563 69.8005C46.6383 68.4355 48.7803 66.4855 48.7213 64.0005C48.7186 63.735 48.6085 63.482 48.4161 63.2991C48.2238 63.1162 47.9656 63.0189 47.7003 63.0295C47.1484 63.0426 46.7115 63.5005 46.7243 64.0525C46.7483 65.0755 45.9053 66.5735 41.7483 67.8975C41.4763 67.9845 40.9483 68.1675 40.2573 68.4105C39.5143 68.6695 38.5723 68.9995 37.5323 69.3525H37.5253C34.7131 70.3837 31.8436 71.2518 28.9313 71.9525C27.9999 72.1276 27.0945 71.5426 26.8713 70.6215C26.6563 70.057 26.5718 69.4512 26.6243 68.8495C26.6533 68.6495 26.7003 68.4395 26.7463 68.2355C26.9592 67.5374 26.9935 66.7972 26.8463 66.0825C26.5559 65.1667 25.8824 64.4221 25.0003 64.0415L24.7853 63.9185C24.8931 63.6995 25.0224 63.4918 25.1713 63.2985C25.3389 63.0856 25.4129 62.814 25.3766 62.5456C25.3402 62.2772 25.1965 62.035 24.9783 61.8745C24.7393 61.6985 24.1783 61.2745 23.7583 60.9405C23.8063 60.8535 23.8583 60.7575 23.9093 60.6715C24.0663 60.3955 24.2463 60.0715 24.4203 59.7045C24.7373 59.004 24.8302 58.2227 24.6863 57.4675C24.4473 56.2475 23.2783 55.6495 22.4253 55.2135C22.138 55.0767 21.8624 54.9165 21.6013 54.7345C21.387 54.591 21.1862 54.4283 21.0013 54.2485C21.0013 54.0965 21.1643 53.7295 21.9253 52.8025C23.7148 50.4969 25.2487 48.004 26.5003 45.3675C26.7353 44.9542 26.8677 44.4905 26.8863 44.0155C26.7816 43.0093 26.2467 42.0976 25.4193 41.5155C25.0143 41.1435 24.6313 40.7935 24.5883 40.4985C24.5975 40.2534 24.6525 40.0123 24.7503 39.7875C24.9133 39.3595 25.1023 38.9395 25.2903 38.5185C25.712 37.6499 26.047 36.7418 26.2903 35.8075C26.5195 34.6867 26.8201 33.5818 27.1903 32.4995C27.9785 30.3237 29.1991 28.33 30.7783 26.6385C32.6903 24.6135 35.7003 23.1815 39.7403 22.3795C42.8306 21.701 45.9663 21.2491 49.1223 21.0275C50.1843 20.9727 51.2487 20.9955 52.3073 21.0955C52.6639 21.1287 53.0111 20.9692 53.2181 20.677C53.4252 20.3848 53.4606 20.0044 53.3111 19.679C53.1616 19.3536 52.8499 19.1327 52.4933 19.0995C51.3378 18.9936 50.1762 18.9705 49.0173 19.0305C45.7638 19.2562 42.5311 19.7201 39.3453 20.4185C34.8363 21.3185 31.5593 22.8995 29.3233 25.2635C27.5577 27.151 26.1929 29.3768 25.3113 31.8065C24.9061 32.9888 24.5771 34.196 24.3263 35.4205C24.1126 36.2057 23.8253 36.9691 23.4683 37.7005C23.2683 38.1555 23.0623 38.6105 22.8823 39.0835C22.6548 39.6122 22.5613 40.1889 22.6103 40.7625C22.8172 41.6551 23.336 42.4445 24.0733 42.9885C24.5633 43.4375 24.8863 43.7535 24.8903 44.0295C24.8539 44.1813 24.7967 44.3273 24.7203 44.4635C23.5231 46.985 22.0558 49.3693 20.3443 51.5745C19.6203 52.4575 18.8603 53.4865 19.0193 54.5165C19.2323 55.3106 19.7555 55.9859 20.4713 56.3905Z" fill="#EDF2F4"/>
<path d="M30.9377 33.889C31.54 32.2195 32.4733 30.6889 33.6817 29.389C35.0147 27.978 37.3197 26.939 40.5337 26.3C41.0755 26.1926 41.4277 25.6663 41.3202 25.1245C41.2128 24.5827 40.6865 24.2306 40.1447 24.338C36.5157 25.06 33.8527 26.296 32.2287 28.012C30.8333 29.5097 29.7557 31.2745 29.0607 33.2C28.7241 34.199 28.4499 35.218 28.2397 36.251L30.1927 36.684C30.3844 35.7382 30.6332 34.8048 30.9377 33.889Z" fill="#EDF2F4"/>
<path d="M51.859 24.6L51.259 27.592C50.6806 27.7819 50.1176 28.016 49.575 28.292L47.036 26.592C46.2427 26.0725 45.1936 26.1815 44.524 26.853L42.864 28.512C42.1793 29.1843 42.0685 30.2481 42.6 31.047L44.292 33.574C44.016 34.1166 43.7819 34.6796 43.592 35.258L40.604 35.858C39.6703 36.0466 38.9992 36.8675 39 37.82V40.18C38.9993 41.1309 39.6683 41.9508 40.6 42.141L43.592 42.741C43.7819 43.3194 44.016 43.8824 44.292 44.425L42.592 46.964C42.0725 47.7573 42.1815 48.8064 42.853 49.476L44.513 51.136C45.1865 51.8176 46.2479 51.9278 47.047 51.399L49.574 49.707C50.1166 49.983 50.6796 50.2171 51.258 50.407L51.858 53.395C52.0462 54.3291 52.8672 55.0007 53.82 55H56.18C57.1309 55.0007 57.9508 54.3317 58.141 53.4L58.741 50.408C59.3194 50.2181 59.8824 49.984 60.425 49.708L62.964 51.408C63.7573 51.9275 64.8064 51.8185 65.476 51.147L67.135 49.488C67.8197 48.8158 67.9305 47.7519 67.399 46.953L65.707 44.426C65.983 43.8834 66.2171 43.3204 66.407 42.742L69.395 42.142C69.9885 42.022 70.4952 41.6386 70.772 41.1L72.279 42.11C72.5698 42.2932 72.9063 42.3906 73.25 42.391C73.7294 42.3911 74.189 42.2 74.527 41.86L75.857 40.53C76.4618 39.9221 76.559 38.9739 76.09 38.256L74.8 36.326C74.9871 35.9499 75.1488 35.5617 75.284 35.164L77.547 34.713C78.3937 34.5467 79.0032 33.8029 79 32.94V31.06C79.003 30.2004 78.3978 29.4585 77.555 29.289L75.282 28.836C75.1479 28.4382 74.9868 28.05 74.8 27.674L76.11 25.721C76.5639 25.0057 76.46 24.0711 75.86 23.473L74.53 22.143C73.9223 21.5378 72.9738 21.4406 72.256 21.91L70.326 23.2C69.9499 23.0129 69.5617 22.8512 69.164 22.716L68.712 20.453C68.5457 19.6067 67.8025 18.9973 66.94 19H65.06C64.2004 18.997 63.4585 19.6022 63.289 20.445L62.836 22.718C62.4381 22.8531 62.0499 23.0152 61.674 23.203L59.721 21.893C59.0055 21.4399 58.0714 21.5437 57.473 22.143L56.573 23.043C56.4437 23.016 56.3121 23.0016 56.18 23H53.82C52.8691 22.9993 52.0492 23.6683 51.859 24.6ZM67.147 28.52L66.68 28.053C68.4133 28.285 69.792 29.6216 70.0776 31.3468C70.3633 33.0721 69.489 34.7817 67.923 35.56L66.405 35.26C66.2151 34.6816 65.981 34.1186 65.705 33.576L67.405 31.037C67.9264 30.2439 67.8186 29.1936 67.147 28.523V28.52ZM58.777 23.664L61.063 25.2C61.3836 25.415 61.7992 25.4263 62.131 25.229C62.7034 24.8921 63.3191 24.6347 63.961 24.464C64.3278 24.365 64.6068 24.0666 64.681 23.694L65.218 21H66.782L67.319 23.7C67.3932 24.0726 67.6722 24.371 68.039 24.47C68.6809 24.6407 69.2966 24.8981 69.869 25.235C70.2019 25.4305 70.6176 25.4169 70.937 25.2L73.223 23.666L74.333 24.776L72.8 27.063C72.585 27.3836 72.5737 27.7992 72.771 28.131C73.1079 28.7034 73.3653 29.3191 73.536 29.961C73.6351 30.3278 73.9334 30.6068 74.306 30.681L77.006 31.218V32.782L74.311 33.319C73.9384 33.3933 73.6401 33.6722 73.541 34.039C73.3703 34.6809 73.1129 35.2966 72.776 35.869C72.5788 36.2008 72.59 36.6164 72.805 36.937L74.339 39.223L73.229 40.333L71 38.842V37.82C71.0001 37.2345 70.7444 36.6782 70.3 36.297C72.0605 34.601 72.6129 32.0049 71.6953 29.7391C70.7777 27.4733 68.5746 25.9931 66.13 26C65.5254 26.0038 64.9251 26.1023 64.351 26.292C63.8624 26.2208 63.3646 26.3303 62.951 26.6L60.426 28.292C59.8834 28.016 59.3204 27.7819 58.742 27.592L58.142 24.604C58.1243 24.5239 58.1013 24.445 58.073 24.368L58.777 23.664ZM53.1 28.577L53.82 25H56.18L56.899 28.58C56.9738 28.9516 57.2522 29.249 57.618 29.348C58.4442 29.5707 59.2379 29.9002 59.979 30.328C60.3092 30.5196 60.7197 30.5064 61.037 30.294L64.063 28.27L65.739 29.937L63.709 32.966C63.4966 33.2833 63.4834 33.6938 63.675 34.024C64.1028 34.7651 64.4323 35.5588 64.655 36.385C64.7541 36.7509 65.0514 37.0292 65.423 37.104L69 37.819V40.18L65.42 40.899C65.0484 40.9738 64.7511 41.2522 64.652 41.618C64.4293 42.4442 64.0998 43.2379 63.672 43.979C63.4804 44.3092 63.4936 44.7197 63.706 45.037L65.73 48.063L64.063 49.739L61.034 47.709C60.7167 47.4966 60.3062 47.4834 59.976 47.675C59.2349 48.1028 58.4412 48.4323 57.615 48.655C57.2492 48.7541 56.9708 49.0514 56.896 49.423L56.18 53H53.82L53.101 49.42C53.0262 49.0484 52.7478 48.7511 52.382 48.652C51.5558 48.4293 50.7621 48.0998 50.021 47.672C49.6908 47.4804 49.2803 47.4936 48.963 47.706L45.937 49.73L44.261 48.063L46.291 45.034C46.5034 44.7167 46.5166 44.3062 46.325 43.976C45.8972 43.2349 45.5677 42.4412 45.345 41.615C45.2459 41.2492 44.9486 40.9708 44.577 40.896L41 40.18V37.82L44.58 37.101C44.9516 37.0262 45.2489 36.7479 45.348 36.382C45.5707 35.5558 45.9002 34.7621 46.328 34.021C46.5196 33.6908 46.5064 33.2803 46.294 32.963L44.27 29.937L45.937 28.261L48.966 30.291C49.2833 30.5034 49.6938 30.5166 50.024 30.325C50.7651 29.8972 51.5588 29.5677 52.385 29.345C52.7493 29.2447 53.0259 28.9475 53.1 28.577Z" fill="#EDF2F4"/>
<path d="M55 46C58.866 46 62 42.866 62 39C62 35.134 58.866 32 55 32C51.134 32 48 35.134 48 39C48.0044 42.8642 51.1358 45.9956 55 46ZM55 34C57.7614 34 60 36.2386 60 39C60 41.7614 57.7614 44 55 44C52.2386 44 50 41.7614 50 39C50.0033 36.2399 52.2399 34.0033 55 34Z" fill="#EDF2F4"/>
<path d="M55 40C55.5523 40 56 39.5523 56 39C56 38.4477 55.5523 38 55 38C54.4477 38 54 38.4477 54 39C54 39.5523 54.4477 40 55 40Z" fill="#EDF2F4"/>
<path d="M28 41C28.5523 41 29 40.5523 29 40C29 39.4477 28.5523 39 28 39C27.4477 39 27 39.4477 27 40C27 40.5523 27.4477 41 28 41Z" fill="#EDF2F4"/>
<defs>
<linearGradient id="paint0_linear" x1="0" y1="0" x2="98.0079" y2="98.0079" gradientUnits="userSpaceOnUse">
<stop stop-color="#744BE8"/>
<stop offset="0.546559" stop-color="#6974F0"/>
<stop offset="1" stop-color="#54C0FF"/>
</linearGradient>
</defs>
</svg>
