<svg width="99" height="99" viewBox="0 0 99 99" fill="none" xmlns="http://www.w3.org/2000/svg">
<circle cx="49.0039" cy="49.0044" r="49.0039" fill="url(#paint0_linear)"/>
<path d="M20.4713 56.3909C20.8004 56.6189 21.1476 56.8195 21.5093 56.9909C21.9423 57.2119 22.6663 57.5819 22.7173 57.8419C22.781 58.1833 22.7402 58.536 22.6003 58.8539C22.4513 59.1739 22.2943 59.4489 22.1603 59.6869C21.7933 60.3329 21.1813 61.4159 22.1053 62.1719C22.3213 62.3719 22.6943 62.6609 23.0353 62.9219C22.7848 63.3594 22.6712 63.8621 22.7093 64.3649C22.7619 64.7584 22.9742 65.1129 23.2963 65.3449C23.5213 65.5049 23.7623 65.6449 23.9963 65.7799C24.5843 66.1149 24.8143 66.2709 24.8963 66.5799C24.9501 66.9867 24.9125 67.4004 24.7863 67.7909C24.7273 68.0509 24.6703 68.3099 24.6333 68.5759C24.5342 69.488 24.65 70.4106 24.9713 71.2699C25.4201 72.8623 26.8602 73.9718 28.5143 73.9999C28.7889 73.9989 29.0626 73.97 29.3313 73.9139C32.1882 73.2368 35.0032 72.3944 37.7623 71.3909C40.0143 72.7129 41.4383 76.7329 41.8093 78.2419C41.9205 78.6876 42.321 79.0002 42.7803 78.9999L67.8804 78.9299C68.1984 78.9293 68.4973 78.7774 68.6852 78.5207C68.8731 78.2641 68.9278 77.9333 68.8324 77.6299C68.585 76.9524 68.2441 76.3128 67.8194 75.7299C67.5791 75.385 67.3626 75.0241 67.1714 74.6499C66.7192 73.7327 66.3416 72.7807 66.0423 71.8029C65.4719 69.8702 65.076 67.8903 64.8593 65.8869C64.5083 62.8951 64.9619 59.8638 66.1733 57.1059C66.9126 55.5763 67.8238 54.136 68.8894 52.8129C69.4893 52.0029 70.1124 51.1639 70.6714 50.2829C71.6325 48.7898 72.3293 47.1424 72.7313 45.4129C72.8464 44.879 72.5118 44.3515 71.9798 44.2281C71.4478 44.1047 70.9152 44.4309 70.7834 44.9609C70.4318 46.4704 69.8229 47.908 68.9834 49.2109C68.4644 50.0319 67.8643 50.8399 67.2834 51.6219C66.1262 53.0657 65.1388 54.6377 64.3403 56.3069C62.9861 59.3913 62.48 62.7814 62.8743 66.1269C63.105 68.2516 63.527 70.3511 64.1353 72.3999C64.4639 73.4756 64.8789 74.5231 65.3763 75.5319C65.6043 75.9826 65.8633 76.417 66.1513 76.8319L66.2183 76.9319L43.5363 76.9999C42.8717 74.6278 41.6665 72.442 40.0153 70.6139L40.9153 70.3009C41.5873 70.0659 42.0943 69.8889 42.3563 69.8009C46.6383 68.4359 48.7803 66.4859 48.7213 64.0009C48.7186 63.7355 48.6085 63.4825 48.4161 63.2995C48.2238 63.1166 47.9656 63.0193 47.7003 63.0299C47.1484 63.043 46.7115 63.5009 46.7243 64.0529C46.7483 65.0759 45.9053 66.5739 41.7483 67.8979C41.4763 67.9849 40.9483 68.1679 40.2573 68.4109C39.5143 68.6699 38.5723 68.9999 37.5323 69.3529H37.5253C34.7131 70.3841 31.8436 71.2522 28.9313 71.9529C27.9999 72.128 27.0945 71.543 26.8713 70.6219C26.6563 70.0574 26.5718 69.4516 26.6243 68.8499C26.6533 68.6499 26.7003 68.4399 26.7463 68.2359C26.9592 67.5379 26.9935 66.7976 26.8463 66.0829C26.5559 65.1671 25.8824 64.4225 25.0003 64.0419L24.7853 63.9189C24.8931 63.6999 25.0224 63.4922 25.1713 63.2989C25.3389 63.0861 25.4129 62.8144 25.3766 62.546C25.3402 62.2776 25.1965 62.0354 24.9783 61.8749C24.7393 61.6989 24.1783 61.2749 23.7583 60.9409C23.8063 60.8539 23.8583 60.7579 23.9093 60.6719C24.0663 60.3959 24.2463 60.0719 24.4203 59.7049C24.7373 59.0044 24.8302 58.2231 24.6863 57.4679C24.4473 56.2479 23.2783 55.6499 22.4253 55.2139C22.138 55.0772 21.8624 54.917 21.6013 54.7349C21.387 54.5914 21.1862 54.4287 21.0013 54.2489C21.0013 54.0969 21.1643 53.7299 21.9253 52.8029C23.7148 50.4973 25.2487 48.0044 26.5003 45.3679C26.7353 44.9546 26.8677 44.4909 26.8863 44.0159C26.7816 43.0097 26.2467 42.0981 25.4193 41.5159C25.0143 41.1439 24.6313 40.7939 24.5883 40.4989C24.5975 40.2539 24.6525 40.0127 24.7503 39.7879C24.9133 39.3599 25.1023 38.9399 25.2903 38.5189C25.712 37.6503 26.047 36.7422 26.2903 35.8079C26.5195 34.6872 26.8201 33.5822 27.1903 32.4999C27.9785 30.3241 29.1991 28.3304 30.7783 26.6389C32.6903 24.6139 35.7003 23.1819 39.7403 22.3799C42.8306 21.7014 45.9663 21.2496 49.1223 21.0279C50.1843 20.9732 51.2487 20.9959 52.3073 21.0959C52.6639 21.1291 53.0111 20.9696 53.2181 20.6774C53.4252 20.3853 53.4606 20.0048 53.3111 19.6794C53.1616 19.354 52.8499 19.1331 52.4933 19.0999C51.3378 18.994 50.1762 18.9709 49.0173 19.0309C45.7638 19.2566 42.5311 19.7205 39.3453 20.4189C34.8363 21.3189 31.5593 22.8999 29.3233 25.2639C27.5577 27.1514 26.1929 29.3772 25.3113 31.8069C24.9061 32.9893 24.5771 34.1964 24.3263 35.4209C24.1126 36.2062 23.8253 36.9695 23.4683 37.7009C23.2683 38.1559 23.0623 38.6109 22.8823 39.0839C22.6548 39.6126 22.5613 40.1894 22.6103 40.7629C22.8172 41.6555 23.336 42.4449 24.0733 42.9889C24.5633 43.4379 24.8863 43.7539 24.8903 44.0299C24.8539 44.1817 24.7967 44.3277 24.7203 44.4639C23.5231 46.9855 22.0558 49.3698 20.3443 51.5749C19.6203 52.4579 18.8603 53.4869 19.0193 54.5169C19.2323 55.3111 19.7555 55.9863 20.4713 56.3909Z" fill="#EDF2F4"/>
<path d="M30.9377 33.8894C31.54 32.2199 32.4733 30.6893 33.6817 29.3894C35.0147 27.9784 37.3197 26.9394 40.5337 26.3004C41.0755 26.193 41.4277 25.6667 41.3202 25.1249C41.2128 24.5831 40.6865 24.231 40.1447 24.3384C36.5157 25.0604 33.8527 26.2964 32.2287 28.0124C30.8333 29.5101 29.7557 31.275 29.0607 33.2004C28.7241 34.1994 28.4499 35.2184 28.2397 36.2514L30.1927 36.6844C30.3844 35.7386 30.6332 34.8052 30.9377 33.8894Z" fill="#EDF2F4"/>
<path d="M51.859 24.6004L51.259 27.5924C50.6806 27.7824 50.1176 28.0164 49.575 28.2924L47.036 26.5924C46.2427 26.0729 45.1936 26.1819 44.524 26.8534L42.864 28.5124C42.1793 29.1847 42.0685 30.2485 42.6 31.0474L44.292 33.5744C44.016 34.117 43.7819 34.68 43.592 35.2584L40.604 35.8584C39.6703 36.047 38.9992 36.8679 39 37.8204V40.1804C38.9993 41.1313 39.6683 41.9513 40.6 42.1414L43.592 42.7414C43.7819 43.3198 44.016 43.8828 44.292 44.4254L42.592 46.9644C42.0725 47.7578 42.1815 48.8069 42.853 49.4764L44.513 51.1364C45.1865 51.818 46.2479 51.9282 47.047 51.3994L49.574 49.7074C50.1166 49.9835 50.6796 50.2175 51.258 50.4074L51.858 53.3954C52.0462 54.3295 52.8672 55.0011 53.82 55.0004H56.18C57.1309 55.0011 57.9508 54.3321 58.141 53.4004L58.741 50.4084C59.3194 50.2185 59.8824 49.9845 60.425 49.7084L62.964 51.4084C63.7573 51.928 64.8064 51.819 65.476 51.1474L67.135 49.4884C67.8197 48.8162 67.9305 47.7523 67.399 46.9534L65.707 44.4264C65.983 43.8838 66.2171 43.3208 66.407 42.7424L69.395 42.1424C69.9885 42.0224 70.4952 41.639 70.772 41.1004L72.279 42.1104C72.5698 42.2936 72.9063 42.391 73.25 42.3914C73.7294 42.3915 74.189 42.2004 74.527 41.8604L75.857 40.5304C76.4618 39.9225 76.559 38.9744 76.09 38.2564L74.8 36.3264C74.9871 35.9504 75.1488 35.5621 75.284 35.1644L77.547 34.7134C78.3937 34.5471 79.0032 33.8033 79 32.9404V31.0604C79.003 30.2008 78.3978 29.459 77.555 29.2894L75.282 28.8364C75.1479 28.4386 74.9868 28.0504 74.8 27.6744L76.11 25.7214C76.5639 25.0061 76.46 24.0715 75.86 23.4734L74.53 22.1434C73.9223 21.5382 72.9738 21.4411 72.256 21.9104L70.326 23.2004C69.9499 23.0133 69.5617 22.8516 69.164 22.7164L68.712 20.4534C68.5457 19.6071 67.8025 18.9977 66.94 19.0004H65.06C64.2004 18.9974 63.4585 19.6027 63.289 20.4454L62.836 22.7184C62.4381 22.8535 62.0499 23.0156 61.674 23.2034L59.721 21.8934C59.0055 21.4403 58.0714 21.5442 57.473 22.1434L56.573 23.0434C56.4437 23.0165 56.3121 23.0021 56.18 23.0004H53.82C52.8691 22.9998 52.0492 23.6687 51.859 24.6004ZM67.147 28.5204L66.68 28.0534C68.4133 28.2855 69.792 29.622 70.0776 31.3473C70.3633 33.0725 69.489 34.7821 67.923 35.5604L66.405 35.2604C66.2151 34.682 65.981 34.119 65.705 33.5764L67.405 31.0374C67.9264 30.2444 67.8186 29.1941 67.147 28.5234V28.5204ZM58.777 23.6644L61.063 25.2004C61.3836 25.4154 61.7992 25.4267 62.131 25.2294C62.7034 24.8925 63.3191 24.6352 63.961 24.4644C64.3278 24.3654 64.6068 24.067 64.681 23.6944L65.218 21.0004H66.782L67.319 23.7004C67.3932 24.073 67.6722 24.3714 68.039 24.4704C68.6809 24.6412 69.2966 24.8985 69.869 25.2354C70.2019 25.4309 70.6176 25.4173 70.937 25.2004L73.223 23.6664L74.333 24.7764L72.8 27.0634C72.585 27.384 72.5737 27.7997 72.771 28.1314C73.1079 28.7039 73.3653 29.3195 73.536 29.9614C73.6351 30.3282 73.9334 30.6072 74.306 30.6814L77.006 31.2184V32.7824L74.311 33.3194C73.9384 33.3937 73.6401 33.6727 73.541 34.0394C73.3703 34.6813 73.1129 35.297 72.776 35.8694C72.5788 36.2012 72.59 36.6169 72.805 36.9374L74.339 39.2234L73.229 40.3334L71 38.8424V37.8204C71.0001 37.2349 70.7444 36.6786 70.3 36.2974C72.0605 34.6014 72.6129 32.0053 71.6953 29.7395C70.7777 27.4737 68.5746 25.9935 66.13 26.0004C65.5254 26.0042 64.9251 26.1028 64.351 26.2924C63.8624 26.2213 63.3646 26.3308 62.951 26.6004L60.426 28.2924C59.8834 28.0164 59.3204 27.7824 58.742 27.5924L58.142 24.6044C58.1243 24.5243 58.1013 24.4455 58.073 24.3684L58.777 23.6644ZM53.1 28.5774L53.82 25.0004H56.18L56.899 28.5804C56.9738 28.952 57.2522 29.2494 57.618 29.3484C58.4442 29.5712 59.2379 29.9006 59.979 30.3284C60.3092 30.52 60.7197 30.5068 61.037 30.2944L64.063 28.2704L65.739 29.9374L63.709 32.9664C63.4966 33.2837 63.4834 33.6942 63.675 34.0244C64.1028 34.7655 64.4323 35.5592 64.655 36.3854C64.7541 36.7513 65.0514 37.0297 65.423 37.1044L69 37.8194V40.1804L65.42 40.8994C65.0484 40.9742 64.7511 41.2526 64.652 41.6184C64.4293 42.4447 64.0998 43.2383 63.672 43.9794C63.4804 44.3097 63.4936 44.7202 63.706 45.0374L65.73 48.0634L64.063 49.7394L61.034 47.7094C60.7167 47.4971 60.3062 47.4839 59.976 47.6754C59.2349 48.1033 58.4412 48.4327 57.615 48.6554C57.2492 48.7545 56.9708 49.0519 56.896 49.4234L56.18 53.0004H53.82L53.101 49.4204C53.0262 49.0489 52.7478 48.7515 52.382 48.6524C51.5558 48.4297 50.7621 48.1003 50.021 47.6724C49.6908 47.4809 49.2803 47.4941 48.963 47.7064L45.937 49.7304L44.261 48.0634L46.291 45.0344C46.5034 44.7172 46.5166 44.3067 46.325 43.9764C45.8972 43.2353 45.5677 42.4417 45.345 41.6154C45.2459 41.2496 44.9486 40.9712 44.577 40.8964L41 40.1804V37.8204L44.58 37.1014C44.9516 37.0267 45.2489 36.7483 45.348 36.3824C45.5707 35.5562 45.9002 34.7625 46.328 34.0214C46.5196 33.6912 46.5064 33.2807 46.294 32.9634L44.27 29.9374L45.937 28.2614L48.966 30.2914C49.2833 30.5038 49.6938 30.517 50.024 30.3254C50.7651 29.8976 51.5588 29.5682 52.385 29.3454C52.7493 29.2451 53.0259 28.948 53.1 28.5774Z" fill="#EDF2F4"/>
<path d="M55 46.0004C58.866 46.0004 62 42.8664 62 39.0004C62 35.1344 58.866 32.0004 55 32.0004C51.134 32.0004 48 35.1344 48 39.0004C48.0044 42.8646 51.1358 45.996 55 46.0004ZM55 34.0004C57.7614 34.0004 60 36.239 60 39.0004C60 41.7619 57.7614 44.0004 55 44.0004C52.2386 44.0004 50 41.7619 50 39.0004C50.0033 36.2404 52.2399 34.0037 55 34.0004Z" fill="#EDF2F4"/>
<path d="M55 40.0004C55.5523 40.0004 56 39.5527 56 39.0004C56 38.4481 55.5523 38.0004 55 38.0004C54.4477 38.0004 54 38.4481 54 39.0004C54 39.5527 54.4477 40.0004 55 40.0004Z" fill="#EDF2F4"/>
<path d="M28 41.0004C28.5523 41.0004 29 40.5527 29 40.0004C29 39.4481 28.5523 39.0004 28 39.0004C27.4477 39.0004 27 39.4481 27 40.0004C27 40.5527 27.4477 41.0004 28 41.0004Z" fill="#EDF2F4"/>
<defs>
<linearGradient id="paint0_linear" x1="0" y1="0.000427246" x2="98.0079" y2="98.0083" gradientUnits="userSpaceOnUse">
<stop stop-color="#E6A519"/>
<stop offset="1" stop-color="#E05B19"/>
</linearGradient>
</defs>
</svg>
