<svg width="99" height="99" viewBox="0 0 99 99" fill="none" xmlns="http://www.w3.org/2000/svg">
<circle cx="49.0044" cy="49.0037" r="49.0039" fill="url(#paint0_linear)"/>
<path d="M76.5804 64.307C75.3343 63.4301 73.8962 62.959 72.4436 62.8821C66.9685 59.2968 63.382 56.6058 61.2881 54.5119L54.856 48.0798L58.7592 43.7106C59.499 44.1282 60.2934 44.4033 61.0882 44.5168C61.6879 44.6167 62.0876 44.6167 62.4875 44.6167C63.2871 44.6167 63.487 44.6167 64.2866 45.3163C63.8868 45.6162 63.6869 46.116 63.6869 46.6156C63.6869 47.1153 63.8868 47.7151 64.2866 48.1149L67.7849 51.6132C68.2847 52.2129 69.0842 52.5127 69.8838 52.5127C70.6835 52.5127 71.483 52.2129 71.9828 51.5133L79.0793 44.4168C79.679 43.917 79.9788 43.1175 79.9788 42.3178C79.9788 41.5182 79.679 40.8186 79.0793 40.2189L75.581 36.7206C75.1812 36.3209 74.6814 36.1209 74.1816 36.1209C73.6818 36.1209 73.1822 36.4208 72.7823 36.7206C71.9827 36.021 71.9827 35.8211 71.9827 35.0214C71.9827 34.6217 71.9827 34.1219 71.7827 33.5222C71.5828 32.1228 70.8832 30.7236 69.7837 29.6241L66.1855 26.0259C64.0865 23.927 63.0871 22.9275 60.3884 21.7281C54.5914 19.0295 48.6943 19.5293 40.0986 23.4273C39.5988 23.6273 39.399 24.027 39.4989 24.5268C39.5988 25.0266 39.9987 25.3265 40.4983 25.3265H41.7977C46.1955 25.3265 48.4943 25.3265 52.4923 29.3244C54.2429 31.075 54.2934 33.7592 52.7249 35.7342C52.5135 35.766 52.3526 35.8609 52.1925 36.021L47.7526 40.9765L44.3964 37.6203C40.7075 33.9314 38.1129 30.4413 36.116 26.5551C36.0111 24.5887 35.2221 22.7488 33.8017 21.3285C32.1027 19.6294 29.7039 18.8298 27.3051 19.0297C27.0052 19.1296 26.7054 19.3296 26.6055 19.5295C26.4055 19.8294 26.4055 20.2291 26.6055 20.529L29.404 25.5265C28.8043 26.8258 27.405 27.6255 26.0058 27.5255L23.1072 22.7278C23.0073 22.428 22.6074 22.228 22.3076 22.228C22.0077 22.1281 21.7079 22.328 21.5079 22.6278C19.1091 26.226 20.0087 31.0236 23.6069 33.5223C24.8466 34.4078 26.2432 34.9002 27.6576 35.0012C27.6735 35.0078 27.6883 35.016 27.7047 35.0215C31.6028 37.0206 35.1011 39.6192 38.7992 43.3174L42.4546 46.8897L21.2082 70.6038C20.4085 71.4035 20.0088 72.5028 20.0088 73.6023C20.0088 74.7018 20.4085 75.7013 21.2082 76.5009L22.6075 77.9003C23.4072 78.5999 24.4066 78.9997 25.4061 78.9997C26.4055 78.9997 27.505 78.6 28.3047 77.8003L49.5269 54.0451L55.6909 60.2091C57.7878 62.3061 60.4834 65.9994 64.0766 71.3884C64.2054 73.312 64.9927 75.108 66.3855 76.5009C67.8848 78.0002 69.8838 78.7998 71.9828 78.7998C72.2826 78.7998 72.5825 78.7998 72.7824 78.7998C73.0823 78.7998 73.3821 78.5999 73.5821 78.3C73.782 78.0002 73.782 77.6004 73.5821 77.3006L70.6835 72.4031C71.3831 71.1037 72.6825 70.3041 74.1817 70.404L76.9803 75.2016C77.0802 75.5015 77.4801 75.7014 77.7799 75.7014C78.1797 75.6015 78.4796 75.5015 78.6795 75.2016C81.0782 71.6033 80.0786 66.8057 76.5804 64.307ZM53.7919 27.7254C50.5934 24.627 48.1946 23.6274 45.496 23.3275C51.1931 21.5284 55.391 21.6283 59.5889 23.5275C61.9877 24.5269 62.7874 25.3266 64.8863 27.4255L68.4845 31.0237C69.2841 31.8233 69.7838 32.8228 69.8838 33.8223C69.9837 34.3221 69.9837 34.7218 69.9837 35.0217C69.9837 36.1211 70.0837 36.9207 71.2831 38.1201C71.6828 38.5198 72.2825 38.7198 72.7823 38.7198C73.382 38.7198 73.8818 38.5198 74.1816 38.1201L77.6799 41.6184C77.8799 41.8183 77.9798 42.0181 77.9798 42.318C77.9798 42.6178 77.8799 42.8177 77.6799 43.0176L70.5834 50.114C70.1837 50.5138 69.584 50.5138 69.1841 50.114L65.6858 46.6158C66.0856 46.3159 66.2855 45.8161 66.1856 45.2164C66.1856 44.7166 65.9857 44.1169 65.5859 43.7172C64.3865 42.5178 63.5869 42.4179 62.4875 42.4179C62.1877 42.4179 61.7879 42.4179 61.2881 42.318C60.1886 42.2181 59.2891 41.7183 58.4895 40.9186L54.1917 36.6208C56.3905 33.9223 56.1907 30.1242 53.7919 27.7254ZM22.4076 25.3266L24.5065 28.9248C24.7065 29.2246 25.0063 29.4246 25.3062 29.4246H25.806C28.1048 29.5245 30.2038 28.3251 31.2032 26.3261L31.4032 25.8264C31.6031 25.5265 31.6031 25.2267 31.4032 24.9268L29.2042 21.1287C30.4036 21.3286 31.5031 21.9283 32.4026 22.8279C33.4331 23.9442 34.0929 25.3561 34.1319 26.8727C34.1126 26.9496 34.1017 27.0324 34.1017 27.1258C34.1017 27.5887 34.0458 28.0402 33.9424 28.4755C33.5654 29.9227 32.6613 31.1845 31.4031 32.0234C29.404 33.3227 26.7054 33.3227 24.7065 31.9235C22.6075 30.424 21.708 27.7254 22.4076 25.3266ZM40.1986 41.9182C37.2001 38.8198 34.2016 36.421 31.0032 34.5219C31.503 34.3219 32.1027 34.0221 32.6024 33.7222C34.1016 32.7228 35.1011 31.4234 35.7008 29.8242C37.5998 33.0226 39.9986 36.0211 42.9971 39.0196L46.4301 42.4527L43.7379 45.4576L40.1986 41.9182ZM26.9053 76.301C26.1057 77.1006 24.8064 77.2005 24.0067 76.4009L22.6074 75.1016C22.2076 74.7018 22.0077 74.202 22.0077 73.7022C22.0077 73.1025 22.2076 72.6028 22.7073 72.1031L23.2734 71.4698L24.7064 72.9027C24.9063 73.1027 25.1061 73.2026 25.406 73.2026C25.7058 73.2026 25.9058 73.1027 26.1056 72.9027C26.5053 72.503 26.5053 71.9033 26.1056 71.5034L24.5941 69.992L25.915 68.5141L27.5049 70.1041C27.7048 70.304 27.9047 70.4039 28.2045 70.4039C28.5044 70.4039 28.7043 70.304 28.9041 70.1041C29.3039 69.7043 29.3039 69.1046 28.9041 68.7047L27.236 67.0365L52.945 38.2728L57.1429 42.4707L53.0182 47.0855C52.9004 47.1353 52.7962 47.2116 52.6924 47.3155L48.6944 51.8132C48.5802 51.9274 48.4999 52.0582 48.4509 52.1955L26.9053 76.301ZM50.8945 52.5141L53.6298 49.4524L60.0886 55.9112C61.8877 57.8102 64.9861 60.209 69.4838 63.2075C68.8841 63.4075 68.2844 63.7073 67.6847 64.1071C66.4447 64.8821 65.5665 65.9582 64.9545 67.1477C64.9454 67.1647 64.9371 67.182 64.9282 67.1991C64.8919 67.2707 64.8565 67.3426 64.8221 67.415C64.7728 67.5175 64.726 67.6212 64.6811 67.7259C64.6504 67.7967 64.6198 67.8676 64.5909 67.9389C64.5868 67.9492 64.5828 67.9595 64.5787 67.9698C64.5472 68.0481 64.5159 68.1263 64.4864 68.205C63.9187 67.3724 63.3725 66.5866 62.8472 65.8463L64.1866 64.5069C64.5863 64.1072 64.5863 63.5075 64.1866 63.1076C63.7868 62.7078 63.1871 62.7078 62.7872 63.1076L61.673 64.2218C61.2577 63.6582 60.8565 63.1266 60.4695 62.6268L61.388 61.7083C61.7878 61.3085 61.7878 60.7088 61.388 60.3089C60.9883 59.9092 60.3886 59.9092 59.9887 60.3089L59.2257 61.0719C58.4911 60.1865 57.8135 59.433 57.1901 58.8097L50.8945 52.5141ZM77.6798 72.5028L75.5809 68.9047C75.3809 68.6048 75.0811 68.4049 74.7812 68.4049H74.2814C71.9825 68.2049 69.8836 69.5044 68.8841 71.5033L68.6842 72.0031C68.4843 72.3029 68.4843 72.6028 68.6842 72.9026L70.8831 76.7007C69.6837 76.5008 68.5842 75.9011 67.6846 75.0016C66.6737 73.9063 66.0202 72.5266 65.9587 71.043C65.9758 70.9699 65.9854 70.8914 65.9854 70.8037C65.9854 69.5375 66.3874 68.352 67.088 67.3479C67.5184 66.7489 68.0567 66.2245 68.6841 65.8063C69.6835 65.1066 70.783 64.8068 71.9824 64.8068C73.1818 64.8068 74.3812 65.2066 75.3807 65.9063C77.48 67.4054 78.3795 70.1041 77.6798 72.5028Z" fill="#EDF2F4"/>
<defs>
<linearGradient id="paint0_linear" x1="0.000488281" y1="-0.000244141" x2="98.0084" y2="98.0076" gradientUnits="userSpaceOnUse">
<stop stop-color="#E6A519"/>
<stop offset="1" stop-color="#E05B19"/>
</linearGradient>
</defs>
</svg>
