<svg width="230" height="31" viewBox="0 0 230 31" fill="none" xmlns="http://www.w3.org/2000/svg">
<path d="M167.418 30.3047C167.293 30.3251 167.168 30.3439 167.042 30.3611C167.168 30.3439 167.293 30.3251 167.418 30.3047Z" fill="url(#paint0_linear)"/>
<path d="M167.718 30.2535C167.659 30.2645 167.599 30.2745 167.539 30.2848C167.599 30.2745 167.659 30.2645 167.718 30.2535Z" fill="url(#paint1_linear)"/>
<path d="M166.708 30.4027C166.561 30.4192 166.414 30.4338 166.267 30.4462C166.414 30.4338 166.561 30.4192 166.708 30.4027Z" fill="url(#paint2_linear)"/>
<path d="M166.996 30.3676C166.925 30.3769 166.855 30.3856 166.784 30.3939C166.855 30.3856 166.925 30.3769 166.996 30.3676Z" fill="url(#paint3_linear)"/>
<path d="M168.127 30.1725C168.074 30.1837 168.022 30.1949 167.969 30.2057C168.022 30.1949 168.074 30.1837 168.127 30.1725Z" fill="url(#paint4_linear)"/>
<path d="M169.14 29.9208C169.098 29.9329 169.055 29.9444 169.013 29.9563C169.055 29.9444 169.098 29.9329 169.14 29.9208Z" fill="url(#paint5_linear)"/>
<path d="M168.834 30.0045C168.788 30.0166 168.742 30.0289 168.695 30.0406C168.742 30.0289 168.788 30.0168 168.834 30.0045Z" fill="url(#paint6_linear)"/>
<path d="M168.433 30.1046C168.384 30.1161 168.335 30.1268 168.285 30.1378C168.335 30.1268 168.384 30.1161 168.433 30.1046Z" fill="url(#paint7_linear)"/>
<path d="M166.262 30.4467C166.183 30.4533 166.104 30.4592 166.024 30.4645C166.104 30.4592 166.183 30.4533 166.262 30.4467Z" fill="url(#paint8_linear)"/>
<path d="M180 15.5C180 7.217 173.283 0.5 165 0.5C156.717 0.5 150 7.217 150 15.5C150 23.783 156.717 30.5 165 30.5C165.088 30.5 165.176 30.4982 165.264 30.4966V18.8197H162.041V15.064H165.264V12.3002C165.264 9.09497 167.22 7.35043 170.08 7.35043C171.449 7.35043 172.626 7.45251 172.969 7.49806V10.848H170.997C169.442 10.848 169.14 11.5873 169.14 12.6719V15.064H172.86L172.375 18.8197H169.14V29.9205C175.41 28.1231 180 22.3468 180 15.5Z" fill="url(#paint9_linear)"/>
<path d="M165.991 30.4666C165.835 30.4767 165.678 30.4847 165.521 30.49C165.678 30.4847 165.835 30.4767 165.991 30.4666Z" fill="url(#paint10_linear)"/>
<path d="M165.513 30.4904C165.43 30.4931 165.347 30.4952 165.264 30.4965C165.347 30.4952 165.43 30.4931 165.513 30.4904Z" fill="url(#paint11_linear)"/>
<path d="M115 0.5C106.716 0.5 100 7.21625 100 15.5C100 23.7838 106.716 30.5 115 30.5C123.284 30.5 130 23.7838 130 15.5C130 7.2144 123.284 0.5 115 0.5ZM122.462 12.1325L122.474 12.6106C122.474 17.4931 118.759 23.1181 111.966 23.1181C109.881 23.1181 107.941 22.5069 106.306 21.4587C106.594 21.4925 106.889 21.5112 107.187 21.5112C108.917 21.5112 110.509 20.9206 111.773 19.9306C110.157 19.9006 108.794 18.8318 108.323 17.3656C108.55 17.4087 108.779 17.4294 109.019 17.4294C109.356 17.4294 109.682 17.3863 109.992 17.3019C108.302 16.9606 107.029 15.47 107.029 13.6813V13.6344C107.528 13.9119 108.096 14.0769 108.702 14.0976C107.712 13.4357 107.059 12.305 107.059 11.0244C107.059 10.3476 107.241 9.7138 107.558 9.16819C109.379 11.4032 112.101 12.8732 115.171 13.0269C115.107 12.7569 115.075 12.4738 115.075 12.1851C115.075 10.147 116.729 8.49318 118.769 8.49318C119.83 8.49318 120.79 8.94128 121.465 9.6594C122.305 9.4925 123.096 9.18503 123.811 8.76315C123.535 9.62566 122.95 10.3494 122.187 10.8069C122.931 10.7187 123.646 10.5181 124.307 10.2256C123.812 10.9643 123.184 11.615 122.462 12.1325Z" fill="url(#paint12_linear)"/>
<path d="M65 0.5C56.7163 0.5 50 7.21626 50 15.5C50 23.7837 56.7163 30.5 65 30.5C73.2837 30.5 80 23.7837 80 15.5C80 7.21437 73.2837 0.5 65 0.5ZM66.17 19.5556C65.0731 19.4712 64.6138 18.9275 63.755 18.4044C63.2825 20.8831 62.705 23.2606 60.995 24.5C60.4662 20.7556 61.7693 17.9431 62.375 14.9562C61.3437 13.2181 62.4987 9.72501 64.6737 10.5856C67.3493 11.645 62.3543 17.0412 65.7087 17.7163C69.2093 18.4194 70.64 11.6394 68.4687 9.4344C65.33 6.25063 59.3375 9.36125 60.0744 13.9194C60.2543 15.0332 61.4037 15.3707 60.5337 16.91C58.5256 16.4675 57.9256 14.8813 58.0025 12.77C58.1263 9.3144 61.1075 6.89562 64.0981 6.56C67.88 6.13624 71.4275 7.9475 71.9169 11.5043C72.47 15.5188 70.2106 19.8687 66.17 19.5556Z" fill="url(#paint13_linear)"/>
<path d="M15.5689 10.8335C15.5689 8.75418 14.3293 5.52063 11.9394 5.52063C11.1881 5.52063 10.3831 5.89567 9.92092 6.47357C9.43049 7.08094 9.28809 7.85802 9.28809 8.61117C9.28809 10.5447 10.4107 13.7491 12.8899 13.7491C13.6096 13.7491 14.3852 13.4044 14.8486 12.9419C15.5112 12.2756 15.5689 11.3537 15.5689 10.8335Z" fill="url(#paint14_linear)"/>
<path d="M14.0122 18.4277C13.7826 18.3988 13.6383 18.3988 13.3505 18.3988C13.0905 18.3988 11.5342 18.4556 10.3247 18.8625C9.69124 19.0921 7.84766 19.7857 7.84766 21.8355C7.84766 23.8863 9.83579 25.3603 12.9183 25.3603C15.6851 25.3603 17.1549 24.029 17.1549 22.2413C17.1546 20.7641 16.2038 19.9873 14.0122 18.4277Z" fill="url(#paint15_linear)"/>
<path d="M15 0.5C6.7157 0.5 0 7.2157 0 15.5C0 23.7843 6.7157 30.5 15 30.5C23.2843 30.5 30 23.7843 30 15.5C30 7.2157 23.2843 0.5 15 0.5ZM11.5056 26.5701C7.32675 26.5701 5.311 24.5789 5.311 22.4407C5.311 21.4018 5.82875 19.9302 7.529 18.9189C9.31458 17.8214 11.7364 17.6781 13.0337 17.5888C12.6288 17.0695 12.1694 16.5211 12.1694 15.6261C12.1694 15.136 12.3137 14.8469 12.4561 14.5001C12.1387 14.5296 11.8232 14.5578 11.5347 14.5578C8.48164 14.5578 6.75284 12.275 6.75284 10.0233C6.75284 8.69683 7.35714 7.22307 8.59581 6.15473C10.239 4.7976 12.4843 4.42931 14.0415 4.42931H19.7187L17.845 5.6066H16.0601C16.7224 6.15473 18.1034 7.30962 18.1034 9.50522C18.1034 11.6404 16.8948 12.6538 15.6853 13.6055C15.31 13.9802 14.8775 14.3844 14.8775 15.0206C14.8775 15.6544 15.3103 16.0006 15.6264 16.2627L16.6647 17.0692C17.9328 18.1369 19.0855 19.119 19.0849 21.1133C19.0846 23.8285 16.4609 26.5701 11.5056 26.5701ZM23.9402 15.1471V18.0516H22.5143V15.1471H19.6315V13.7055H22.5143V10.8188H23.9402V13.7055H26.8367V15.1471H23.9402Z" fill="url(#paint16_linear)"/>
<path d="M217.871 15.5C217.871 17.0857 216.586 18.3711 215 18.3711C213.414 18.3711 212.129 17.0857 212.129 15.5C212.129 13.9143 213.414 12.6289 215 12.6289C216.586 12.6289 217.871 13.9143 217.871 15.5Z" fill="url(#paint17_linear)"/>
<path d="M221.714 10.4202C221.576 10.0462 221.356 9.70764 221.07 9.42978C220.792 9.14368 220.454 8.92349 220.08 8.78548C219.776 8.6676 219.32 8.5273 218.481 8.48907C217.572 8.44765 217.3 8.43872 215 8.43872C212.7 8.43872 212.428 8.44742 211.519 8.48885C210.68 8.5273 210.223 8.6676 209.92 8.78548C209.546 8.92349 209.207 9.14368 208.93 9.42978C208.644 9.70764 208.423 10.0459 208.285 10.4202C208.167 10.7236 208.027 11.1798 207.989 12.0196C207.947 12.9278 207.938 13.2001 207.938 15.5002C207.938 17.8 207.947 18.0724 207.989 18.9808C208.027 19.8206 208.167 20.2765 208.285 20.58C208.423 20.9542 208.643 21.2925 208.93 21.5704C209.207 21.8565 209.546 22.0766 209.92 22.2147C210.223 22.3328 210.68 22.4731 211.519 22.5113C212.428 22.5527 212.7 22.5614 215 22.5614C217.3 22.5614 217.572 22.5527 218.48 22.5113C219.32 22.4731 219.776 22.3328 220.08 22.2147C220.831 21.9249 221.425 21.3312 221.714 20.58C221.832 20.2765 221.973 19.8206 222.011 18.9808C222.052 18.0724 222.061 17.8 222.061 15.5002C222.061 13.2001 222.052 12.9278 222.011 12.0196C221.973 11.1798 221.833 10.7236 221.714 10.4202ZM215 19.9229C212.557 19.9229 210.577 17.9428 210.577 15.5C210.577 13.0571 212.557 11.077 215 11.077C217.443 11.077 219.423 13.0571 219.423 15.5C219.423 17.9428 217.443 19.9229 215 19.9229ZM219.598 11.9358C219.027 11.9358 218.564 11.473 218.564 10.9022C218.564 10.3313 219.027 9.86855 219.598 9.86855C220.169 9.86855 220.631 10.3313 220.631 10.9022C220.631 11.473 220.169 11.9358 219.598 11.9358Z" fill="url(#paint18_linear)"/>
<path d="M215 0.5C206.717 0.5 200 7.217 200 15.5C200 23.783 206.717 30.5 215 30.5C223.283 30.5 230 23.783 230 15.5C230 7.217 223.283 0.5 215 0.5ZM223.561 19.0511C223.52 19.968 223.374 20.594 223.161 21.1419C222.714 22.2989 221.799 23.2135 220.642 23.661C220.094 23.8739 219.468 24.0194 218.551 24.0613C217.633 24.1032 217.339 24.1133 215 24.1133C212.661 24.1133 212.368 24.1032 211.449 24.0613C210.532 24.0194 209.906 23.8739 209.358 23.661C208.783 23.4447 208.263 23.1057 207.833 22.6674C207.394 22.2374 207.056 21.7167 206.839 21.1419C206.626 20.5942 206.481 19.968 206.439 19.0513C206.397 18.1326 206.387 17.8392 206.387 15.5C206.387 13.1608 206.397 12.8674 206.439 11.9489C206.48 11.032 206.626 10.406 206.839 9.85806C207.055 9.28334 207.394 8.76263 207.833 8.33257C208.263 7.89426 208.783 7.55528 209.358 7.33899C209.906 7.12613 210.532 6.98056 211.449 6.93867C212.367 6.89679 212.661 6.88672 215 6.88672C217.339 6.88672 217.633 6.89679 218.551 6.9389C219.468 6.98056 220.094 7.12613 220.642 7.33876C221.217 7.55505 221.737 7.89426 222.168 8.33257C222.606 8.76286 222.945 9.28334 223.161 9.85806C223.374 10.406 223.52 11.032 223.562 11.9489C223.603 12.8674 223.613 13.1608 223.613 15.5C223.613 17.8392 223.603 18.1326 223.561 19.0511Z" fill="url(#paint19_linear)"/>
<defs>
<linearGradient id="paint0_linear" x1="167.042" y1="30.3047" x2="167.058" y2="30.4149" gradientUnits="userSpaceOnUse">
<stop stop-color="#E6A519"/>
<stop offset="1" stop-color="#E05B19"/>
</linearGradient>
<linearGradient id="paint1_linear" x1="167.539" y1="30.2535" x2="167.55" y2="30.3143" gradientUnits="userSpaceOnUse">
<stop stop-color="#E6A519"/>
<stop offset="1" stop-color="#E05B19"/>
</linearGradient>
<linearGradient id="paint2_linear" x1="166.267" y1="30.4027" x2="166.275" y2="30.4888" gradientUnits="userSpaceOnUse">
<stop stop-color="#E6A519"/>
<stop offset="1" stop-color="#E05B19"/>
</linearGradient>
<linearGradient id="paint3_linear" x1="166.784" y1="30.3676" x2="166.791" y2="30.4194" gradientUnits="userSpaceOnUse">
<stop stop-color="#E6A519"/>
<stop offset="1" stop-color="#E05B19"/>
</linearGradient>
<linearGradient id="paint4_linear" x1="167.969" y1="30.1725" x2="167.982" y2="30.2361" gradientUnits="userSpaceOnUse">
<stop stop-color="#E6A519"/>
<stop offset="1" stop-color="#E05B19"/>
</linearGradient>
<linearGradient id="paint5_linear" x1="169.013" y1="29.9208" x2="169.031" y2="29.9866" gradientUnits="userSpaceOnUse">
<stop stop-color="#E6A519"/>
<stop offset="1" stop-color="#E05B19"/>
</linearGradient>
<linearGradient id="paint6_linear" x1="168.695" y1="30.0045" x2="168.713" y2="30.0722" gradientUnits="userSpaceOnUse">
<stop stop-color="#E6A519"/>
<stop offset="1" stop-color="#E05B19"/>
</linearGradient>
<linearGradient id="paint7_linear" x1="168.285" y1="30.1046" x2="168.299" y2="30.1678" gradientUnits="userSpaceOnUse">
<stop stop-color="#E6A519"/>
<stop offset="1" stop-color="#E05B19"/>
</linearGradient>
<linearGradient id="paint8_linear" x1="166.024" y1="30.4467" x2="166.027" y2="30.4822" gradientUnits="userSpaceOnUse">
<stop stop-color="#E6A519"/>
<stop offset="1" stop-color="#E05B19"/>
</linearGradient>
<linearGradient id="paint9_linear" x1="150" y1="0.5" x2="180" y2="30.5" gradientUnits="userSpaceOnUse">
<stop stop-color="#E6A519"/>
<stop offset="1" stop-color="#E05B19"/>
</linearGradient>
<linearGradient id="paint10_linear" x1="165.521" y1="30.4666" x2="165.523" y2="30.5132" gradientUnits="userSpaceOnUse">
<stop stop-color="#E6A519"/>
<stop offset="1" stop-color="#E05B19"/>
</linearGradient>
<linearGradient id="paint11_linear" x1="165.264" y1="30.4904" x2="165.264" y2="30.5027" gradientUnits="userSpaceOnUse">
<stop stop-color="#E6A519"/>
<stop offset="1" stop-color="#E05B19"/>
</linearGradient>
<linearGradient id="paint12_linear" x1="100" y1="0.5" x2="130" y2="30.5" gradientUnits="userSpaceOnUse">
<stop stop-color="#E6A519"/>
<stop offset="1" stop-color="#E05B19"/>
</linearGradient>
<linearGradient id="paint13_linear" x1="50" y1="0.5" x2="80" y2="30.5" gradientUnits="userSpaceOnUse">
<stop stop-color="#E6A519"/>
<stop offset="1" stop-color="#E05B19"/>
</linearGradient>
<linearGradient id="paint14_linear" x1="9.28809" y1="5.52063" x2="17.2252" y2="11.5791" gradientUnits="userSpaceOnUse">
<stop stop-color="#E6A519"/>
<stop offset="1" stop-color="#E05B19"/>
</linearGradient>
<linearGradient id="paint15_linear" x1="7.84766" y1="18.3988" x2="14.5256" y2="27.3269" gradientUnits="userSpaceOnUse">
<stop stop-color="#E6A519"/>
<stop offset="1" stop-color="#E05B19"/>
</linearGradient>
<linearGradient id="paint16_linear" x1="0" y1="0.5" x2="30" y2="30.5" gradientUnits="userSpaceOnUse">
<stop stop-color="#E6A519"/>
<stop offset="1" stop-color="#E05B19"/>
</linearGradient>
<linearGradient id="paint17_linear" x1="212.129" y1="12.6289" x2="217.871" y2="18.3711" gradientUnits="userSpaceOnUse">
<stop stop-color="#E6A519"/>
<stop offset="1" stop-color="#E05B19"/>
</linearGradient>
<linearGradient id="paint18_linear" x1="207.938" y1="8.43872" x2="222.061" y2="22.5614" gradientUnits="userSpaceOnUse">
<stop stop-color="#E6A519"/>
<stop offset="1" stop-color="#E05B19"/>
</linearGradient>
<linearGradient id="paint19_linear" x1="200" y1="0.5" x2="230" y2="30.5" gradientUnits="userSpaceOnUse">
<stop stop-color="#E6A519"/>
<stop offset="1" stop-color="#E05B19"/>
</linearGradient>
</defs>
</svg>
