<svg width="55" height="84" viewBox="0 0 55 84" fill="none" xmlns="http://www.w3.org/2000/svg">
<path fill-rule="evenodd" clip-rule="evenodd" d="M28.071 20.8C28.3582 19.3424 29.8154 14.8164 36.8087 15.2739C44.348 15.7661 46.2625 12.9801 46.2661 12.9738C46.548 13.111 46.8298 13.2483 47.1117 13.3855C43.763 19.7715 36.2787 27.5157 28.071 21.521C28.071 24.7376 28.071 27.9558 28.071 31.174C28.3582 29.7164 29.8154 25.1904 36.8087 25.6479C44.348 26.1401 46.2625 23.3557 46.2661 23.3494C46.548 23.4866 46.8298 23.6239 47.1117 23.7595C43.763 30.1455 36.2787 37.8913 28.071 31.895C28.071 35.1116 28.071 38.3298 28.071 41.548C28.3582 40.0919 29.8154 35.5644 36.8087 36.0219C44.348 36.5141 46.2625 33.7297 46.2661 33.7218C46.548 33.8606 46.8298 33.9963 47.1117 34.1335C43.763 40.5195 36.2787 48.2668 28.071 42.269C28.071 44.2362 28.071 46.2018 28.071 48.169C36.8477 48.169 45.6261 48.169 54.4028 48.169C54.4028 50.122 54.4028 52.0735 54.4028 54.0265C54.4028 55.1513 53.3693 56.0741 52.1036 56.0741C50.962 56.0741 49.8186 56.0741 48.677 56.0741C46.688 65.3833 44.699 74.6909 42.71 84C32.6251 84 22.5384 84 12.4535 84C10.4645 74.6909 8.47556 65.3833 6.48658 56.0741C5.34496 56.0741 4.20156 56.0741 3.05994 56.0741C1.79423 56.0741 0.760742 55.1513 0.760742 54.0265C0.760742 52.0735 0.760742 50.122 0.760742 48.169C9.53918 48.169 18.3158 48.169 27.0943 48.169C27.0943 46.2018 27.0943 44.2362 27.0943 42.269C18.8867 48.2668 11.4023 40.5195 8.05365 34.1335C8.33374 33.9963 8.61737 33.8606 8.89746 33.7218C8.90278 33.7297 10.8155 36.5141 18.3548 36.0219C25.3517 35.5644 26.8089 40.0919 27.0943 41.548C27.0943 38.3298 27.0943 35.1116 27.0943 31.895C18.8867 37.8913 11.4023 30.1455 8.05365 23.7595C8.33374 23.6239 8.61737 23.4866 8.89746 23.3494C8.90278 23.3557 10.8155 26.1401 18.3548 25.6479C25.3517 25.1904 26.8089 29.7164 27.0943 31.174C27.0943 27.9558 27.0943 24.7376 27.0943 21.521C18.8867 27.5157 11.4023 19.7715 8.05365 13.3855C8.33374 13.2483 8.61737 13.111 8.89746 12.9738C8.90278 12.9801 10.8155 15.7661 18.3548 15.2739C25.3517 14.8164 26.8089 19.3424 27.0943 20.8C27.0943 18.9922 27.0943 17.1827 27.0943 15.3748C22.4906 10.751 23.7616 4.87306 27.1634 0C31.3523 4.65694 31.9976 10.4623 28.071 15.5452C28.071 17.2963 28.071 19.0474 28.071 20.8ZM47.1542 56.0741C34.1053 56.0741 21.0582 56.0741 8.00933 56.0741C9.90258 64.9368 11.7976 73.7995 13.6909 82.6622C22.9515 82.6622 32.2121 82.6622 41.4727 82.6622C43.3659 73.7995 45.261 64.9368 47.1542 56.0741ZM2.264 49.5068C2.264 51.0134 2.264 52.5199 2.264 54.0265C2.264 54.4193 2.61676 54.7364 3.05994 54.7364C19.4078 54.7364 35.7557 54.7364 52.1036 54.7364C52.5468 54.7364 52.8996 54.4193 52.8996 54.0265C52.8996 52.5199 52.8996 51.0134 52.8996 49.5068C36.0216 49.5068 19.1419 49.5068 2.264 49.5068ZM18.4258 16.1305C24.9156 15.7061 26.0058 20.0539 26.1725 21.0793C18.7892 26.2536 12.5421 18.664 10.0657 14.911C11.6221 15.6777 14.2386 16.4034 18.4258 16.1305ZM18.4258 26.5029C24.9156 26.0801 26.0058 30.4279 26.1725 31.4533C18.7892 36.6292 12.5421 29.0396 10.0657 25.2866C11.6221 26.0517 14.2386 26.7774 18.4258 26.5029ZM18.4258 36.8785C24.9156 36.4557 26.0058 40.8034 26.1725 41.8273C18.7892 47.0032 12.5421 39.4136 10.0657 35.659C11.6221 36.4273 14.2386 37.1514 18.4258 36.8785ZM36.7396 16.1305C30.2497 15.7061 29.1595 20.0539 28.9946 21.0793C36.3762 26.2536 42.6214 18.664 45.0997 14.911C43.5432 15.6777 40.9249 16.4034 36.7396 16.1305ZM36.7396 26.5029C30.2497 26.0801 29.1595 30.4279 28.9946 31.4533C36.3762 36.6292 42.6214 29.0396 45.0997 25.2866C43.5432 26.0517 40.9249 26.7774 36.7396 26.5029ZM36.7396 36.8785C30.2497 36.4557 29.1595 40.8034 28.9946 41.8273C36.3762 47.0032 42.6214 39.4136 45.0997 35.659C43.5432 36.4273 40.9249 37.1514 36.7396 36.8785ZM27.2574 1.51445C22.7671 8.46042 26.3604 13.2562 27.6155 14.6018C31.9107 8.56612 28.5124 3.15511 27.2574 1.51445Z" fill="#444242"/>
</svg>
