<svg width="103" height="63" viewBox="0 0 103 63" fill="none" xmlns="http://www.w3.org/2000/svg">
<path d="M48.9649 0H47.2986H0V62.158H47.2986H48.9661H102.424V0H48.9649ZM1.66747 60.697V1.461H47.2986V5.396H6.14259V56.762H47.2986V60.697H1.66747ZM47.2986 27.256L22.7111 55.301H19.4207L47.2986 23.504V27.256ZM47.2986 28.055V55.302H23.4119L47.2986 28.055ZM47.2986 22.706L18.7211 55.301H7.81006V46.773L42.8029 6.857H47.2986V22.706ZM7.81006 45.975V6.857H42.1033L7.81006 45.975ZM100.757 60.697H48.9649V56.762V55.301V6.857V5.396V1.461H100.757V60.697Z" fill="#444242"/>
<path d="M55.1255 56.762H96.2815V5.396H55.1255H53.458V6.857V55.301V56.762H55.1255ZM94.614 27.413L70.1647 55.301H66.8742L94.614 23.66V27.413ZM70.8643 55.301L94.614 28.212V55.301H70.8643ZM89.5568 6.857L55.1255 46.131V6.857H89.5568ZM55.1255 46.929L90.2576 6.857H94.6152V22.862L66.1735 55.301H55.1255V46.929Z" fill="#444242"/>
</svg>
