<svg width="63" height="70" viewBox="0 0 63 70" fill="none" xmlns="http://www.w3.org/2000/svg">
<path d="M60.5893 43.3398C61.5654 42.2502 62.1602 40.8119 62.1602 39.2383C62.1602 35.8463 59.3998 33.0859 56.0078 33.0859H44.0668C45.2494 29.4971 45.7539 24.7352 45.7539 22.6939V20.6445C45.7539 16.1219 42.0734 12.4414 37.5508 12.4414H35.5C34.5594 12.4414 33.7391 13.0813 33.5107 13.9945L32.3937 18.4639C30.8283 24.7229 25.8586 31.6285 20.7152 32.8836C19.8143 30.6031 17.5898 28.9844 14.9922 28.9844H2.6875C1.55547 28.9844 0.636719 29.9031 0.636719 31.0352V67.9492C0.636719 69.0812 1.55547 70 2.6875 70H14.9922C17.4381 70 19.5545 68.5658 20.5457 66.4932L27.5922 68.842C29.8959 69.6104 32.2967 70 34.7262 70H51.9062C55.2982 70 58.0586 67.2396 58.0586 63.8477C58.0586 63.0479 57.9055 62.2822 57.6266 61.5809C60.2352 60.8686 62.1602 58.4773 62.1602 55.6445C62.1602 54.0709 61.5654 52.6326 60.5893 51.543C61.5654 50.4533 62.1602 49.015 62.1602 47.4414C62.1602 45.8678 61.5654 44.4295 60.5893 43.3398ZM17.043 63.8477C17.043 64.9783 16.1229 65.8984 14.9922 65.8984H4.73828V33.0859H14.9922C16.1229 33.0859 17.043 34.0061 17.043 35.1367V63.8477ZM51.9062 45.3906H56.0078C57.1385 45.3906 58.0586 46.3107 58.0586 47.4414C58.0586 48.5721 57.1385 49.4922 56.0078 49.4922H51.9062C50.7742 49.4922 49.8555 50.4109 49.8555 51.543C49.8555 52.675 50.7742 53.5938 51.9062 53.5938H56.0078C57.1385 53.5938 58.0586 54.5139 58.0586 55.6445C58.0586 56.7752 57.1385 57.6953 56.0078 57.6953H51.9062C50.7742 57.6953 49.8555 58.6141 49.8555 59.7461C49.8555 60.8781 50.7742 61.7969 51.9062 61.7969C53.0369 61.7969 53.957 62.717 53.957 63.8477C53.957 64.9783 53.0369 65.8984 51.9062 65.8984H34.7262C32.7383 65.8984 30.7736 65.5799 28.8883 64.951L21.1445 62.3697V36.9934C24.3615 36.3822 27.5102 34.3451 30.3525 31.0105C33.1279 27.7539 35.3783 23.4363 36.3723 19.4592L37.101 16.543H37.5508C39.8121 16.543 41.6523 18.3832 41.6523 20.6445V22.6939C41.6523 25.4475 40.791 30.7289 39.6891 33.0859H35.5C34.368 33.0859 33.4492 34.0047 33.4492 35.1367C33.4492 36.2687 34.368 37.1875 35.5 37.1875H56.0078C57.1385 37.1875 58.0586 38.1076 58.0586 39.2383C58.0586 40.3689 57.1385 41.2891 56.0078 41.2891H51.9062C50.7742 41.2891 49.8555 42.2078 49.8555 43.3398C49.8555 44.4719 50.7742 45.3906 51.9062 45.3906Z" fill="url(#paint0_linear)"/>
<path d="M10.8906 61.7969C12.0232 61.7969 12.9414 60.8787 12.9414 59.7461C12.9414 58.6135 12.0232 57.6953 10.8906 57.6953C9.75801 57.6953 8.83984 58.6135 8.83984 59.7461C8.83984 60.8787 9.75801 61.7969 10.8906 61.7969Z" fill="url(#paint1_linear)"/>
<path d="M39.6016 0C38.469 0 37.5508 0.918203 37.5508 2.05078V6.28906C37.5508 7.42164 38.469 8.33984 39.6016 8.33984C40.7341 8.33984 41.6523 7.42164 41.6523 6.28906V2.05078C41.6523 0.918203 40.7341 0 39.6016 0Z" fill="url(#paint2_linear)"/>
<path d="M30.9011 9.04361L28.0009 6.1434C27.2001 5.3425 25.9016 5.3425 25.1007 6.1434C24.2998 6.9443 24.2998 8.24271 25.1007 9.04361L28.0009 11.9438C28.8017 12.7446 30.1003 12.7447 30.9011 11.9438C31.702 11.1429 31.702 9.84451 30.9011 9.04361Z" fill="url(#paint3_linear)"/>
<path d="M54.1023 6.1434C53.3015 5.3425 52.003 5.3425 51.2021 6.1434L48.3018 9.04348C47.5009 9.84438 47.5009 11.1428 48.3018 11.9437C49.1026 12.7446 50.4012 12.7447 51.2021 11.9438L54.1023 9.04361C54.9032 8.24271 54.9032 6.9443 54.1023 6.1434Z" fill="url(#paint4_linear)"/>
<defs>
<linearGradient id="paint0_linear" x1="0.636719" y1="12.4414" x2="58.0678" y2="73.8286" gradientUnits="userSpaceOnUse">
<stop stop-color="#E6A519"/>
<stop offset="1" stop-color="#E05B19"/>
</linearGradient>
<linearGradient id="paint1_linear" x1="8.83984" y1="57.6953" x2="12.9414" y2="61.7969" gradientUnits="userSpaceOnUse">
<stop stop-color="#E6A519"/>
<stop offset="1" stop-color="#E05B19"/>
</linearGradient>
<linearGradient id="paint2_linear" x1="37.5508" y1="0" x2="44.1562" y2="3.24859" gradientUnits="userSpaceOnUse">
<stop stop-color="#E6A519"/>
<stop offset="1" stop-color="#E05B19"/>
</linearGradient>
<linearGradient id="paint3_linear" x1="24.5" y1="5.54272" x2="31.5017" y2="12.5445" gradientUnits="userSpaceOnUse">
<stop stop-color="#E6A519"/>
<stop offset="1" stop-color="#E05B19"/>
</linearGradient>
<linearGradient id="paint4_linear" x1="47.7012" y1="5.54272" x2="54.7029" y2="12.5445" gradientUnits="userSpaceOnUse">
<stop stop-color="#E6A519"/>
<stop offset="1" stop-color="#E05B19"/>
</linearGradient>
</defs>
</svg>
