<svg width="48" height="20" viewBox="0 0 48 20" fill="none" xmlns="http://www.w3.org/2000/svg">
<path d="M38 20C43.5228 20 48 15.5228 48 10C48 4.47715 43.5228 0 38 0C32.4772 0 28 4.47715 28 10C28 15.5228 32.4772 20 38 20Z" fill="#444242" fill-opacity="0.3"/>
<path d="M30.0674 3.9118C29.2819 4.9338 28.6896 6.11173 28.3447 7.39137H33.547L30.0674 3.9118Z" fill="#444242" fill-opacity="0.3"/>
<path d="M47.6558 7.3914C47.3109 6.11179 46.7186 4.93386 45.9331 3.91187L42.4536 7.3914H47.6558Z" fill="#444242" fill-opacity="0.3"/>
<path d="M28.3447 12.6088C28.6896 13.8884 29.282 15.0663 30.0674 16.0883L33.5469 12.6088H28.3447Z" fill="#444242" fill-opacity="0.3"/>
<path d="M44.0884 2.06722C43.0664 1.28171 41.8885 0.689404 40.6089 0.344482V5.54671L44.0884 2.06722Z" fill="#444242" fill-opacity="0.3"/>
<path d="M31.9121 17.9328C32.9341 18.7183 34.112 19.3106 35.3916 19.6555V14.4533L31.9121 17.9328Z" fill="#444242" fill-opacity="0.3"/>
<path d="M35.3916 0.344482C34.112 0.689404 32.9341 1.28171 31.9121 2.06718L35.3916 5.54667V0.344482Z" fill="#444242" fill-opacity="0.3"/>
<path d="M40.6089 19.6555C41.8885 19.3106 43.0664 18.7183 44.0884 17.9328L40.6089 14.4533V19.6555Z" fill="#444242" fill-opacity="0.3"/>
<path d="M42.4536 12.6088L45.9331 16.0883C46.7186 15.0663 47.3109 13.8884 47.6558 12.6088H42.4536Z" fill="#444242" fill-opacity="0.3"/>
<path d="M47.9154 8.69566H39.3044H39.3044V0.0846484C38.8774 0.0290625 38.4421 0 38 0C37.5579 0 37.1226 0.0290625 36.6957 0.0846484V8.69559V8.69563H28.0846C28.0291 9.12262 28 9.55793 28 10C28 10.4421 28.0291 10.8774 28.0846 11.3043H36.6956H36.6956V19.9154C37.1226 19.9709 37.5579 20 38 20C38.4421 20 38.8774 19.971 39.3043 19.9154V11.3044V11.3044H47.9154C47.9709 10.8774 48 10.4421 48 10C48 9.55793 47.9709 9.12262 47.9154 8.69566Z" fill="#444242" fill-opacity="0.3"/>
<path d="M40.6084 12.6087L45.0707 17.0711C45.276 16.8659 45.4718 16.6514 45.6586 16.4291L41.8382 12.6087H40.6084V12.6087Z" fill="#444242" fill-opacity="0.3"/>
<path d="M35.3911 12.6088H35.391L30.9287 17.0711C31.1339 17.2763 31.3484 17.4721 31.5707 17.6589L35.3911 13.8384V12.6088Z" fill="#444242" fill-opacity="0.3"/>
<path d="M35.391 7.39136V7.39128L30.9286 2.92889C30.7234 3.13405 30.5276 3.34854 30.3408 3.57089L34.1612 7.39132H35.391V7.39136Z" fill="#444242" fill-opacity="0.3"/>
<path d="M40.6084 7.39138L45.0708 2.92896C44.8656 2.72373 44.6511 2.52794 44.4288 2.34119L40.6084 6.16162V7.39138V7.39138Z" fill="#444242" fill-opacity="0.3"/>
<path d="M10 20C15.5228 20 20 15.5228 20 10C20 4.47715 15.5228 0 10 0C4.47715 0 0 4.47715 0 10C0 15.5228 4.47715 20 10 20Z" fill="#F0F0F0"/>
<path d="M20.0003 10C20.0003 5.70037 17.2865 2.03494 13.4785 0.622009V19.3781C17.2865 17.9651 20.0003 14.2997 20.0003 10Z" fill="#D80027"/>
<path d="M0 10C0 14.2997 2.71379 17.9651 6.52176 19.378V0.622009C2.71379 2.03494 0 5.70037 0 10Z" fill="#0052B4"/>
</svg>
