<svg width="99" height="99" viewBox="0 0 99 99" fill="none" xmlns="http://www.w3.org/2000/svg">
<circle cx="49.0039" cy="49.0039" r="49.0039" fill="url(#paint0_linear)"/>
<path d="M73.8777 19H29.8635C27.2255 19 25.0794 21.1462 25.0794 23.7842V38.6973L19.6187 44.158C19.4398 44.3369 19.3384 44.5809 19.3384 44.8344V78.3235H21.252V45.2306L25.0794 41.4032V43.8776C25.0794 44.4058 25.508 44.8344 26.0362 44.8344H37.3966C36.9709 46.4831 35.4705 47.7049 33.6908 47.7049H29.8635C29.3353 47.7049 28.9067 48.1336 28.9067 48.6618C28.9067 51.8805 26.3845 54.4027 23.1657 54.4027V56.3164C23.8297 56.3164 24.4689 56.2293 25.0794 56.0772V69.712C25.0794 72.35 27.2255 74.4962 29.8635 74.4962H32.734V78.3235H34.6477V74.4962H49.957V76.4099C49.957 76.6634 50.0574 76.9074 50.2373 77.0863L52.151 79L53.5039 77.647L51.8706 76.0137V70.1082L53.7843 68.1926V72.5825H55.698V46.2678C55.698 45.4774 56.3409 44.8344 57.1351 44.8344C57.9255 44.8344 58.5684 45.4774 58.5684 46.2678V59.6634V67.7984H60.4821V59.6634C60.4821 58.8731 61.1251 58.2301 61.9193 58.2301C62.7096 58.2301 63.3526 58.8731 63.3526 59.6634V67.7984H65.2663V59.6634C65.2663 58.8731 65.9093 58.2301 66.7034 58.2301C67.4938 58.2301 68.1368 58.8731 68.1368 59.6634V67.7984H69.0936H70.0504L70.0542 59.6615C70.0542 58.8721 70.6972 58.2291 71.4876 58.2291C72.2779 58.2291 72.9209 58.8721 72.9209 59.6624V78.3235H74.8346V74.3996C77.0152 73.9546 78.6619 72.0218 78.6619 69.712V23.7842C78.6619 21.1462 76.5157 19 73.8777 19ZM76.7482 69.712C76.7482 70.9578 75.9455 72.0104 74.8346 72.4065V59.6634C74.8346 57.8177 73.3333 56.3164 71.4876 56.3164C70.5499 56.3164 69.7031 56.7068 69.0955 57.3307C68.487 56.7068 67.6392 56.3164 66.6996 56.3164C65.7629 56.3164 64.917 56.7058 64.3094 57.3278C63.7009 56.7058 62.8541 56.3164 61.9154 56.3164C61.4007 56.3164 60.9184 56.4427 60.4821 56.6513V46.2678C60.4821 44.422 58.9808 42.9208 57.1313 42.9208C55.2856 42.9208 53.7843 44.422 53.7843 46.2678V65.4848L50.2364 69.0356C50.0574 69.2154 49.957 69.4585 49.957 69.712V72.5825H29.8635C28.2809 72.5825 26.993 71.2946 26.993 69.712V55.3146C29.0368 54.1559 30.4682 52.0882 30.7639 49.6186H33.6908C36.857 49.6186 39.4318 47.0438 39.4318 43.8776C39.4318 43.3494 39.0032 42.9208 38.475 42.9208H26.993V39.0935V23.7842C26.993 22.2016 28.2809 20.9137 29.8635 20.9137H73.8777C75.4603 20.9137 76.7482 22.2016 76.7482 23.7842V69.712Z" fill="#EDF2F4"/>
<path d="M46.1296 22.8273H31.7771C31.249 22.8273 30.8203 23.256 30.8203 23.7842V28.5683C30.8203 29.0965 31.249 29.5251 31.7771 29.5251H46.1296C46.6578 29.5251 47.0864 29.0965 47.0864 28.5683V23.7842C47.0864 23.256 46.6578 22.8273 46.1296 22.8273ZM45.1728 27.6115H32.734V24.741H45.1728V27.6115Z" fill="#EDF2F4"/>
<path d="M71.9636 22.8273H57.6111C57.083 22.8273 56.6543 23.256 56.6543 23.7842V28.5683C56.6543 29.0965 57.083 29.5251 57.6111 29.5251H71.9636C72.4918 29.5251 72.9204 29.0965 72.9204 28.5683V23.7842C72.9204 23.256 72.4918 22.8273 71.9636 22.8273ZM71.0068 27.6115H58.568V24.741H71.0068V27.6115Z" fill="#EDF2F4"/>
<path d="M46.1296 51.5322H31.7771C31.249 51.5322 30.8203 51.9609 30.8203 52.4891V57.2732C30.8203 57.8014 31.249 58.23 31.7771 58.23H46.1296C46.6578 58.23 47.0864 57.8014 47.0864 57.2732V52.4891C47.0864 51.9609 46.6578 51.5322 46.1296 51.5322ZM45.1728 56.3164H32.734V53.4459H45.1728V56.3164Z" fill="#EDF2F4"/>
<path d="M52.8272 22.8273H50.9136V41.0071H52.8272V22.8273Z" fill="#EDF2F4"/>
<path d="M41.3455 31.4388H30.8203V33.3524H41.3455V31.4388Z" fill="#EDF2F4"/>
<path d="M47.0863 31.4388H44.2158V33.3524H47.0863V31.4388Z" fill="#EDF2F4"/>
<path d="M41.3455 35.2661H30.8203V37.1798H41.3455V35.2661Z" fill="#EDF2F4"/>
<path d="M47.0863 35.2661H44.2158V37.1798H47.0863V35.2661Z" fill="#EDF2F4"/>
<path d="M41.3455 39.0934H30.8203V41.0071H41.3455V39.0934Z" fill="#EDF2F4"/>
<path d="M47.0863 39.0934H44.2158V41.0071H47.0863V39.0934Z" fill="#EDF2F4"/>
<path d="M47.0863 42.9208H44.2158V44.8344H47.0863V42.9208Z" fill="#EDF2F4"/>
<path d="M47.0863 46.7481H44.2158V48.6618H47.0863V46.7481Z" fill="#EDF2F4"/>
<path d="M41.3455 60.1437H30.8203V62.0574H41.3455V60.1437Z" fill="#EDF2F4"/>
<path d="M47.0863 60.1437H44.2158V62.0574H47.0863V60.1437Z" fill="#EDF2F4"/>
<path d="M41.3455 63.9711H30.8203V65.8847H41.3455V63.9711Z" fill="#EDF2F4"/>
<path d="M47.0863 63.9711H44.2158V65.8847H47.0863V63.9711Z" fill="#EDF2F4"/>
<path d="M41.3455 67.7984H30.8203V69.7121H41.3455V67.7984Z" fill="#EDF2F4"/>
<path d="M47.0863 67.7984H44.2158V69.7121H47.0863V67.7984Z" fill="#EDF2F4"/>
<path d="M67.1794 31.4388H56.6543V33.3524H67.1794V31.4388Z" fill="#EDF2F4"/>
<path d="M72.9208 31.4388H70.0503V33.3524H72.9208V31.4388Z" fill="#EDF2F4"/>
<path d="M67.1794 35.2661H56.6543V37.1798H67.1794V35.2661Z" fill="#EDF2F4"/>
<path d="M72.9208 35.2661H70.0503V37.1798H72.9208V35.2661Z" fill="#EDF2F4"/>
<path d="M67.1794 39.0934H56.6543V41.0071H67.1794V39.0934Z" fill="#EDF2F4"/>
<path d="M72.9208 39.0934H70.0503V41.0071H72.9208V39.0934Z" fill="#EDF2F4"/>
<path d="M67.1797 42.9208H62.3955V44.8344H67.1797V42.9208Z" fill="#EDF2F4"/>
<path d="M72.9208 42.9208H70.0503V44.8344H72.9208V42.9208Z" fill="#EDF2F4"/>
<path d="M67.1797 46.7481H62.3955V48.6618H67.1797V46.7481Z" fill="#EDF2F4"/>
<path d="M72.9208 46.7481H70.0503V48.6618H72.9208V46.7481Z" fill="#EDF2F4"/>
<path d="M67.1797 50.5754H62.3955V52.4891H67.1797V50.5754Z" fill="#EDF2F4"/>
<path d="M72.9208 50.5754H70.0503V52.4891H72.9208V50.5754Z" fill="#EDF2F4"/>
<defs>
<linearGradient id="paint0_linear" x1="0" y1="0" x2="98.0079" y2="98.0079" gradientUnits="userSpaceOnUse">
<stop stop-color="#744BE8"/>
<stop offset="0.546559" stop-color="#6974F0"/>
<stop offset="1" stop-color="#54C0FF"/>
</linearGradient>
</defs>
</svg>
