<svg width="99" height="99" viewBox="0 0 99 99" fill="none" xmlns="http://www.w3.org/2000/svg">
<circle cx="49.0039" cy="49.0044" r="49.0039" fill="url(#paint0_linear)"/>
<path d="M73.8777 19.0004H29.8635C27.2255 19.0004 25.0794 21.1466 25.0794 23.7846V38.6978L19.6187 44.1584C19.4398 44.3373 19.3384 44.5813 19.3384 44.8349V78.3239H21.252V45.231L25.0794 41.4037V43.878C25.0794 44.4062 25.508 44.8349 26.0362 44.8349H37.3966C36.9709 46.4835 35.4705 47.7054 33.6908 47.7054H29.8635C29.3353 47.7054 28.9067 48.134 28.9067 48.6622C28.9067 51.881 26.3845 54.4032 23.1657 54.4032V56.3168C23.8297 56.3168 24.4689 56.2298 25.0794 56.0776V69.7125C25.0794 72.3505 27.2255 74.4966 29.8635 74.4966H32.734V78.3239H34.6477V74.4966H49.957V76.4103C49.957 76.6638 50.0574 76.9078 50.2373 77.0868L52.151 79.0004L53.5039 77.6475L51.8706 76.0142V70.1086L53.7843 68.193V72.583H55.698V46.2682C55.698 45.4779 56.3409 44.8349 57.1351 44.8349C57.9255 44.8349 58.5684 45.4779 58.5684 46.2682V59.6638V67.7988H60.4821V59.6638C60.4821 58.8735 61.1251 58.2305 61.9193 58.2305C62.7096 58.2305 63.3526 58.8735 63.3526 59.6638V67.7988H65.2663V59.6638C65.2663 58.8735 65.9093 58.2305 66.7034 58.2305C67.4938 58.2305 68.1368 58.8735 68.1368 59.6638V67.7988H69.0936H70.0504L70.0542 59.6619C70.0542 58.8725 70.6972 58.2295 71.4876 58.2295C72.2779 58.2295 72.9209 58.8725 72.9209 59.6629V78.3239H74.8346V74.4C77.0152 73.9551 78.6619 72.0223 78.6619 69.7125V23.7846C78.6619 21.1466 76.5157 19.0004 73.8777 19.0004ZM76.7482 69.7125C76.7482 70.9583 75.9455 72.0108 74.8346 72.4069V59.6638C74.8346 57.8181 73.3333 56.3168 71.4876 56.3168C70.5499 56.3168 69.7031 56.7072 69.0955 57.3311C68.487 56.7072 67.6392 56.3168 66.6996 56.3168C65.7629 56.3168 64.917 56.7063 64.3094 57.3282C63.7009 56.7063 62.8541 56.3168 61.9154 56.3168C61.4007 56.3168 60.9184 56.4431 60.4821 56.6517V46.2682C60.4821 44.4225 58.9808 42.9212 57.1313 42.9212C55.2856 42.9212 53.7843 44.4225 53.7843 46.2682V65.4852L50.2364 69.036C50.0574 69.2159 49.957 69.4589 49.957 69.7125V72.583H29.8635C28.2809 72.583 26.993 71.2951 26.993 69.7125V55.315C29.0368 54.1563 30.4682 52.0886 30.7639 49.619H33.6908C36.857 49.619 39.4318 47.0442 39.4318 43.878C39.4318 43.3499 39.0032 42.9212 38.475 42.9212H26.993V39.0939V23.7846C26.993 22.202 28.2809 20.9141 29.8635 20.9141H73.8777C75.4603 20.9141 76.7482 22.202 76.7482 23.7846V69.7125Z" fill="#EDF2F4"/>
<path d="M46.1296 22.8278H31.7771C31.249 22.8278 30.8203 23.2564 30.8203 23.7846V28.5687C30.8203 29.0969 31.249 29.5256 31.7771 29.5256H46.1296C46.6578 29.5256 47.0864 29.0969 47.0864 28.5687V23.7846C47.0864 23.2564 46.6578 22.8278 46.1296 22.8278ZM45.1728 27.6119H32.734V24.7414H45.1728V27.6119Z" fill="#EDF2F4"/>
<path d="M71.9636 22.8278H57.6111C57.083 22.8278 56.6543 23.2564 56.6543 23.7846V28.5687C56.6543 29.0969 57.083 29.5256 57.6111 29.5256H71.9636C72.4918 29.5256 72.9204 29.0969 72.9204 28.5687V23.7846C72.9204 23.2564 72.4918 22.8278 71.9636 22.8278ZM71.0068 27.6119H58.568V24.7414H71.0068V27.6119Z" fill="#EDF2F4"/>
<path d="M46.1296 51.5327H31.7771C31.249 51.5327 30.8203 51.9613 30.8203 52.4895V57.2736C30.8203 57.8018 31.249 58.2305 31.7771 58.2305H46.1296C46.6578 58.2305 47.0864 57.8018 47.0864 57.2736V52.4895C47.0864 51.9613 46.6578 51.5327 46.1296 51.5327ZM45.1728 56.3168H32.734V53.4463H45.1728V56.3168Z" fill="#EDF2F4"/>
<path d="M52.8272 22.8278H50.9136V41.0075H52.8272V22.8278Z" fill="#EDF2F4"/>
<path d="M41.3455 31.4392H30.8203V33.3529H41.3455V31.4392Z" fill="#EDF2F4"/>
<path d="M47.0863 31.4392H44.2158V33.3529H47.0863V31.4392Z" fill="#EDF2F4"/>
<path d="M41.3455 35.2665H30.8203V37.1802H41.3455V35.2665Z" fill="#EDF2F4"/>
<path d="M47.0863 35.2665H44.2158V37.1802H47.0863V35.2665Z" fill="#EDF2F4"/>
<path d="M41.3455 39.0939H30.8203V41.0075H41.3455V39.0939Z" fill="#EDF2F4"/>
<path d="M47.0863 39.0939H44.2158V41.0075H47.0863V39.0939Z" fill="#EDF2F4"/>
<path d="M47.0863 42.9212H44.2158V44.8349H47.0863V42.9212Z" fill="#EDF2F4"/>
<path d="M47.0863 46.7485H44.2158V48.6622H47.0863V46.7485Z" fill="#EDF2F4"/>
<path d="M41.3455 60.1442H30.8203V62.0578H41.3455V60.1442Z" fill="#EDF2F4"/>
<path d="M47.0863 60.1442H44.2158V62.0578H47.0863V60.1442Z" fill="#EDF2F4"/>
<path d="M41.3455 63.9715H30.8203V65.8852H41.3455V63.9715Z" fill="#EDF2F4"/>
<path d="M47.0863 63.9715H44.2158V65.8852H47.0863V63.9715Z" fill="#EDF2F4"/>
<path d="M41.3455 67.7988H30.8203V69.7125H41.3455V67.7988Z" fill="#EDF2F4"/>
<path d="M47.0863 67.7988H44.2158V69.7125H47.0863V67.7988Z" fill="#EDF2F4"/>
<path d="M67.1794 31.4392H56.6543V33.3529H67.1794V31.4392Z" fill="#EDF2F4"/>
<path d="M72.9208 31.4392H70.0503V33.3529H72.9208V31.4392Z" fill="#EDF2F4"/>
<path d="M67.1794 35.2665H56.6543V37.1802H67.1794V35.2665Z" fill="#EDF2F4"/>
<path d="M72.9208 35.2665H70.0503V37.1802H72.9208V35.2665Z" fill="#EDF2F4"/>
<path d="M67.1794 39.0939H56.6543V41.0075H67.1794V39.0939Z" fill="#EDF2F4"/>
<path d="M72.9208 39.0939H70.0503V41.0075H72.9208V39.0939Z" fill="#EDF2F4"/>
<path d="M67.1797 42.9212H62.3955V44.8349H67.1797V42.9212Z" fill="#EDF2F4"/>
<path d="M72.9208 42.9212H70.0503V44.8349H72.9208V42.9212Z" fill="#EDF2F4"/>
<path d="M67.1797 46.7485H62.3955V48.6622H67.1797V46.7485Z" fill="#EDF2F4"/>
<path d="M72.9208 46.7485H70.0503V48.6622H72.9208V46.7485Z" fill="#EDF2F4"/>
<path d="M67.1797 50.5759H62.3955V52.4895H67.1797V50.5759Z" fill="#EDF2F4"/>
<path d="M72.9208 50.5759H70.0503V52.4895H72.9208V50.5759Z" fill="#EDF2F4"/>
<defs>
<linearGradient id="paint0_linear" x1="0" y1="0.000427246" x2="98.0079" y2="98.0083" gradientUnits="userSpaceOnUse">
<stop stop-color="#E6A519"/>
<stop offset="1" stop-color="#E05B19"/>
</linearGradient>
</defs>
</svg>
