<svg width="228" height="87" viewBox="0 0 228 87" fill="none" xmlns="http://www.w3.org/2000/svg">
<path d="M20.76 13.92V19.32H9.32V25.36H17.88V30.56H9.32V42H2.48V13.92H20.76ZM24.995 30.8C24.995 28.5067 25.4217 26.4933 26.275 24.76C27.155 23.0267 28.3417 21.6933 29.835 20.76C31.3283 19.8267 32.995 19.36 34.835 19.36C36.4083 19.36 37.7817 19.68 38.955 20.32C40.155 20.96 41.075 21.8 41.715 22.84V19.68H48.555V42H41.715V38.84C41.0483 39.88 40.115 40.72 38.915 41.36C37.7417 42 36.3683 42.32 34.795 42.32C32.9817 42.32 31.3283 41.8533 29.835 40.92C28.3417 39.96 27.155 38.6133 26.275 36.88C25.4217 35.12 24.995 33.0933 24.995 30.8ZM41.715 30.84C41.715 29.1333 41.235 27.7867 40.275 26.8C39.3417 25.8133 38.195 25.32 36.835 25.32C35.475 25.32 34.315 25.8133 33.355 26.8C32.4217 27.76 31.955 29.0933 31.955 30.8C31.955 32.5067 32.4217 33.8667 33.355 34.88C34.315 35.8667 35.475 36.36 36.835 36.36C38.195 36.36 39.3417 35.8667 40.275 34.88C41.235 33.8933 41.715 32.5467 41.715 30.84ZM54.1434 30.84C54.1434 28.52 54.6101 26.4933 55.5434 24.76C56.5034 23.0267 57.8234 21.6933 59.5034 20.76C61.2101 19.8267 63.1568 19.36 65.3434 19.36C68.1434 19.36 70.4768 20.0933 72.3434 21.56C74.2368 23.0267 75.4768 25.0933 76.0634 27.76H68.7834C68.1701 26.0533 66.9834 25.2 65.2234 25.2C63.9701 25.2 62.9701 25.6933 62.2234 26.68C61.4768 27.64 61.1034 29.0267 61.1034 30.84C61.1034 32.6533 61.4768 34.0533 62.2234 35.04C62.9701 36 63.9701 36.48 65.2234 36.48C66.9834 36.48 68.1701 35.6267 68.7834 33.92H76.0634C75.4768 36.5333 74.2368 38.5867 72.3434 40.08C70.4501 41.5733 68.1168 42.32 65.3434 42.32C63.1568 42.32 61.2101 41.8533 59.5034 40.92C57.8234 39.9867 56.5034 38.6533 55.5434 36.92C54.6101 35.1867 54.1434 33.16 54.1434 30.84ZM102.762 30.44C102.762 31.0533 102.722 31.7067 102.642 32.4H87.1622C87.2689 33.8133 87.7089 34.8933 88.4822 35.64C89.2555 36.3867 90.2289 36.76 91.4022 36.76C93.1089 36.76 94.2955 36.04 94.9622 34.6H102.242C101.869 36.0667 101.189 37.3867 100.202 38.56C99.2422 39.7333 98.0289 40.6533 96.5622 41.32C95.0955 41.9867 93.4555 42.32 91.6422 42.32C89.4555 42.32 87.5089 41.8533 85.8022 40.92C84.0955 39.9867 82.7622 38.6533 81.8022 36.92C80.8422 35.1867 80.3622 33.16 80.3622 30.84C80.3622 28.52 80.8289 26.4933 81.7622 24.76C82.7222 23.0267 84.0555 21.6933 85.7622 20.76C87.4689 19.8267 89.4289 19.36 91.6422 19.36C93.8022 19.36 95.7222 19.8133 97.4022 20.72C99.0822 21.6267 100.389 22.92 101.322 24.6C102.282 26.28 102.762 28.2267 102.762 30.44ZM95.7622 28.92C95.7622 27.64 95.3622 26.64 94.5622 25.92C93.7622 25.2 92.7622 24.84 91.5622 24.84C90.3889 24.84 89.4022 25.2 88.6022 25.92C87.8289 26.6133 87.3489 27.6133 87.1622 28.92H95.7622ZM109.931 13.92H116.931L112.451 24.64H107.851L109.931 13.92Z" fill="#444242"/>
<path d="M14.97 70.28H7.11L5.85 74H0.48L8.1 52.94H14.04L21.66 74H16.23L14.97 70.28ZM13.68 66.38L11.04 58.61L8.43 66.38H13.68ZM33.3691 52.94C35.5891 52.94 37.5291 53.38 39.1891 54.26C40.8491 55.14 42.1291 56.38 43.0291 57.98C43.9491 59.56 44.4091 61.39 44.4091 63.47C44.4091 65.53 43.9491 67.36 43.0291 68.96C42.1291 70.56 40.8391 71.8 39.1591 72.68C37.4991 73.56 35.5691 74 33.3691 74H25.4791V52.94H33.3691ZM33.0391 69.62C34.9791 69.62 36.4891 69.08 37.5691 68C38.6491 66.92 39.1891 65.41 39.1891 63.47C39.1891 61.53 38.6491 60.02 37.5691 58.94C36.4891 57.86 34.9791 57.32 33.0391 57.32H30.6091V69.62H33.0391ZM56.666 52.94C58.886 52.94 60.826 53.38 62.486 54.26C64.146 55.14 65.426 56.38 66.326 57.98C67.246 59.56 67.706 61.39 67.706 63.47C67.706 65.53 67.246 67.36 66.326 68.96C65.426 70.56 64.136 71.8 62.456 72.68C60.796 73.56 58.866 74 56.666 74H48.776V52.94H56.666ZM56.336 69.62C58.276 69.62 59.786 69.08 60.866 68C61.946 66.92 62.486 65.41 62.486 63.47C62.486 61.53 61.946 60.02 60.866 58.94C59.786 57.86 58.276 57.32 56.336 57.32H53.906V69.62H56.336Z" fill="url(#paint0_linear)"/>
<path d="M143 64.5V75.5H159L143 64.5Z" fill="url(#paint1_linear)"/>
<path d="M124 52V75.5H142V64L124 52Z" fill="url(#paint2_linear)"/>
<path d="M142 62.5V47L124 35V50.3677L142 62.5Z" fill="url(#paint3_linear)"/>
<path d="M159 74V58L143 48V63L159 74Z" fill="url(#paint4_linear)"/>
<path d="M105 64.5V75.5H89L105 64.5Z" fill="#444242"/>
<path d="M124 52V75.5H106V64L124 52Z" fill="#444242"/>
<path d="M106 62.5V47L124 35V50.3677L106 62.5Z" fill="#444242"/>
<path d="M89 74V58L105 48V63L89 74Z" fill="#444242"/>
<defs>
<linearGradient id="paint0_linear" x1="0" y1="42" x2="40.6949" y2="106.207" gradientUnits="userSpaceOnUse">
<stop stop-color="#E6A519"/>
<stop offset="1" stop-color="#E05B19"/>
</linearGradient>
<linearGradient id="paint1_linear" x1="159" y1="64.5" x2="148.729" y2="79.439" gradientUnits="userSpaceOnUse">
<stop stop-color="#E6A519"/>
<stop offset="1" stop-color="#E05B19"/>
</linearGradient>
<linearGradient id="paint2_linear" x1="142" y1="52" x2="119.311" y2="69.3786" gradientUnits="userSpaceOnUse">
<stop stop-color="#E6A519"/>
<stop offset="1" stop-color="#E05B19"/>
</linearGradient>
<linearGradient id="paint3_linear" x1="124" y1="62.5" x2="149.202" y2="46.0038" gradientUnits="userSpaceOnUse">
<stop stop-color="#E6A519"/>
<stop offset="1" stop-color="#E05B19"/>
</linearGradient>
<linearGradient id="paint4_linear" x1="143" y1="74" x2="166.21" y2="59.7167" gradientUnits="userSpaceOnUse">
<stop stop-color="#E6A519"/>
<stop offset="1" stop-color="#E05B19"/>
</linearGradient>
</defs>
</svg>
