<svg width="87" height="73" viewBox="0 0 87 73" fill="none" xmlns="http://www.w3.org/2000/svg">
<path d="M2.49292 69.5335C2.332 69.5431 2.17092 69.5169 2.02461 69.4575C1.87829 69.398 1.75148 69.3071 1.65593 69.1933C1.56038 69.0794 1.49919 68.9462 1.47802 68.8061C1.45684 68.666 1.47638 68.5235 1.53482 68.3918L3.64265 63.6404C3.73412 63.4323 3.91624 63.2645 4.14892 63.1739C4.3816 63.0834 4.6458 63.0776 4.88339 63.1577C5.12098 63.2379 5.31249 63.3974 5.41581 63.6013C5.51912 63.8052 5.52577 64.0367 5.4343 64.2448L3.34563 68.971C3.2832 69.1283 3.16878 69.2658 3.01694 69.3659C2.8651 69.4661 2.6827 69.5244 2.49292 69.5335Z" fill="#444242"/>
<path d="M18.7802 71.6153H18.5694C18.4467 71.5905 18.3308 71.5448 18.2282 71.4808C18.1257 71.4168 18.0385 71.3356 17.9718 71.2421C17.9051 71.1485 17.86 71.0444 17.8393 70.9355C17.8185 70.8267 17.8225 70.7154 17.8508 70.6079L19.106 65.7474C19.1619 65.5247 19.3164 65.3307 19.5356 65.2079C19.7548 65.0851 20.0207 65.0436 20.2748 65.0926C20.5289 65.1416 20.7504 65.277 20.8906 65.4691C21.0307 65.6611 21.0781 65.8941 21.0222 66.1167L19.7383 70.9605C19.6896 71.1498 19.5676 71.3186 19.3929 71.438C19.2182 71.5573 19.0017 71.62 18.7802 71.6153Z" fill="#444242"/>
<path d="M35.3757 72.6563H35.2991C35.0464 72.6392 34.8119 72.535 34.6467 72.3667C34.4815 72.1983 34.3991 71.9795 34.4176 71.7581L34.8392 66.8472C34.8486 66.737 34.8827 66.6295 34.9396 66.5308C34.9965 66.4321 35.075 66.3442 35.1706 66.2721C35.2662 66.2 35.3771 66.1451 35.497 66.1105C35.6169 66.076 35.7433 66.0624 35.8691 66.0707C35.9949 66.079 36.1177 66.1089 36.2303 66.1587C36.3429 66.2085 36.4433 66.2773 36.5256 66.3611C36.6079 66.4449 36.6705 66.5421 36.7099 66.6471C36.7494 66.7521 36.7648 66.8629 36.7554 66.9731L36.3338 71.884C36.3145 72.0948 36.2051 72.2915 36.0275 72.4347C35.8498 72.5779 35.6171 72.657 35.3757 72.6563Z" fill="#444242"/>
<path d="M52.0083 72.6564C51.7654 72.657 51.5314 72.5766 51.3535 72.4317C51.1756 72.2867 51.0672 72.088 51.0502 71.8757L50.6287 66.9648C50.6192 66.8546 50.6347 66.7438 50.6741 66.6388C50.7135 66.5338 50.7762 66.4366 50.8585 66.3528C50.9408 66.269 51.0411 66.2002 51.1537 66.1504C51.2664 66.1006 51.3891 66.0707 51.5149 66.0624C51.6407 66.0541 51.7672 66.0677 51.887 66.1022C52.0069 66.1368 52.1178 66.1917 52.2134 66.2638C52.3091 66.3359 52.3876 66.4238 52.4444 66.5225C52.5013 66.6211 52.5354 66.7287 52.5449 66.8389L52.9664 71.7498C52.9849 71.9712 52.9026 72.19 52.7374 72.3584C52.5722 72.5267 52.3376 72.6309 52.085 72.648L52.0083 72.6564Z" fill="#444242"/>
<path d="M68.6014 71.6154C68.3799 71.6202 68.1634 71.5575 67.9887 71.4381C67.814 71.3188 67.6919 71.15 67.6433 70.9607L66.3882 66.1001C66.3322 65.8775 66.3796 65.6445 66.5197 65.4525C66.6599 65.2604 66.8814 65.125 67.1355 65.076C67.3896 65.027 67.6555 65.0685 67.8747 65.1913C68.0939 65.3141 68.2485 65.5081 68.3044 65.7308L69.5595 70.5913C69.5879 70.6988 69.5918 70.8101 69.571 70.9189C69.5503 71.0277 69.5052 71.1319 69.4385 71.2255C69.3718 71.319 69.2846 71.4001 69.1821 71.4642C69.0795 71.5282 68.9636 71.5739 68.8409 71.5986L68.6014 71.6154Z" fill="#444242"/>
<path d="M84.8895 69.5335C84.6965 69.533 84.5082 69.4814 84.3492 69.3856C84.1902 69.2897 84.068 69.154 83.9985 68.9962L81.9098 64.2448C81.8183 64.0367 81.825 63.8052 81.9283 63.6013C82.0316 63.3974 82.2231 63.2379 82.4607 63.1577C82.6983 63.0776 82.9625 63.0834 83.1952 63.1739C83.4279 63.2645 83.61 63.4323 83.7015 63.6404L85.8476 68.3918C85.906 68.5235 85.9256 68.666 85.9044 68.8061C85.8832 68.9462 85.8221 69.0794 85.7265 69.1933C85.631 69.3071 85.5041 69.398 85.3578 69.4575C85.2115 69.5169 85.0504 69.5431 84.8895 69.5335Z" fill="#444242"/>
<path d="M86.2025 44.6853L75.1748 31.5225V3.69411C75.1755 3.20702 75.0658 2.72466 74.852 2.27504C74.6382 1.82541 74.3245 1.4175 73.9293 1.07498C73.5382 0.72759 73.0709 0.453268 72.5554 0.268584C72.04 0.0838994 71.4872 -0.00731268 70.9304 0.000457847L20.5726 0.243903C19.6938 0.247427 18.8374 0.487751 18.1198 0.932266L12.0742 4.65111C11.9392 4.74013 11.8334 4.85888 11.7676 4.99529C11.2174 5.36848 10.7718 5.84681 10.4646 6.39382C10.1574 6.94082 9.99687 7.54206 9.99514 8.15169V31.0104C9.29978 31.1738 8.66128 31.4852 8.13643 31.917C7.68716 32.2461 7.32067 32.6532 7.06011 33.1127C6.79956 33.5722 6.65059 34.074 6.62262 34.5865C6.62262 36.2151 8.22265 37.4743 9.57358 37.9864L1.07522 53.6256C1.00096 53.7547 0.965992 53.8984 0.973704 54.0428C0.981416 54.1872 1.03154 54.3273 1.11923 54.4498C1.20692 54.5722 1.32921 54.6727 1.47424 54.7416C1.61928 54.8104 1.78215 54.8453 1.94709 54.8429H71.1699C71.2558 54.8531 71.3428 54.8531 71.4286 54.8429H71.5053L71.6777 54.7673L85.9822 45.8774C86.0878 45.813 86.1775 45.7307 86.246 45.6354C86.3146 45.54 86.3605 45.4335 86.3811 45.3223C86.4016 45.2111 86.3964 45.0973 86.3657 44.9879C86.3351 44.8785 86.2796 44.7756 86.2025 44.6853ZM71.1603 36.5509C70.9591 36.5509 70.3555 35.8625 70.3555 34.5949C70.3555 33.3273 70.9591 32.6474 71.1603 32.6474C71.6394 32.6474 73.2394 33.5708 73.2394 34.5949C73.2394 35.6191 71.6394 36.5509 71.1603 36.5509ZM19.2408 2.31739C19.6362 2.07295 20.1079 1.94106 20.5917 1.93963L70.9496 1.69618C71.5537 1.70187 72.1327 1.90899 72.5688 2.27541C72.7822 2.46117 72.9515 2.68224 73.0666 2.92579C73.1817 3.16933 73.2405 3.4305 73.2394 3.69411V31.6652C72.6426 31.2518 71.9188 31.0034 71.1603 30.9516C69.5986 30.9516 68.4202 32.5214 68.4202 34.6033C68.4202 36.6852 69.5603 38.2466 71.1603 38.2466L68.219 40.0598V8.16008C68.219 7.09141 67.7345 6.0665 66.872 5.31084C66.0095 4.55517 64.8398 4.13064 63.6201 4.13064H16.309L19.2408 2.31739ZM59.4811 31.7995H16.6731L19.1929 30.2465H58.82C58.9016 30.2415 58.9821 30.2274 59.0595 30.2045H59.1362C59.3424 30.2069 59.544 30.151 59.711 30.045L66.2836 25.9904V27.6022L59.4811 31.7995ZM11.9401 8.15169C11.9401 7.84522 12.009 7.54175 12.1428 7.25861C12.2767 6.97547 12.4729 6.7182 12.7202 6.5015C12.9675 6.28479 13.2612 6.11289 13.5843 5.99561C13.9075 5.87833 14.2538 5.81797 14.6036 5.81797H17.2767V13.2221L13.7317 15.4131L13.6743 15.4634C13.6247 15.5013 13.5798 15.5435 13.5401 15.5894C13.4252 15.7174 13.3553 15.872 13.3389 16.0343C13.3389 16.0343 13.3389 16.0763 13.3389 16.1014V29.3902C13.3389 29.6129 13.4399 29.8264 13.6195 29.9838C13.7992 30.1412 14.0429 30.2297 14.297 30.2297H15.8396L13.1569 31.8499C12.9623 31.9472 12.8054 32.0934 12.7066 32.2696L11.9592 33.6463L11.9401 8.15169ZM15.2551 28.5424V16.9241H57.8523V28.5424H15.2551ZM26.8194 9.36892H66.2836V10.4099H66.1782L58.4559 15.2452H17.3438L26.8194 9.36892ZM59.7877 16.5715L66.2836 12.5589V23.8497L59.7877 27.8372V16.5715ZM26.5128 7.68998C26.3142 7.68866 26.12 7.74146 25.9571 7.84108L19.2504 12.0384V5.82636H63.6201C64.2345 5.82501 64.8305 6.00981 65.3072 6.34945C65.7839 6.68909 66.1119 7.16268 66.2357 7.68998H26.5128ZM8.56757 34.5529C8.61791 34.0364 8.89636 33.5575 9.34363 33.2182C9.54184 33.0486 9.76401 32.9019 10.0047 32.7817V36.2403C9.63269 36.0864 9.30809 35.8568 9.05806 35.5705C8.80804 35.2843 8.63986 34.9498 8.56757 34.5949V34.5529ZM3.45131 53.1388L14.1725 33.4952H58.935L69.6274 53.1388H3.45131ZM71.4765 52.719L60.8608 33.0839L66.2836 29.726V41.6464C66.2836 41.8691 66.3846 42.0826 66.5642 42.24C66.7439 42.3975 66.9876 42.4859 67.2417 42.4859H67.3088C67.5074 42.4872 67.7016 42.4344 67.8645 42.3348L74.7532 38.0787C74.8815 38.0008 74.9861 37.8965 75.0579 37.7751C75.1297 37.6537 75.1665 37.5187 75.1652 37.3819V34.385L84.0468 44.9875L71.4765 52.719Z" fill="#444242"/>
</svg>
