<svg width="57" height="71" viewBox="0 0 57 71" fill="none" xmlns="http://www.w3.org/2000/svg">
<path d="M47.4787 23.7698C46.8552 19.1157 44.5626 14.8342 41.0232 11.7136C37.4513 8.56454 32.8592 6.83032 28.0925 6.83032C23.3267 6.83032 18.7352 8.56399 15.1637 11.7121C11.6245 14.8316 9.33155 19.1122 8.707 23.7651C8.63159 24.3267 9.02584 24.8433 9.58758 24.9187C10.1482 24.9951 10.6658 24.5999 10.7412 24.0381C11.9009 15.3981 19.3603 8.88284 28.0925 8.88284C36.8268 8.88284 44.2865 15.4 45.4444 24.0424C45.5135 24.5579 45.954 24.9324 46.4604 24.9324C46.5058 24.9324 46.5516 24.9294 46.5979 24.9232C47.1596 24.848 47.554 24.3315 47.4787 23.7698Z" fill="url(#paint0_linear)"/>
<path d="M46.6115 27.6722C46.0482 27.6027 45.5366 28.0021 45.4669 28.5646C44.3849 37.3064 36.9156 43.8986 28.0926 43.8986C19.2631 43.8986 11.7931 37.3011 10.7167 28.5521C10.6475 27.9897 10.1364 27.5896 9.57285 27.6589C9.01028 27.7282 8.61043 28.2403 8.67967 28.8028C9.88252 38.5789 18.2282 45.9511 28.0927 45.9511C37.9498 45.9511 46.2948 38.5849 47.5038 28.8168C47.5735 28.2542 47.1739 27.7419 46.6115 27.6722Z" fill="url(#paint1_linear)"/>
<path d="M34.0312 32.8628H31.7308V15.2593C31.7308 14.5301 31.1376 13.9369 30.4084 13.9369H26.9479C26.6374 13.9369 26.3354 14.0468 26.0978 14.2463L19.8107 19.5224C19.2621 19.9829 19.1778 20.7855 19.6188 21.3497L21.6808 23.9886C21.8995 24.2683 22.2273 24.4507 22.5803 24.489C22.9336 24.5273 23.2925 24.4194 23.5661 24.1929L24.9987 23.0067V32.8626H22.0945V32.8628C21.3652 32.8628 20.772 33.4561 20.772 34.1852V37.3236C20.772 38.0528 21.3652 38.6461 22.0945 38.6461H34.0312C34.7604 38.6461 35.3536 38.0527 35.3536 37.3236V34.1852C35.3536 33.456 34.7604 32.8628 34.0312 32.8628ZM33.3013 36.5938H22.8247V34.9154H25.7289C26.4581 34.9154 27.0513 34.3222 27.0513 33.593V21.4547C27.0512 20.9368 26.7603 20.4783 26.2917 20.258C25.823 20.0375 25.2844 20.1057 24.8854 20.436L22.8356 22.1331L21.6701 20.6417L27.2136 15.9895H29.6785V33.593C29.6785 34.3222 30.2717 34.9154 31.0009 34.9154H33.3013V36.5938Z" fill="url(#paint2_linear)"/>
<path d="M55.9243 58.7196L46.6777 44.2562C47.7186 44.0405 48.657 43.4526 49.3034 42.5968C50.0485 41.6102 50.3457 40.3471 50.1187 39.1318C49.9265 38.103 50.4467 37.0585 51.3835 36.5917C52.4902 36.0405 53.3189 35.0422 53.6573 33.853C53.9956 32.6639 53.8166 31.3788 53.1659 30.3274C52.6151 29.4375 52.7228 28.2757 53.4277 27.5021C54.2604 26.5883 54.6727 25.3581 54.5586 24.127C54.4444 22.8958 53.8133 21.7624 52.8267 21.017C51.9915 20.3861 51.6723 19.2639 52.0502 18.2878C52.4966 17.1347 52.4365 15.8388 51.8855 14.7319C51.3344 13.6251 50.3362 12.7962 49.1471 12.4576C48.1405 12.1709 47.4372 11.2398 47.4371 10.1932C47.4368 8.95682 46.9126 7.76998 45.9989 6.93701C45.0851 6.10404 43.8548 5.69173 42.6239 5.80545C41.5814 5.90206 40.5897 5.2875 40.2113 4.31167C39.7644 3.15876 38.8469 2.2415 37.694 1.79484C36.541 1.34832 35.245 1.40798 34.1382 1.95892C33.2012 2.42514 32.0541 2.21084 31.3489 1.43754C30.516 0.523974 29.329 0 28.0926 0C26.8562 0 25.6694 0.523974 24.8361 1.4374C24.131 2.21057 22.9837 2.42514 22.0468 1.95878C20.9399 1.40785 19.644 1.34818 18.4911 1.7947C17.3382 2.24136 16.4207 3.15862 15.9737 4.31153C15.5955 5.28736 14.6021 5.90165 13.5613 5.80532C12.3299 5.69146 11.1 6.10377 10.1863 6.93687C9.27264 7.76984 8.74839 8.95669 8.74812 10.1931C8.74798 11.2396 8.04474 12.1709 7.03812 12.4574C5.84895 12.796 4.85081 13.625 4.29974 14.7318C3.74867 15.8385 3.6886 17.1346 4.13498 18.2876C4.51281 19.2636 4.19355 20.386 3.35853 21.0168C2.37203 21.7622 1.74077 22.8957 1.62664 24.1269C1.51265 25.3579 1.92482 26.5882 2.75751 27.502C3.4624 28.2756 3.57009 29.4374 3.0193 30.3274C2.3686 31.3788 2.18961 32.6639 2.52789 33.853C2.8663 35.0422 3.69503 36.0405 4.80168 36.5917C5.73852 37.0585 6.25866 38.103 6.06653 39.1318C5.83951 40.3472 6.13673 41.6102 6.88184 42.5968C7.52815 43.4525 8.46663 44.0405 9.50746 44.2562L0.26094 58.7196C-0.0793902 59.252 -0.0873271 59.9185 0.24014 60.4589C0.567606 60.9993 1.16329 61.3003 1.79153 61.2452L10.8161 60.4511L13.8832 68.9755C14.0972 69.57 14.6201 69.9832 15.248 70.0535C15.3109 70.0605 15.3734 70.064 15.4355 70.064C15.9937 70.064 16.5115 69.7837 16.8178 69.3047L28.0926 51.6686L39.3673 69.3044C39.6735 69.7835 40.1912 70.0638 40.7495 70.0638C40.8117 70.0638 40.8743 70.0604 40.9371 70.0532C41.5651 69.9828 42.088 69.5698 42.302 68.975L45.3692 60.4506L54.3937 61.2448C55.0233 61.2999 55.6177 60.9988 55.9452 60.4586C56.2725 59.9183 56.2646 59.2519 55.9243 58.7196ZM2.43593 59.1279L11.4509 45.0266C11.7717 45.3527 12.0005 45.7709 12.0885 46.2408C12.2542 47.1265 12.6896 47.9342 13.3201 48.5598L6.90004 58.735L2.43593 59.1279ZM13.031 60.5445L12.6412 59.4609C12.3884 58.7584 11.6926 58.3129 10.9486 58.3788L9.46955 58.509L15.0748 49.625C15.8955 49.8876 16.7844 49.9086 17.626 49.6693C18.3362 49.4673 19.0861 49.6189 19.6602 50.0375L13.031 60.5445ZM15.5343 67.5018L13.9125 62.994L21.0713 51.6476C21.6683 52.1843 22.4065 52.5559 23.2086 52.7058C23.8139 52.8189 24.4311 52.8019 25.0199 52.6645L15.5343 67.5018ZM28.7321 49.416C28.6664 49.4015 28.5993 49.3937 28.532 49.3922C28.3859 49.3777 28.2394 49.3678 28.0926 49.3678C27.9459 49.3678 27.7996 49.3777 27.6535 49.3922C27.5857 49.3936 27.5185 49.4015 27.4526 49.416C26.7361 49.52 26.0402 49.7978 25.4371 50.2531C24.9022 50.6568 24.2446 50.8111 23.5857 50.6882C22.9268 50.5651 22.3695 50.1834 22.0165 49.6135C21.9418 49.4929 21.8603 49.3782 21.7755 49.267C21.7625 49.25 21.7493 49.2332 21.7351 49.217C20.6432 47.8281 18.7909 47.2042 17.0644 47.695C16.4197 47.8784 15.7507 47.7851 15.1807 47.4322C14.6108 47.0793 14.229 46.522 14.1057 45.8631C13.8428 44.4584 12.9112 43.2981 11.6699 42.7015C11.6064 42.6644 11.5407 42.6348 11.4734 42.6127C11.068 42.4418 10.6342 42.3274 10.181 42.2854C9.51362 42.2234 8.92355 41.8947 8.51959 41.3597C8.11562 40.8248 7.96086 40.1673 8.08401 39.5082C8.4435 37.5827 7.47013 35.6279 5.71676 34.7544C5.11683 34.4556 4.68537 33.9358 4.50186 33.2912C4.31849 32.6464 4.41168 31.9773 4.76446 31.4074C5.79544 29.7419 5.59387 27.5673 4.27443 26.1193C3.82284 25.624 3.60841 24.9834 3.67012 24.316C3.73198 23.6485 4.06054 23.0584 4.59546 22.6543C6.15835 21.4735 6.75608 19.3731 6.04874 17.5464C5.80666 16.9213 5.838 16.2466 6.13687 15.6466C6.4356 15.0465 6.95519 14.6149 7.6 14.4314C9.48392 13.8948 10.7999 12.1521 10.8004 10.1933C10.8005 9.52294 11.0734 8.90523 11.5687 8.45351C12.0641 8.00193 12.7045 7.78695 13.3721 7.84894C15.3233 8.02971 17.1792 6.87967 17.8872 5.05322C18.1296 4.42826 18.6073 3.95054 19.2324 3.70846C19.8574 3.46638 20.5323 3.49745 21.1322 3.79618C22.886 4.66883 25.0325 4.2676 26.3525 2.82035C26.8042 2.32511 27.4221 2.05238 28.0925 2.05238C28.7629 2.05238 29.3807 2.32511 29.8324 2.82035C31.1523 4.2676 33.2991 4.66883 35.0527 3.79618C35.6528 3.49758 36.3274 3.46638 36.9525 3.70846C37.5776 3.95054 38.0554 4.42826 38.2976 5.05322C39.0056 6.87954 40.8612 8.02943 42.8129 7.84894C43.48 7.78695 44.1205 8.00193 44.6161 8.45351C45.1114 8.90523 45.3843 9.52294 45.3844 10.1933C45.3847 12.1521 46.7007 13.8948 48.5848 14.4314C49.2295 14.6149 49.7491 15.0465 50.0478 15.6466C50.3466 16.2466 50.3778 16.9213 50.1358 17.5464C49.4284 19.3731 50.0262 21.4735 51.5891 22.6543C52.124 23.0584 52.4525 23.6485 52.5144 24.316C52.5762 24.9835 52.3617 25.624 51.9101 26.1193C50.5906 27.5673 50.3892 29.7417 51.42 31.4072C51.7728 31.9773 51.866 32.6462 51.6825 33.291C51.4991 33.9358 51.0677 34.4554 50.4676 34.7543C48.7144 35.6278 47.741 37.5827 48.1005 39.5081C48.2235 40.1671 48.0689 40.8245 47.6649 41.3596C47.261 41.8945 46.6709 42.2232 46.0034 42.2852C45.5497 42.3274 45.1157 42.4419 44.7099 42.6131C44.6431 42.6351 44.5779 42.6645 44.5149 42.7012C43.2735 43.2977 42.3416 44.4581 42.0787 45.863C41.9554 46.5219 41.5736 47.0791 41.0037 47.432C40.4337 47.785 39.7645 47.8781 39.12 47.695C37.393 47.2039 35.5404 47.8282 34.4487 49.2177C34.435 49.2333 34.4224 49.2496 34.4098 49.2659C34.3247 49.3774 34.243 49.4924 34.168 49.6133C33.8151 50.1833 33.2578 50.5649 32.5989 50.6881C31.9402 50.811 31.2824 50.6568 30.7474 50.2529C30.1446 49.7977 29.4489 49.52 28.7321 49.416ZM40.6509 67.5018L31.1642 52.6626C31.4932 52.7395 31.8305 52.7804 32.17 52.7804C32.4387 52.7804 32.7089 52.7558 32.9765 52.7058C33.7787 52.5559 34.5167 52.1845 35.1138 51.6478L42.2727 62.9944L40.6509 67.5018ZM45.2366 58.3788C44.4919 58.3133 43.7968 58.7583 43.544 59.461L43.154 60.5451L36.5248 50.0379C37.099 49.6192 37.8489 49.4674 38.5594 49.6696C39.4007 49.9088 40.2896 49.8877 41.1103 49.6252L46.7152 58.509L45.2366 58.3788ZM49.2847 58.735L42.865 48.56C43.4956 47.9345 43.931 47.1266 44.0969 46.2408C44.1849 45.7709 44.4135 45.3527 44.7343 45.0267L53.7493 59.1279L49.2847 58.735Z" fill="url(#paint3_linear)"/>
<defs>
<linearGradient id="paint0_linear" x1="8.69775" y1="6.83032" x2="22.5716" y2="36.56" gradientUnits="userSpaceOnUse">
<stop stop-color="#E6A519"/>
<stop offset="1" stop-color="#E05B19"/>
</linearGradient>
<linearGradient id="paint1_linear" x1="8.67187" y1="27.6511" x2="22.7837" y2="57.6021" gradientUnits="userSpaceOnUse">
<stop stop-color="#E6A519"/>
<stop offset="1" stop-color="#E05B19"/>
</linearGradient>
<linearGradient id="paint2_linear" x1="19.3364" y1="13.9369" x2="41.8927" y2="28.5585" gradientUnits="userSpaceOnUse">
<stop stop-color="#E6A519"/>
<stop offset="1" stop-color="#E05B19"/>
</linearGradient>
<linearGradient id="paint3_linear" x1="0" y1="0" x2="68.3908" y2="54.8434" gradientUnits="userSpaceOnUse">
<stop stop-color="#E6A519"/>
<stop offset="1" stop-color="#E05B19"/>
</linearGradient>
</defs>
</svg>
