<svg width="35" height="33" viewBox="0 0 35 33" fill="none" xmlns="http://www.w3.org/2000/svg">
<path d="M9.66568 23.3948H9.66705C9.6682 23.3948 9.66934 23.3945 9.67049 23.3945H25.6055C25.9978 23.3945 26.3427 23.1343 26.4505 22.7571L29.9661 10.4524C30.0419 10.1871 29.9888 9.90195 29.8228 9.68176C29.6567 9.46158 29.3969 9.33203 29.1211 9.33203H7.6387L7.01042 6.50465C6.92093 6.10251 6.56433 5.81641 6.15234 5.81641H0.878906C0.393448 5.81641 0 6.20985 0 6.69531C0 7.18077 0.393448 7.57422 0.878906 7.57422H5.44739C5.55862 8.07524 8.45398 21.1046 8.62061 21.8542C7.68654 22.2602 7.03125 23.1915 7.03125 24.2734C7.03125 25.7273 8.21411 26.9102 9.66797 26.9102H25.6055C26.0909 26.9102 26.4844 26.5167 26.4844 26.0312C26.4844 25.5458 26.0909 25.1523 25.6055 25.1523H9.66797C9.18343 25.1523 8.78906 24.758 8.78906 24.2734C8.78906 23.7896 9.18205 23.3959 9.66568 23.3948V23.3948ZM27.9559 11.0898L24.9424 21.6367H10.3729L8.02917 11.0898H27.9559Z" fill="url(#paint0_linear)"/>
<path d="M8.78906 29.5469C8.78906 31.0007 9.97192 32.1836 11.4258 32.1836C12.8796 32.1836 14.0625 31.0007 14.0625 29.5469C14.0625 28.093 12.8796 26.9102 11.4258 26.9102C9.97192 26.9102 8.78906 28.093 8.78906 29.5469ZM11.4258 28.668C11.9103 28.668 12.3047 29.0623 12.3047 29.5469C12.3047 30.0314 11.9103 30.4258 11.4258 30.4258C10.9412 30.4258 10.5469 30.0314 10.5469 29.5469C10.5469 29.0623 10.9412 28.668 11.4258 28.668Z" fill="url(#paint1_linear)"/>
<path d="M21.2109 29.5469C21.2109 31.0007 22.3938 32.1836 23.8477 32.1836C25.3015 32.1836 26.4844 31.0007 26.4844 29.5469C26.4844 28.093 25.3015 26.9102 23.8477 26.9102C22.3938 26.9102 21.2109 28.093 21.2109 29.5469ZM23.8477 28.668C24.3322 28.668 24.7266 29.0623 24.7266 29.5469C24.7266 30.0314 24.3322 30.4258 23.8477 30.4258C23.3631 30.4258 22.9688 30.0314 22.9688 29.5469C22.9688 29.0623 23.3631 28.668 23.8477 28.668Z" fill="url(#paint2_linear)"/>
<circle cx="26.5" cy="8.5" r="8.5" fill="#444242"/>
<path d="M26.768 4.3C25.648 4.3 24.864 4.684 24.416 5.452C23.968 6.22 23.744 7.284 23.744 8.644C23.744 10.004 23.968 11.072 24.416 11.848C24.864 12.616 25.648 13 26.768 13C27.88 13 28.66 12.616 29.108 11.848C29.556 11.072 29.78 10.004 29.78 8.644C29.78 7.284 29.556 6.22 29.108 5.452C28.66 4.684 27.88 4.3 26.768 4.3ZM26.768 5.296C27.304 5.296 27.712 5.444 27.992 5.74C28.28 6.028 28.468 6.412 28.556 6.892C28.652 7.372 28.7 7.956 28.7 8.644C28.7 9.34 28.652 9.928 28.556 10.408C28.468 10.888 28.28 11.276 27.992 11.572C27.712 11.86 27.304 12.004 26.768 12.004C26.224 12.004 25.808 11.86 25.52 11.572C25.24 11.276 25.052 10.888 24.956 10.408C24.868 9.928 24.824 9.34 24.824 8.644C24.824 7.956 24.868 7.372 24.956 6.892C25.052 6.412 25.24 6.028 25.52 5.74C25.808 5.444 26.224 5.296 26.768 5.296Z" fill="#EDF2F4"/>
<defs>
<linearGradient id="paint0_linear" x1="0" y1="5.81641" x2="19.8497" y2="34.0471" gradientUnits="userSpaceOnUse">
<stop stop-color="#E6A519"/>
<stop offset="1" stop-color="#E05B19"/>
</linearGradient>
<linearGradient id="paint1_linear" x1="8.78906" y1="26.9102" x2="14.0625" y2="32.1836" gradientUnits="userSpaceOnUse">
<stop stop-color="#E6A519"/>
<stop offset="1" stop-color="#E05B19"/>
</linearGradient>
<linearGradient id="paint2_linear" x1="21.2109" y1="26.9102" x2="26.4844" y2="32.1836" gradientUnits="userSpaceOnUse">
<stop stop-color="#E6A519"/>
<stop offset="1" stop-color="#E05B19"/>
</linearGradient>
</defs>
</svg>
