<svg width="95" height="70" viewBox="0 0 95 70" fill="none" xmlns="http://www.w3.org/2000/svg">
<path d="M83.7246 31.3596C80.4955 29.7453 74.4412 29.7266 74.185 29.7266C73.4173 29.7266 72.7949 30.349 72.7949 31.1167C72.7949 31.8844 73.4173 32.5068 74.185 32.5068C75.7473 32.5069 80.2833 32.7475 82.4813 33.8464C82.6809 33.9463 82.893 33.9934 83.1019 33.9934C83.6118 33.9934 84.1027 33.7117 84.3463 33.2248C84.6897 32.5381 84.4113 31.7031 83.7246 31.3596Z" fill="url(#paint0_linear)"/>
<path d="M90.6553 51.151L84.9141 49.5107C84.6663 49.4399 84.4932 49.2105 84.4932 48.9526V47.0363C84.9603 46.7127 85.4059 46.3506 85.8223 45.9463C87.8408 43.9876 88.9523 41.3603 88.9523 38.5482V35.9039L89.5074 34.7938C90.1166 33.5752 90.4386 32.2108 90.4386 30.8485V23.6849C90.4386 22.9172 89.8162 22.2948 89.0485 22.2948H75.6715C70.8072 22.2948 66.8497 26.2523 66.8497 31.1166V31.1994C66.8497 32.3322 67.1175 33.4667 67.6241 34.4799L68.336 35.9037V38.1742C68.336 41.7725 70.1092 45.0011 72.7951 46.9439L72.7954 48.9523C72.7954 49.262 72.7954 49.3902 71.6476 49.7183L68.8463 50.5186L60.7427 47.572C60.7718 47.1896 60.6428 46.8008 60.3639 46.5077L57.7744 43.7872V39.2203C58.0481 38.9947 58.318 38.763 58.5795 38.518C61.8463 35.4561 63.7198 31.133 63.7198 26.6575V23.0102C64.7062 20.8637 65.2061 18.5923 65.2061 16.253V1.3901C65.2061 0.622394 64.5837 0 63.816 0H43.0073C35.6842 0 29.7266 5.95778 29.7266 13.2806V16.2534C29.7266 18.5927 30.2265 20.8641 31.2129 23.0106V26.1487C31.2129 31.3451 33.5235 36.0266 37.1583 39.113V43.7874L34.5688 46.5079C34.2899 46.801 34.1609 47.1898 34.19 47.5722L25.6371 50.6821C25.0173 50.9075 24.4415 51.2128 23.9186 51.5825L22.5756 50.911C26.5735 49.1708 27.84 46.7233 27.9008 46.6017C28.0965 46.2104 28.0965 45.7497 27.9008 45.3584C26.8986 43.3541 26.7772 39.6803 26.6797 36.7285C26.6473 35.7458 26.6165 34.8174 26.5578 33.9907C26.0838 27.3231 21.015 22.2948 14.7669 22.2948C8.5189 22.2948 3.44986 27.3229 2.97611 33.9907C2.91736 34.8176 2.88659 35.746 2.85415 36.7288C2.75666 39.6805 2.63507 43.3539 1.63309 45.3582C1.43736 45.7495 1.43736 46.2103 1.63309 46.6015C1.69388 46.7231 2.95776 49.1656 6.96366 50.9079L3.23319 52.773C1.23886 53.7709 0 55.7754 0 58.005V68.2748C0 69.0425 0.622394 69.6649 1.3901 69.6649C2.15781 69.6649 2.7802 69.0425 2.7802 68.2748V58.005C2.7802 56.8351 3.43021 55.7832 4.47649 55.26L9.12183 52.9374L10.7377 54.473C11.8676 55.5467 13.317 56.0833 14.7669 56.0833C16.2165 56.0833 17.6667 55.5463 18.7962 54.473L20.4119 52.9376L21.9265 53.6949C21.2133 54.8361 20.8085 56.1743 20.8085 57.5761V68.2752C20.8085 69.0429 21.4309 69.6653 22.1986 69.6653C22.9663 69.6653 23.5887 69.0429 23.5887 68.2752V57.5761C23.5887 55.6678 24.7936 53.9474 26.5872 53.2951L35.6047 50.0162L39.3585 55.6472C39.8384 56.3671 40.6074 56.8288 41.4683 56.914C41.5644 56.9235 41.6598 56.9281 41.7551 56.9281C42.5146 56.9281 43.2421 56.6291 43.7859 56.0855L46.0761 53.7954V68.2754C46.0761 69.0431 46.6984 69.6655 47.4662 69.6655C48.2339 69.6655 48.8563 69.0431 48.8563 68.2754V53.7954L51.1464 56.0855C51.69 56.6293 52.4175 56.9283 53.1772 56.9283C53.2723 56.9283 53.368 56.9237 53.4638 56.9142C54.3249 56.8289 55.0939 56.3672 55.5738 55.6474L59.3278 50.0165L68.3451 53.2955C70.1385 53.9477 71.3436 55.6681 71.3436 57.5765V68.2756C71.3436 69.0433 71.966 69.6657 72.7337 69.6657C73.5014 69.6657 74.1238 69.0433 74.1238 68.2756V57.5765C74.1238 55.6437 73.3559 53.831 72.0678 52.4904L72.4112 52.3923C72.7576 52.2933 73.2303 52.1578 73.7048 51.9252L77.254 55.4744V68.2756C77.254 69.0433 77.8764 69.6657 78.6441 69.6657C79.4118 69.6657 80.0342 69.0433 80.0342 68.2756V55.4744L83.5587 51.9499C83.7461 52.0452 83.9429 52.1256 84.1501 52.1847L89.8914 53.825C91.2018 54.1994 92.1173 55.4129 92.1173 56.7759V68.2756C92.1173 69.0433 92.7397 69.6657 93.5074 69.6657C94.2751 69.6657 94.8975 69.0433 94.8975 68.2756V56.7759C94.8975 54.1778 93.153 51.8648 90.6553 51.151ZM8.91795 48.6958C6.31773 47.7601 5.01344 46.5127 4.45666 45.8316C4.83625 44.8392 5.08239 43.7027 5.24902 42.5029C6.01561 44.341 7.29951 45.9102 8.91795 47.0297V48.6958ZM16.8814 52.4579C15.6957 53.5845 13.8383 53.5843 12.6531 52.4577L11.3603 51.2293C11.5784 50.8206 11.6983 50.3572 11.6983 49.8718V48.3901C12.6681 48.6932 13.699 48.8566 14.7673 48.8566C15.8343 48.8566 16.8647 48.6924 17.8361 48.391L17.8359 49.8716C17.8359 50.3572 17.9556 50.8208 18.174 51.2296L16.8814 52.4579ZM14.7677 46.0764C10.6167 46.0764 7.23982 42.6994 7.23982 38.5486C7.23982 37.7809 6.61743 37.1585 5.84972 37.1585C5.77188 37.1585 5.69589 37.1665 5.62156 37.1789C5.62564 37.0593 5.62953 36.9396 5.63361 36.8211C5.66456 35.8653 5.6944 34.9625 5.74945 34.1881C5.92701 31.6904 6.92511 29.3888 8.55986 27.7069C10.2093 26.0099 12.4138 25.0754 14.7673 25.0754C17.1208 25.0754 19.3252 26.0099 20.9748 27.7069C22.6095 29.3888 23.6076 31.6904 23.7852 34.1881C23.84 34.9623 23.87 35.8649 23.9016 36.8206C23.9043 36.9027 23.9071 36.9859 23.9099 37.0686C22.3975 34.7384 20.0617 33.0212 17.0437 32.0514C14.2556 31.1557 11.8575 31.2111 11.7564 31.2137C11.3923 31.2239 11.0468 31.3762 10.7942 31.6383L8.28611 34.2395C7.75323 34.7922 7.76917 35.6722 8.32188 36.2051C8.87458 36.7379 9.75461 36.7218 10.2875 36.1693L12.3745 34.005C14.1718 34.0928 19.954 34.7653 22.2029 39.7172C21.637 43.3663 18.5006 46.0764 14.7677 46.0764ZM20.6159 48.7004L20.6161 47.0425C22.2333 45.9291 23.519 44.3629 24.2862 42.5109C24.4528 43.7079 24.6987 44.8418 25.0776 45.832C24.524 46.5066 23.2136 47.7651 20.6159 48.7004ZM33.9931 26.1485V22.6996C33.9931 22.4903 33.9459 22.2837 33.8549 22.0952C32.9604 20.2428 32.5068 18.2774 32.5068 16.2534V13.2808C32.5068 7.49078 37.2174 2.78039 43.0073 2.78039H62.4259V16.2536C62.4259 18.2776 61.9723 20.243 61.0778 22.0954C60.9868 22.2839 60.9396 22.4905 60.9396 22.6998V26.6579C60.9396 30.4224 59.4262 33.9142 56.6783 36.4899C56.3352 36.8113 55.9791 37.1127 55.611 37.3935C55.6029 37.3991 55.5951 37.4052 55.5871 37.4109C53.0128 39.3654 49.8597 40.3153 46.5669 40.102C39.5161 39.6455 33.9931 33.5164 33.9931 26.1485ZM41.8201 54.1194C41.8105 54.129 41.7881 54.1518 41.7427 54.147C41.6974 54.1425 41.6796 54.116 41.672 54.1045L37.3488 47.6196L38.74 46.1578L45.2985 50.6408L41.8201 54.1194ZM47.4663 48.7549L39.9385 43.6093V41.0144C41.8863 42.0674 44.0673 42.7259 46.3869 42.8761C46.7533 42.8998 47.1175 42.9115 47.4806 42.9115C50.1387 42.9115 52.6968 42.2761 54.9942 41.07V43.6093L47.4663 48.7549ZM53.2606 54.1049C53.253 54.1164 53.2353 54.1429 53.19 54.1474C53.1446 54.1531 53.1224 54.1292 53.1126 54.1197L49.6342 50.6413L56.1926 46.1582L57.584 47.62L53.2606 54.1049ZM78.6441 52.932L75.4895 49.7776C75.5445 49.5276 75.5756 49.2538 75.5755 48.9519L75.5753 48.3653C76.4507 48.6526 77.3733 48.8231 78.328 48.8516C78.4352 48.855 78.5414 48.8564 78.6481 48.8564C79.7031 48.8564 80.7329 48.6971 81.713 48.3929V48.9526C81.713 49.2299 81.7479 49.5016 81.8135 49.7628L78.6441 52.932ZM83.8862 43.9513C82.4129 45.381 80.4666 46.1361 78.4116 46.0727C74.3889 45.9521 71.1162 42.4088 71.1162 38.1745V35.5758C71.1162 35.3599 71.066 35.1471 70.9694 34.9542L70.1107 33.2367C69.7962 32.6075 69.6299 31.9032 69.6299 31.1996V31.1167C69.6299 27.7853 72.3402 25.0752 75.6715 25.0752H87.6584V30.8487C87.6584 31.7818 87.4378 32.7161 87.0206 33.5507L86.3189 34.9542C86.2223 35.1473 86.1721 35.3599 86.1721 35.5758V38.5484C86.1721 40.602 85.3603 42.5207 83.8862 43.9513Z" fill="url(#paint1_linear)"/>
<path d="M87.562 57.9668C86.7943 57.9668 86.1719 58.5892 86.1719 59.3569V68.2748C86.1719 69.0426 86.7943 69.6649 87.562 69.6649C88.3297 69.6649 88.9521 69.0426 88.9521 68.2748V59.3569C88.9521 58.5894 88.3297 57.9668 87.562 57.9668Z" fill="url(#paint2_linear)"/>
<path d="M7.33541 59.8044C6.56771 59.8044 5.94531 60.4268 5.94531 61.1945V68.275C5.94531 69.0427 6.56771 69.6651 7.33541 69.6651C8.10312 69.6651 8.72551 69.0427 8.72551 68.275V61.1945C8.72551 60.427 8.10312 59.8044 7.33541 59.8044Z" fill="url(#paint3_linear)"/>
<path d="M58.8536 16.757C53.596 11.4995 42.5959 12.5046 38.1101 13.1808C36.6972 13.3937 35.6719 14.5894 35.6719 16.0238V19.2262C35.6719 19.9939 36.2943 20.6163 37.062 20.6163C37.8297 20.6163 38.4521 19.9939 38.4521 19.2262V16.0236C38.4521 15.9763 38.4832 15.9359 38.5247 15.9296C40.3165 15.6596 43.872 15.2429 47.5557 15.4885C51.8906 15.7771 55.0304 16.8653 56.8878 18.7228C57.4307 19.2657 58.3109 19.2657 58.8536 18.7228C59.3964 18.1799 59.3964 17.2997 58.8536 16.757Z" fill="url(#paint4_linear)"/>
<path d="M31.1167 60.9397C30.349 60.9397 29.7266 61.5621 29.7266 62.3298V68.2752C29.7266 69.0429 30.349 69.6653 31.1167 69.6653C31.8844 69.6653 32.5068 69.0429 32.5068 68.2752V62.3298C32.5068 61.5623 31.8844 60.9397 31.1167 60.9397Z" fill="url(#paint5_linear)"/>
<path d="M63.8154 60.9397C63.0477 60.9397 62.4253 61.5621 62.4253 62.3298V68.2752C62.4253 69.0429 63.0477 69.6653 63.8154 69.6653C64.5831 69.6653 65.2055 69.0429 65.2055 68.2752V62.3298C65.2055 61.5623 64.5831 60.9397 63.8154 60.9397Z" fill="url(#paint6_linear)"/>
<defs>
<linearGradient id="paint0_linear" x1="72.7949" y1="29.7266" x2="75.542" y2="37.2583" gradientUnits="userSpaceOnUse">
<stop stop-color="#E6A519"/>
<stop offset="1" stop-color="#E05B19"/>
</linearGradient>
<linearGradient id="paint1_linear" x1="0" y1="0" x2="66.4654" y2="90.5381" gradientUnits="userSpaceOnUse">
<stop stop-color="#E6A519"/>
<stop offset="1" stop-color="#E05B19"/>
</linearGradient>
<linearGradient id="paint2_linear" x1="86.1719" y1="57.9668" x2="91.435" y2="59.2176" gradientUnits="userSpaceOnUse">
<stop stop-color="#E6A519"/>
<stop offset="1" stop-color="#E05B19"/>
</linearGradient>
<linearGradient id="paint3_linear" x1="5.94531" y1="59.8044" x2="11.0962" y2="61.2567" gradientUnits="userSpaceOnUse">
<stop stop-color="#E6A519"/>
<stop offset="1" stop-color="#E05B19"/>
</linearGradient>
<linearGradient id="paint4_linear" x1="35.6719" y1="12.6289" x2="40.5247" y2="26.9605" gradientUnits="userSpaceOnUse">
<stop stop-color="#E6A519"/>
<stop offset="1" stop-color="#E05B19"/>
</linearGradient>
<linearGradient id="paint5_linear" x1="29.7266" y1="60.9397" x2="34.7745" y2="62.5481" gradientUnits="userSpaceOnUse">
<stop stop-color="#E6A519"/>
<stop offset="1" stop-color="#E05B19"/>
</linearGradient>
<linearGradient id="paint6_linear" x1="62.4253" y1="60.9397" x2="67.4732" y2="62.5481" gradientUnits="userSpaceOnUse">
<stop stop-color="#E6A519"/>
<stop offset="1" stop-color="#E05B19"/>
</linearGradient>
</defs>
</svg>
