<svg width="89" height="56" viewBox="0 0 89 56" fill="none" xmlns="http://www.w3.org/2000/svg">
<path d="M86.7503 51.216L84.2939 45.3616H84.2928L82.2056 40.3886L80.6601 36.7059L79.2334 33.3042L76.7802 27.4583L74.3271 21.6133L73.8199 21.774L74.3271 21.6123L72.9586 18.3525L71.3031 14.4067L69.2201 9.44406L69.0388 9.0118L68.8359 8.52973L66.7573 3.57653L65.2561 0H61.3881H59.6732H51.9825H50.8946H46.4891H38.7369H37.649H35.1161H32.9673H24.3754L22.1684 5.25954L19.8469 10.7916L16.893 17.8291H16.8941L16.6739 18.3534L14.5209 23.4842L12.0677 29.3292L9.61569 35.1751L10.1229 35.3368L9.61569 35.1761L8.97246 36.7069L6.4956 42.6092L3.99715 48.5603H3.99823L2.0081 53.3021L0.875977 56H16.5854H16.661H29.818H30.9038H45.3645H58.731H59.8145H70.8239H74.2332H88.7577L86.7503 51.216ZM80.8371 39.8652C80.4529 40.0043 80.0611 40.1443 79.6704 40.2843C79.2646 40.4291 78.8632 40.5747 78.4509 40.7204C77.9372 40.9017 77.4127 41.084 76.8914 41.2654C76.5158 41.3969 76.1467 41.5266 75.7668 41.6582C75.183 41.8602 74.5872 42.0623 73.9936 42.2643C73.6623 42.3771 73.3396 42.4889 73.005 42.6007C72.0801 42.9136 71.1433 43.2256 70.1958 43.5385C69.9778 43.61 69.7544 43.6823 69.5353 43.7537C68.7982 43.9962 68.06 44.2377 67.311 44.4782C66.9268 44.6023 66.5339 44.7263 66.1475 44.8504C65.5486 45.0421 64.9539 45.2328 64.3484 45.4236C63.9405 45.5533 63.525 45.6811 63.1138 45.8098C62.5191 45.9959 61.9255 46.1819 61.3244 46.368C60.9154 46.4949 60.4999 46.6208 60.0876 46.7467C59.5879 46.8999 59.0882 47.053 58.5842 47.2053L57.8989 42.3075C58.4396 42.1318 58.9662 41.957 59.5005 41.7813C60.1167 41.5792 60.7394 41.3772 61.3492 41.1742C61.9849 40.9628 62.6044 40.7523 63.2293 40.5409C63.7754 40.3567 64.329 40.1725 64.8665 39.9883C67.1609 39.2037 69.3863 38.4199 71.5254 37.6428H79.9046L80.8371 39.8652ZM57.7672 41.3481L57.2492 37.6456H68.6892C68.5456 37.6973 68.4064 37.7471 68.2618 37.7988C67.9002 37.9266 67.5333 38.0535 67.1685 38.1813C66.453 38.4322 65.7309 38.6831 65.0003 38.934C64.6582 39.0524 64.315 39.1698 63.9696 39.2882C63.0663 39.5955 62.1533 39.9028 61.2305 40.2101C61.0578 40.2684 60.8884 40.3257 60.7146 40.383C59.7444 40.7053 58.758 41.0267 57.7672 41.3481ZM73.3126 21.9356L75.7657 27.7815L78.2189 33.6274L79.5107 36.7059H74.1091H71.4175H68.9115H57.1153L56.9157 35.2785L56.0976 29.4326L55.2796 23.5876L54.6784 19.2922H61.5521H63.8131H65.6392H72.201L73.3126 21.9356ZM35.3837 23.9719C36.055 23.7239 36.7112 23.4748 37.3727 23.2258C37.7084 23.099 38.0494 22.973 38.3829 22.8471C39.2064 22.5333 40.0137 22.2194 40.8166 21.9046C41.0292 21.8219 41.2494 21.7383 41.4609 21.6556C42.4733 21.2562 43.4705 20.8568 44.4483 20.4584C44.5724 20.4086 44.69 20.3588 44.812 20.308C45.6387 19.9697 46.4578 19.6314 47.2575 19.2941H53.5949L53.9035 21.4968C53.4761 21.6762 53.0444 21.8557 52.6106 22.0352C52.3559 22.1414 52.1044 22.2466 51.8465 22.3519C51.2389 22.6019 50.6172 22.8518 49.9945 23.1008C49.8391 23.1629 49.6891 23.2258 49.5326 23.2878C48.7426 23.6026 47.9396 23.9184 47.1269 24.2341C47.0179 24.2764 46.9068 24.3187 46.7967 24.361C46.0995 24.6316 45.3948 24.9013 44.6803 25.171C44.3889 25.281 44.091 25.3909 43.7986 25.5018C43.2589 25.7038 42.7204 25.9059 42.1721 26.1088C41.8246 26.2366 41.4706 26.3644 41.1188 26.4932C40.6137 26.6774 40.1097 26.8625 39.5981 27.0467C39.2323 27.1782 38.861 27.3098 38.4919 27.4404C37.9782 27.6236 37.4656 27.806 36.9454 27.9883C36.5806 28.1161 36.2115 28.2439 35.8435 28.3717C35.469 28.5023 35.0934 28.632 34.7146 28.7626L35.3837 23.9719ZM35.0815 18.3525H29.2514C29.2666 18.3469 29.2795 18.3412 29.2946 18.3356C30.24 17.9728 31.1682 17.6101 32.0866 17.2465C32.3813 17.129 32.6705 17.0134 32.963 16.8969C33.6321 16.6291 34.2904 16.3631 34.9423 16.0972C35.1009 16.0324 35.2682 15.9666 35.4258 15.9017L35.0815 18.3525ZM35.5348 22.8903L36.0388 19.2922H44.744C44.5853 19.357 44.4321 19.4228 44.2713 19.4877C44.0284 19.5863 43.7835 19.6859 43.5385 19.7855C42.8478 20.0656 42.1484 20.3456 41.4415 20.6256C41.1987 20.7215 40.9591 20.8173 40.7141 20.9132C39.7849 21.2787 38.8438 21.6433 37.8876 22.008C37.8573 22.0192 37.825 22.0305 37.7937 22.0427C37.0522 22.3265 36.2935 22.6084 35.5348 22.8903ZM35.9417 29.348C36.3421 29.2099 36.7468 29.0708 37.1439 28.9317C37.8163 28.6959 38.479 28.46 39.1416 28.2232C39.3866 28.1358 39.6338 28.0484 39.8777 27.9619C40.7141 27.6612 41.5419 27.3596 42.3599 27.0589C42.6848 26.9395 43.001 26.8202 43.3226 26.7009C43.8493 26.5054 44.3792 26.309 44.8972 26.1135C45.2523 25.9792 45.5987 25.8457 45.9506 25.7113C46.4233 25.5309 46.8992 25.3505 47.3665 25.1691C47.7324 25.0272 48.0896 24.8853 48.4512 24.7444C48.8926 24.5705 49.3362 24.3976 49.7722 24.2247C50.1391 24.0791 50.4985 23.9334 50.8601 23.7878C51.2777 23.6196 51.6943 23.4523 52.1044 23.2841C52.4714 23.1337 52.8318 22.9834 53.1945 22.834C53.4761 22.7174 53.7621 22.6009 54.0406 22.4844L54.7194 27.3314C54.3471 27.4752 53.9683 27.6199 53.5905 27.7627C53.2085 27.9084 52.8307 28.055 52.4433 28.2006C51.8929 28.4083 51.3306 28.616 50.7694 28.8246C50.4942 28.9261 50.2244 29.0285 49.9459 29.13C49.0912 29.4448 48.2256 29.7587 47.3493 30.0735C47.3126 30.0876 47.2759 30.0998 47.2381 30.1129C46.3985 30.4136 45.5491 30.7153 44.6889 31.016C44.4396 31.1034 44.1839 31.1908 43.9324 31.2782C43.2805 31.5046 42.6254 31.7321 41.9617 31.9595C41.6519 32.0657 41.3347 32.1718 41.0228 32.278C40.4087 32.4866 39.7946 32.6943 39.1718 32.9029C38.834 33.0148 38.4919 33.1275 38.153 33.2403C37.5433 33.4423 36.9313 33.6453 36.3119 33.8473C35.9654 33.9601 35.6147 34.0729 35.2639 34.1866C34.8106 34.3332 34.3541 34.4807 33.8965 34.6273L34.5678 29.8254C35.0297 29.6656 35.4841 29.5068 35.9417 29.348ZM35.3578 35.1573C35.7442 35.0314 36.137 34.9064 36.5212 34.7814C37.186 34.5653 37.8411 34.3473 38.4962 34.1302C38.82 34.0231 39.1481 33.9159 39.4686 33.8088C40.373 33.5062 41.2699 33.2036 42.156 32.9011C42.5207 32.7761 42.8769 32.6511 43.2384 32.527C43.7932 32.3372 44.3479 32.1465 44.894 31.9557C45.2868 31.8185 45.6721 31.6804 46.0607 31.5441C46.5668 31.3656 47.0741 31.1861 47.5727 31.0085C47.9569 30.8713 48.3325 30.7331 48.7124 30.5969C49.2056 30.4183 49.702 30.2389 50.1877 30.0613C50.5676 29.9222 50.9378 29.7831 51.3123 29.644C51.785 29.4683 52.2598 29.2935 52.7261 29.1168C53.1027 28.9759 53.4707 28.834 53.8431 28.6921C54.1787 28.5643 54.5198 28.4365 54.8522 28.3087L55.5332 33.167C54.9946 33.3596 54.4485 33.5523 53.9014 33.744C53.6672 33.8267 53.4373 33.9094 53.202 33.992C52.4865 34.242 51.7612 34.491 51.0338 34.741C50.873 34.7974 50.7154 34.8519 50.5535 34.9073C49.8197 35.1592 49.0771 35.4082 48.3325 35.6581C48.1652 35.7155 47.999 35.7709 47.8306 35.8282C46.9489 36.1224 46.0596 36.4165 45.167 36.7087H33.603L33.7465 35.6807C34.2893 35.504 34.8214 35.3311 35.3578 35.1573ZM48.2796 36.6815C49.388 36.3103 50.4834 35.9382 51.5702 35.5651C51.922 35.4439 52.2695 35.3236 52.6192 35.2024C53.3909 34.9346 54.155 34.6677 54.9115 34.3999C55.1608 34.3116 55.4209 34.2232 55.6692 34.1349L56.0296 36.7059H48.2105C48.2332 36.6975 48.2569 36.6899 48.2796 36.6815ZM71.8103 18.3525H65.7741C65.7903 18.345 65.8033 18.3375 65.8194 18.3299C66.5857 17.9559 67.3336 17.581 68.0718 17.206C68.2941 17.0923 68.5122 16.9796 68.7323 16.8659C69.286 16.5811 69.831 16.2964 70.3652 16.0117C70.4893 15.9459 70.621 15.8792 70.7451 15.8134L71.8103 18.3525ZM70.3652 14.9113C70.0868 15.0607 69.804 15.211 69.5202 15.3614C69.3086 15.4732 69.1003 15.5851 68.8856 15.6969C68.4798 15.9093 68.0632 16.1216 67.6466 16.334C67.4793 16.4195 67.3164 16.5041 67.148 16.5896C65.9803 17.1779 64.7758 17.7671 63.5401 18.3525H54.55L54.3946 17.2465C54.7345 17.0905 55.0669 16.9335 55.4037 16.7766C55.6853 16.645 55.9703 16.5144 56.2487 16.3838C56.6988 16.1705 57.1391 15.9581 57.5805 15.7457C57.7856 15.6471 57.996 15.5484 58.1989 15.4488C58.8346 15.1387 59.4605 14.8286 60.0757 14.5175C60.2808 14.4142 60.4783 14.3108 60.6822 14.2074C61.0924 13.9988 61.5035 13.7893 61.9039 13.5807C62.163 13.4453 62.4155 13.31 62.6702 13.1747C63.0048 12.998 63.3404 12.8214 63.6674 12.6438C63.9405 12.4962 64.2049 12.3496 64.4725 12.2021C64.7715 12.0377 65.0737 11.8723 65.3662 11.7078C65.6435 11.5518 65.9133 11.3968 66.1842 11.2417C66.4562 11.0867 66.7271 10.9316 66.9926 10.7766C67.2743 10.6131 67.5484 10.4486 67.8236 10.2851C67.9822 10.1902 68.1485 10.0953 68.3049 10.0004L70.3652 14.9113ZM67.9207 9.08603C67.6639 9.24202 67.4038 9.39802 67.1404 9.55401C66.9429 9.67147 66.7497 9.788 66.549 9.90546C66.1929 10.1141 65.827 10.3227 65.4601 10.5322C65.2831 10.6337 65.1104 10.7343 64.9301 10.8358C64.4132 11.1271 63.8833 11.4193 63.3469 11.7116C63.3134 11.7294 63.2811 11.7473 63.2487 11.7651C62.6745 12.0771 62.0896 12.3882 61.4938 12.7001C61.3179 12.7922 61.1366 12.8834 60.9585 12.9755C60.5355 13.1944 60.1124 13.4134 59.6785 13.6323C59.453 13.747 59.2199 13.8607 58.9911 13.9744C58.5971 14.1708 58.2043 14.3681 57.8007 14.5645C57.5514 14.6867 57.2956 14.8079 57.0441 14.9301C56.6513 15.1199 56.2573 15.3088 55.858 15.4977C55.6012 15.6189 55.3389 15.741 55.0777 15.8623C54.8047 15.9901 54.5284 16.1169 54.2521 16.2447L53.5722 11.3883C53.896 11.2239 54.2089 11.0594 54.5273 10.895C54.7615 10.7737 54.9989 10.6535 55.2288 10.5322C55.6821 10.2945 56.1257 10.0568 56.5671 9.81807C56.7031 9.74477 56.8445 9.67147 56.9794 9.59817C57.5481 9.28807 58.1082 8.97797 58.6576 8.66786C58.84 8.56544 59.0137 8.46301 59.1929 8.36058C59.562 8.15008 59.93 7.93959 60.2894 7.7291C60.4966 7.60693 60.6984 7.48571 60.9024 7.36355C61.224 7.17185 61.5467 6.98015 61.8597 6.78845C62.0702 6.65971 62.2752 6.53191 62.4813 6.40317C62.7781 6.21805 63.076 6.03292 63.3663 5.84874C63.5714 5.71812 63.7721 5.5875 63.9739 5.45594C64.2556 5.27364 64.5362 5.0904 64.8093 4.90809C65.0079 4.77653 65.201 4.64497 65.3953 4.51436C65.5507 4.40911 65.7115 4.30292 65.8648 4.19767L67.9207 9.08603ZM58.8583 1.75537C59.263 1.48286 59.6688 1.21034 60.0552 0.939708H64.5017L65.4762 3.2636C65.2647 3.41114 65.0489 3.55867 64.8309 3.70715C64.6463 3.83213 64.4661 3.95711 64.2783 4.08209C63.9836 4.27943 63.6771 4.47677 63.3728 4.67505C63.2034 4.78593 63.0361 4.89682 62.8634 5.0077C62.3875 5.31217 61.9007 5.61663 61.4032 5.9211C61.3525 5.95211 61.2996 5.98312 61.2488 6.01507C60.7902 6.2951 60.325 6.57514 59.8491 6.85517C59.6602 6.96605 59.4649 7.07788 59.2728 7.18876C58.9328 7.3861 58.5928 7.58344 58.2442 7.78172C58.0187 7.90952 57.7866 8.03732 57.5568 8.16512C57.2319 8.34648 56.906 8.52785 56.5746 8.70921C56.3275 8.84453 56.075 8.97891 55.8246 9.11329C55.5019 9.28619 55.1792 9.46004 54.8522 9.632C54.5867 9.77202 54.3158 9.91204 54.046 10.0521C53.8431 10.1573 53.6369 10.2625 53.4319 10.3678L52.7541 5.52642C53.1362 5.30935 53.5031 5.0904 53.8765 4.87238C54.128 4.72485 54.387 4.57826 54.6331 4.43166C55.1263 4.13753 55.6044 3.8434 56.0804 3.54834C56.2401 3.44873 56.4095 3.35006 56.5671 3.25045C57.1941 2.85671 57.8039 2.46297 58.3975 2.06924C58.5572 1.96305 58.7029 1.85968 58.8583 1.75537ZM58.3036 0.939708C58.2345 0.986693 58.1676 1.03368 58.0975 1.08066C57.328 1.59656 56.5315 2.1134 55.7037 2.63024C55.5429 2.72985 55.3745 2.8304 55.2116 2.93095C54.5003 3.36791 53.7686 3.80488 53.0196 4.2409C52.8836 4.31984 52.7477 4.39971 52.6095 4.47865L52.2415 1.85874L52.1141 0.939708H58.3036ZM37.9901 5.34882L38.6052 0.939708H46.4891H51.0263L51.1385 1.74598L51.3813 3.4788L52.1983 9.32378L53.0164 15.1688L53.3229 17.3583L53.3725 17.7135L53.4621 18.3525H49.4786H47.0072H45.1692H36.1716L36.3442 17.1121L36.7349 14.3183L37.172 11.1947H37.1709H37.172L37.9901 5.34882ZM25.1309 0.939708H31.071C30.9825 0.982934 30.8973 1.02616 30.8088 1.06939C29.7803 1.57025 28.7258 2.07206 27.6412 2.57386C27.4394 2.66783 27.2311 2.75992 27.0282 2.85295C26.1054 3.27676 25.1622 3.69963 24.2027 4.12156C24.0376 4.19392 23.8703 4.26721 23.7041 4.33957L25.1309 0.939708ZM23.1624 5.63073C23.7721 5.36761 24.3679 5.10355 24.9658 4.83949C25.2323 4.72203 25.5065 4.60457 25.7698 4.4871C26.4951 4.16384 27.202 3.83965 27.9056 3.51545C28.0675 3.44027 28.2359 3.36603 28.3967 3.2918C29.2493 2.89524 30.0846 2.49868 30.9038 2.10307C31.2437 1.93862 31.5675 1.77417 31.9021 1.61066C32.3564 1.38701 32.8173 1.16336 33.2587 0.940647H37.5195L37.4947 1.11919L37.213 3.13111C36.8223 3.3275 36.423 3.52484 36.0215 3.72124C35.8348 3.81333 35.6524 3.90449 35.4636 3.99658C34.8333 4.30386 34.1922 4.61115 33.5404 4.91843C33.3752 4.99643 33.2036 5.07442 33.0374 5.15242C32.5431 5.38359 32.0467 5.61569 31.5394 5.84686C31.2826 5.96433 31.0192 6.08179 30.7581 6.19925C30.3328 6.39189 29.9087 6.58359 29.4748 6.77623C29.1824 6.90685 28.8813 7.03653 28.5845 7.16715C28.1754 7.34569 27.7664 7.52518 27.3509 7.70466C27.0336 7.84186 26.7109 7.97812 26.3904 8.11438C25.9824 8.28822 25.5745 8.46113 25.16 8.63403C24.8309 8.77123 24.4985 8.90937 24.166 9.04657C23.7451 9.22041 23.3242 9.39426 22.8979 9.56716C22.5666 9.70248 22.232 9.8378 21.8964 9.97218C21.6741 10.0615 21.4485 10.1507 21.2251 10.24L23.1624 5.63073ZM20.7049 11.4842C21.2294 11.2765 21.7453 11.0688 22.2623 10.8611C22.4878 10.77 22.7188 10.6798 22.9433 10.5886C23.6987 10.2823 24.4456 9.97594 25.1816 9.66865C25.4676 9.54931 25.7461 9.42997 26.0288 9.31062C26.4886 9.11704 26.9494 8.92441 27.4005 8.73083C27.7027 8.60115 27.9984 8.47146 28.2974 8.34178C28.7205 8.15854 29.1424 7.9753 29.5579 7.793C29.8634 7.65768 30.1634 7.5233 30.4645 7.38892C30.8617 7.21132 31.2599 7.03371 31.6517 6.85611C31.9539 6.71891 32.2517 6.58077 32.5496 6.44358C32.9306 6.26879 33.3094 6.09307 33.6828 5.91828C33.9785 5.78014 34.2699 5.64106 34.5613 5.50293C34.9261 5.32908 35.2887 5.15524 35.647 4.98233C35.9352 4.84325 36.219 4.70418 36.5029 4.5651C36.6831 4.47677 36.8687 4.38749 37.0479 4.29916L36.396 8.96481C35.9384 9.17249 35.4744 9.38016 35.007 9.58878C34.8257 9.66959 34.6487 9.75041 34.4653 9.83122C33.7594 10.1432 33.0428 10.4552 32.3133 10.7681C32.2485 10.7954 32.1827 10.8236 32.1168 10.8508C31.4563 11.1337 30.7883 11.4165 30.1094 11.6994C29.8731 11.7971 29.6313 11.8958 29.3939 11.9935C28.8769 12.2068 28.36 12.4201 27.8344 12.6334C27.5516 12.7481 27.2635 12.8627 26.9775 12.9774C26.4875 13.1738 25.9964 13.3711 25.4968 13.5675C25.1838 13.6915 24.8643 13.8146 24.5481 13.9387C24.0689 14.1257 23.5876 14.3127 23.1008 14.4997C22.763 14.6294 22.4198 14.76 22.0777 14.8897C21.605 15.0692 21.1323 15.2486 20.6542 15.4281C20.2883 15.5653 19.9192 15.7025 19.5501 15.8388C19.2879 15.9365 19.0224 16.0333 18.758 16.131L20.7049 11.4842ZM18.2496 17.3357C18.9058 17.097 19.5534 16.8574 20.1987 16.6169C20.3563 16.5586 20.5171 16.5003 20.6736 16.4421C21.51 16.1291 22.3378 15.8172 23.1559 15.5042C23.3782 15.4187 23.5951 15.3332 23.8164 15.2486C24.4067 15.0212 24.9971 14.7938 25.5766 14.5655C25.8713 14.4499 26.1594 14.3334 26.453 14.2178C26.9494 14.0214 27.4469 13.824 27.9358 13.6267C28.2499 13.4998 28.5575 13.373 28.8672 13.2461C29.3259 13.0591 29.7835 12.8731 30.2336 12.6861C30.5519 12.5545 30.8638 12.4229 31.1768 12.2914C31.6096 12.11 32.0413 11.9286 32.4654 11.7463C32.7763 11.6138 33.0806 11.4813 33.3871 11.3498C33.8102 11.1665 34.2311 10.9842 34.6466 10.8019C34.9391 10.6741 35.2251 10.5463 35.5132 10.4176C35.7539 10.3105 36 10.2033 36.2374 10.0962L35.5801 14.7976C35.2153 14.9489 34.8419 15.1011 34.4717 15.2524C34.1469 15.3858 33.8264 15.5183 33.4983 15.6508C33.0061 15.8491 32.5021 16.0493 32.0003 16.2485C31.7434 16.3509 31.4898 16.4533 31.2297 16.5558C29.7058 17.1562 28.1409 17.7558 26.5469 18.3534H17.8233L18.2496 17.3357ZM10.6269 35.4975L13.0801 29.6515L15.5332 23.8066L15.0259 23.6449L15.5332 23.8056L17.4273 19.2922H24.0344H26.7681H28.6201H34.9498L34.611 21.7166L34.285 24.0415L34.2354 24.3939L33.7929 27.5626L32.9748 33.4085L32.5129 36.7059H27.3261H24.1261H21.6201H10.1208L10.6269 35.4975ZM9.72577 37.6456H20.8862C20.6715 37.7086 20.4621 37.7725 20.2462 37.8364C19.9559 37.9219 19.6634 38.0074 19.371 38.0929C18.3759 38.3852 17.3701 38.6765 16.3545 38.9697C16.0404 39.0608 15.7274 39.1501 15.4112 39.2413C13.0606 39.9141 10.6539 40.5888 8.20728 41.2607L9.72577 37.6456ZM7.73996 42.3771C8.13928 42.2681 8.52781 42.1581 8.92605 42.0482C9.95781 41.7634 10.9906 41.4796 12.0062 41.1949C12.1703 41.1489 12.33 41.1028 12.494 41.0568C16.2779 39.993 19.9376 38.9293 23.4397 37.8777C23.6966 37.8007 23.9632 37.7227 24.2189 37.6456H32.3834L32.0845 39.7788C31.2718 40.024 30.4494 40.2693 29.6216 40.5155C29.463 40.5625 29.3076 40.6095 29.1489 40.6565C27.0153 41.287 24.8319 41.9194 22.6033 42.5528C22.286 42.643 21.9612 42.7332 21.6417 42.8234C20.8474 43.048 20.0509 43.2735 19.2436 43.4981C18.8378 43.6109 18.4234 43.7237 18.0144 43.8374C17.2837 44.0394 16.5552 44.2414 15.817 44.4435C15.3842 44.5628 14.9439 44.6803 14.509 44.7987C13.7762 44.9979 13.0455 45.1962 12.3052 45.3954C11.8745 45.511 11.4375 45.6266 11.0036 45.7421C10.2535 45.9423 9.50129 46.1434 8.74366 46.3426C8.3098 46.4573 7.87055 46.5719 7.43346 46.6856C6.87333 46.8322 6.31105 46.9797 5.7466 47.1254L7.73996 42.3771ZM5.28469 48.2267C6.3186 47.9599 7.34172 47.692 8.36269 47.4242C8.48788 47.3913 8.61631 47.3585 8.74258 47.3256C11.1461 46.6931 13.5107 46.0588 15.8332 45.4255C16.2725 45.3052 16.7052 45.1849 17.1413 45.0646C17.8536 44.8682 18.5669 44.6728 19.2717 44.4773C19.7617 44.3401 20.243 44.2048 20.7297 44.0676C21.3686 43.889 22.0086 43.7096 22.64 43.531C23.1602 43.3835 23.6718 43.236 24.1887 43.0884C24.7726 42.9202 25.3586 42.7539 25.936 42.5866C26.4638 42.4344 26.984 42.2822 27.5052 42.1299C28.0621 41.9674 28.6201 41.8048 29.1705 41.6422C29.6972 41.4872 30.2152 41.3321 30.7354 41.1771C31.1369 41.0568 31.5438 40.9374 31.9409 40.8181L31.2696 45.6172C30.7397 45.7675 30.2012 45.9179 29.6659 46.0682C29.1284 46.2186 28.5963 46.3689 28.0535 46.5202C27.4912 46.6762 26.917 46.8332 26.3494 46.9901C25.091 47.3359 23.8185 47.6827 22.5321 48.0303C22.1004 48.1469 21.6741 48.2634 21.2391 48.3799C20.5905 48.5538 19.9311 48.7267 19.2771 48.9014C18.7439 49.0424 18.2162 49.1843 17.6787 49.3253C17.07 49.4859 16.4495 49.6466 15.8354 49.8073C15.2375 49.9624 14.6439 50.1184 14.0427 50.2744C13.4707 50.4219 12.8901 50.5694 12.3116 50.7188C11.6501 50.8889 10.9885 51.0581 10.3204 51.2282C9.79916 51.3607 9.27033 51.4932 8.74582 51.6257C8.0033 51.8127 7.26078 51.9997 6.51071 52.1876C6.06498 52.2994 5.61493 52.4103 5.16705 52.5212C4.54432 52.6753 3.91944 52.8294 3.2924 52.9835L5.28469 48.2267ZM29.9476 55.0594H20.3898C23.8056 54.1911 27.121 53.3275 30.308 52.477L29.9476 55.0594ZM30.4505 51.4575C26.0321 52.6396 21.3438 53.8509 16.5077 55.0594H2.41822L2.83157 54.0755C3.69388 53.864 4.54648 53.6526 5.40016 53.4402C5.77358 53.3472 6.15132 53.2551 6.52474 53.1621C7.63636 52.8849 8.73826 52.6067 9.83478 52.3286C10.5859 52.1387 11.3295 51.9489 12.0731 51.7582C12.698 51.5984 13.3272 51.4387 13.9467 51.2789C14.6439 51.0994 15.3303 50.919 16.021 50.7395C16.5401 50.6033 17.0668 50.4679 17.5827 50.3317C18.2712 50.1513 18.949 49.9699 19.6289 49.7895C20.1362 49.6551 20.6456 49.5207 21.1485 49.3863C21.837 49.2022 22.5148 49.018 23.1947 48.8338C23.6772 48.7032 24.1639 48.5735 24.6442 48.4419C25.3273 48.2568 25.9997 48.0698 26.6753 47.8847C27.1394 47.7559 27.6067 47.6291 28.0664 47.5013C28.7377 47.3152 29.3982 47.1292 30.0609 46.9431C30.4127 46.8444 30.7721 46.7448 31.1218 46.6462L30.4505 51.4575ZM45.3645 55.0594H31.0354L31.2189 53.7456L32.037 47.9007L32.854 42.0547L33.4713 37.6456H42.2919H45.3645H47.7745H56.1602L56.5153 40.1847L57.3334 46.0297L58.1514 51.8747L58.5961 55.0603H45.3645V55.0594ZM58.7202 48.1628C59.058 48.0604 59.3904 47.957 59.7282 47.8546C60.3736 47.6582 61.02 47.4609 61.6579 47.2645C62.0615 47.1395 62.4576 47.0145 62.8569 46.8905C63.4656 46.7006 64.0765 46.5118 64.6787 46.322C65.1492 46.1735 65.609 46.0259 66.0741 45.8765C66.7551 45.6595 67.434 45.4424 68.1042 45.2253C68.9093 44.965 69.7112 44.7038 70.5023 44.4435C70.8412 44.3316 71.1725 44.2208 71.5092 44.1089C72.1287 43.9022 72.7493 43.6973 73.359 43.4916C73.7119 43.3722 74.0562 43.2538 74.4059 43.1345C74.9876 42.9362 75.5715 42.7388 76.1435 42.5406C76.4932 42.4193 76.8363 42.2991 77.1817 42.1778C77.7451 41.9814 78.3106 41.785 78.8664 41.5886C79.2042 41.4684 79.5355 41.349 79.8712 41.2297C80.318 41.0699 80.7713 40.9102 81.2116 40.7504L83.2892 45.6999C82.8402 45.8512 82.3837 46.0025 81.9282 46.1537C81.5224 46.2891 81.122 46.4225 80.7119 46.5578C80.1799 46.7335 79.637 46.9083 79.0974 47.0841C78.6667 47.2241 78.2394 47.365 77.8034 47.505C77.2432 47.6845 76.6734 47.865 76.1068 48.0454C75.6859 48.1788 75.2714 48.3123 74.8462 48.4466C73.9925 48.7145 73.127 48.9841 72.2582 49.2529C71.8492 49.3798 71.4358 49.5057 71.0225 49.6316C70.2681 49.8628 69.5137 50.0949 68.7474 50.326C68.3654 50.4407 67.9747 50.5563 67.5905 50.6719C66.9213 50.873 66.2533 51.0731 65.5766 51.2742C65.1805 51.3907 64.778 51.5082 64.3787 51.6257C63.6998 51.8249 63.021 52.0241 62.3346 52.2233C61.9493 52.3351 61.5575 52.447 61.1701 52.5579C60.5851 52.727 59.9991 52.8943 59.4098 53.0625L58.7202 48.1628ZM74.0562 55.0594H59.685L59.5382 54.0153C59.8944 53.9148 60.243 53.8124 60.5981 53.7109C61.2985 53.5098 62.0011 53.3096 62.694 53.1085C63.022 53.0127 63.3426 52.9187 63.6674 52.8228C64.4207 52.603 65.1762 52.3831 65.9209 52.1632C66.0288 52.1312 66.1335 52.0993 66.2403 52.0673C68.9212 51.2714 71.534 50.4764 74.081 49.6805C74.435 49.5696 74.7933 49.4596 75.1441 49.3488C75.6524 49.1881 76.151 49.0283 76.6529 48.8686C77.1537 48.7088 77.6598 48.5491 78.1552 48.3893C78.5621 48.2587 78.9603 48.1281 79.3639 47.9965C79.9478 47.8076 80.5328 47.6178 81.108 47.4289C81.4307 47.3227 81.7458 47.2166 82.0664 47.1104C82.5963 46.9346 83.1327 46.758 83.6561 46.5823L85.7347 51.5336C85.3699 51.6473 84.9987 51.7629 84.6306 51.8775C84.1148 52.0382 83.6032 52.1989 83.0787 52.3605C82.483 52.5438 81.8764 52.7279 81.2699 52.9121C80.9029 53.0239 80.5403 53.1348 80.1701 53.2467C78.1757 53.8509 76.1348 54.4551 74.0562 55.0594ZM77.4451 55.0575C78.7779 54.6619 80.087 54.2672 81.3821 53.8744C81.7501 53.7626 82.1128 53.6517 82.4776 53.5398C83.4554 53.241 84.4202 52.9422 85.371 52.6452C85.6128 52.5701 85.8664 52.494 86.106 52.4188L87.2144 55.0603H77.4375C77.4407 55.0584 77.4418 55.0575 77.4451 55.0575Z" fill="#444242"/>
</svg>
