<svg width="88" height="52" viewBox="0 0 88 52" fill="none" xmlns="http://www.w3.org/2000/svg">
<path d="M87.0538 14.0351V0.0109126H62.6374H61.3642H38.2113V0H12.5217V12.6558H0.313477V26.68H12.5217V37.9657H0.313477V51.9891H24.7299H26.0031H49.1551V52H74.8447V39.3442H87.0538V25.32H74.8456V14.0351H87.0538ZM62.6374 1.38269H85.7913V12.6625H62.6374V1.38269ZM73.5831 14.0376V25.3183H50.4195V14.0376H73.5831ZM38.2113 37.9657V26.6918H61.3633V37.9724H50.4195V37.9657H38.2113ZM49.156 14.0351V25.3066H26.0031V14.0276H36.9468V14.0351H49.156ZM38.2113 1.38269H61.3633V12.6625H50.4195V12.6558H38.2113V1.38269ZM13.7843 1.37262H36.9478V12.6533H13.7843V1.37262ZM1.57507 14.0276H24.7299V25.3066H1.57507V14.0276ZM24.7299 50.6165H1.57507V39.3375H24.7299V50.6165ZM13.7843 37.9615V26.6817H36.9478V37.9615H13.7843ZM49.156 50.6165H26.0031V39.3375H36.9468V39.3442H49.1551V50.6165H49.156ZM73.5831 50.6274H50.4195V39.3476H73.5831V50.6274ZM85.7913 37.9724H62.6374V26.6918H85.7913V37.9724Z" fill="#444242"/>
</svg>
