<svg width="204" height="30" viewBox="0 0 204 30" fill="none" xmlns="http://www.w3.org/2000/svg">
<path d="M15.32 1.04V3.28H3V13.84H13.4V16.04H3V29H0.2V1.04H15.32ZM40.1266 22.36H27.4066L24.9666 29H22.0066L32.2066 1.4H35.3666L45.5266 29H42.5666L40.1266 22.36ZM39.3266 20.12L33.7666 4.92L28.2066 20.12H39.3266ZM52.7403 15C52.7403 12.2533 53.3403 9.8 54.5403 7.64C55.7403 5.45333 57.3803 3.76 59.4603 2.56C61.5403 1.33333 63.8603 0.719999 66.4203 0.719999C69.5403 0.719999 72.207 1.46667 74.4203 2.96C76.6603 4.42667 78.287 6.50667 79.3003 9.2H76.0203C75.2203 7.33333 73.9936 5.88 72.3403 4.84C70.7136 3.77333 68.7403 3.24 66.4203 3.24C64.367 3.24 62.5136 3.72 60.8603 4.68C59.2336 5.64 57.9536 7.01333 57.0203 8.8C56.087 10.5867 55.6203 12.6533 55.6203 15C55.6203 17.3467 56.087 19.4133 57.0203 21.2C57.9536 22.96 59.2336 24.32 60.8603 25.28C62.5136 26.24 64.367 26.72 66.4203 26.72C68.7403 26.72 70.7136 26.2 72.3403 25.16C73.9936 24.12 75.2203 22.68 76.0203 20.84H79.3003C78.287 23.5067 76.6603 25.5733 74.4203 27.04C72.1803 28.5067 69.5136 29.24 66.4203 29.24C63.8603 29.24 61.5403 28.64 59.4603 27.44C57.3803 26.2133 55.7403 24.52 54.5403 22.36C53.3403 20.2 52.7403 17.7467 52.7403 15ZM91.6797 3.24V13.8H102.28V16.04H91.6797V26.76H103.48V29H88.8797V0.999998H103.48V3.24H91.6797ZM113.357 1.04H116.597L113.077 9.68H111.037L113.357 1.04Z" fill="black"/>
<path d="M141.088 22.36H128.368L125.928 29H122.968L133.168 1.4H136.328L146.488 29H143.528L141.088 22.36ZM140.288 20.12L134.728 4.92L129.168 20.12H140.288ZM160.061 1.04C163.155 1.04 165.808 1.6 168.021 2.72C170.235 3.84 171.928 5.45333 173.101 7.56C174.275 9.66667 174.861 12.1733 174.861 15.08C174.861 17.96 174.275 20.4533 173.101 22.56C171.928 24.64 170.235 26.24 168.021 27.36C165.808 28.4533 163.155 29 160.061 29H151.781V1.04H160.061ZM160.061 26.8C163.955 26.8 166.915 25.7733 168.941 23.72C170.995 21.64 172.021 18.76 172.021 15.08C172.021 11.4 170.995 8.52 168.941 6.44C166.915 4.36 163.955 3.32 160.061 3.32H154.581V26.8H160.061ZM189.103 1.04C192.197 1.04 194.85 1.6 197.063 2.72C199.277 3.84 200.97 5.45333 202.143 7.56C203.317 9.66667 203.903 12.1733 203.903 15.08C203.903 17.96 203.317 20.4533 202.143 22.56C200.97 24.64 199.277 26.24 197.063 27.36C194.85 28.4533 192.197 29 189.103 29H180.823V1.04H189.103ZM189.103 26.8C192.997 26.8 195.957 25.7733 197.983 23.72C200.037 21.64 201.063 18.76 201.063 15.08C201.063 11.4 200.037 8.52 197.983 6.44C195.957 4.36 192.997 3.32 189.103 3.32H183.623V26.8H189.103Z" fill="url(#paint0_linear)"/>
<defs>
<linearGradient id="paint0_linear" x1="-3" y1="-13" x2="28.6981" y2="97.9434" gradientUnits="userSpaceOnUse">
<stop stop-color="#744BE8"/>
<stop offset="0.546559" stop-color="#6974F0"/>
<stop offset="1" stop-color="#54C0FF"/>
</linearGradient>
</defs>
</svg>
