<svg width="207" height="35" viewBox="0 0 207 35" fill="none" xmlns="http://www.w3.org/2000/svg">
<path d="M1.19209e-07 34V5.92H18.28V11.12H6.84V17.16H15.4V22.36H6.84V34H1.19209e-07ZM38.6078 26.92C39.5945 25.96 40.0878 24.6 40.0878 22.84C40.0878 21.08 39.5945 19.7333 38.6078 18.8C37.6211 17.84 36.4878 17.36 35.2078 17.36C33.9278 17.36 32.7945 17.84 31.8078 18.8C30.8211 19.76 30.3278 21.12 30.3278 22.88C30.3278 24.64 30.8211 26 31.8078 26.96C32.7945 27.8933 33.9278 28.36 35.2078 28.36C36.4878 28.36 37.6211 27.88 38.6078 26.92ZM26.3278 31.08C24.3545 28.9467 23.3678 26.2133 23.3678 22.88C23.3678 19.5467 24.3545 16.8133 26.3278 14.68C28.3011 12.52 30.7011 11.44 33.5278 11.44C36.3811 11.44 38.5678 12.4933 40.0878 14.6V11.68H46.9278V34H40.0878V30.76C38.4345 33.1067 36.2211 34.28 33.4478 34.28C30.6745 34.28 28.3011 33.2133 26.3278 31.08ZM56.3775 31.16C54.3242 29.08 53.2975 26.3067 53.2975 22.84C53.2975 19.3733 54.3242 16.6133 56.3775 14.56C58.4575 12.48 61.1375 11.44 64.4175 11.44C67.1375 11.44 69.4442 12.12 71.3375 13.48C73.2308 14.8133 74.4842 16.7333 75.0975 19.24H67.6975C67.0575 17.9067 66.0042 17.24 64.5375 17.24C63.0975 17.24 62.0175 17.76 61.2975 18.8C60.6042 19.8133 60.2575 21.16 60.2575 22.84C60.2575 24.52 60.6042 25.88 61.2975 26.92C62.0175 27.9333 63.0575 28.44 64.4175 28.44C65.2708 28.44 65.9375 28.2933 66.4175 28C66.8975 27.7067 67.3242 27.1867 67.6975 26.44H75.0975C74.4842 28.84 73.2175 30.7467 71.2975 32.16C69.3775 33.5733 67.0842 34.28 64.4175 34.28C61.1375 34.28 58.4575 33.24 56.3775 31.16ZM90.4019 34.28C87.1485 34.28 84.4819 33.24 82.4019 31.16C80.3219 29.0533 79.2819 26.2667 79.2819 22.8C79.2819 19.3333 80.3085 16.5733 82.3619 14.52C84.4419 12.4667 87.1219 11.44 90.4019 11.44C93.6819 11.44 96.4019 12.4533 98.5619 14.48C100.722 16.5067 101.802 19.32 101.802 22.92C101.802 23.6933 101.749 24.4133 101.642 25.08H86.2819C86.4152 26.0667 86.8552 26.88 87.6019 27.52C88.3485 28.1333 89.1485 28.44 90.0019 28.44C90.8819 28.44 91.5352 28.36 91.9619 28.2C92.3885 28.0133 92.6952 27.84 92.8819 27.68C93.0952 27.4933 93.3619 27.2 93.6819 26.8H101.082C100.442 29.04 99.1619 30.8533 97.2419 32.24C95.3219 33.6 93.0419 34.28 90.4019 34.28ZM94.6819 20.8C94.5752 19.76 94.1219 18.92 93.3219 18.28C92.5219 17.6133 91.5752 17.28 90.4819 17.28C89.3885 17.28 88.4685 17.6133 87.7219 18.28C86.9752 18.92 86.5085 19.76 86.3219 20.8H94.6819ZM106.795 0.399999H112.035C112.569 2 112.835 3.65333 112.835 5.36C112.835 7.06667 112.355 8.46667 111.395 9.56C110.462 10.6533 109.075 11.2 107.235 11.2V8.6C108.622 8.6 109.315 7.72 109.315 5.96V5.32H106.795V0.399999Z" fill="#444242"/>
<path d="M137.293 34L135.733 29.28H125.653L124.093 34H116.813L126.573 5.84H134.893L144.613 34H137.293ZM127.373 24.08H134.013L130.693 14.08L127.373 24.08ZM156.809 28.8H159.849C162.462 28.8 164.515 28 166.009 26.4C167.502 24.8 168.249 22.6533 168.249 19.96C168.249 17.2667 167.502 15.12 166.009 13.52C164.515 11.92 162.462 11.12 159.849 11.12H156.809V28.8ZM159.849 5.92C164.329 5.92 168.009 7.22667 170.889 9.84C173.769 12.4267 175.209 15.8 175.209 19.96C175.209 24.0933 173.769 27.4667 170.889 30.08C168.009 32.6933 164.329 34 159.849 34H149.969V5.92H159.849ZM188.379 28.8H191.419C194.032 28.8 196.086 28 197.579 26.4C199.072 24.8 199.819 22.6533 199.819 19.96C199.819 17.2667 199.072 15.12 197.579 13.52C196.086 11.92 194.032 11.12 191.419 11.12H188.379V28.8ZM191.419 5.92C195.899 5.92 199.579 7.22667 202.459 9.84C205.339 12.4267 206.779 15.8 206.779 19.96C206.779 24.0933 205.339 27.4667 202.459 30.08C199.579 32.6933 195.899 34 191.419 34H181.539V5.92H191.419Z" fill="url(#paint0_linear)"/>
<defs>
<linearGradient id="paint0_linear" x1="-3" y1="-11" x2="17.1316" y2="82.6735" gradientUnits="userSpaceOnUse">
<stop stop-color="#E6A519"/>
<stop offset="1" stop-color="#E05B19"/>
</linearGradient>
</defs>
</svg>
